<svg xmlns="http://www.w3.org/2000/svg" width="290" height="290" viewBox="0 0 290 290">
  <path fill-rule="evenodd" d="M144.911569,285 C222.030982,285 285,221.97353 285,145.000063 C285,68.0265449 222.030982,5 144.911569,5 C67.9690553,5 5,68.0265449 5,145.000063 C5,221.97353 67.9690553,285 144.911569,285 Z M145.088431,172.717542 C141.020213,172.717542 138.720747,170.422464 138.720747,166.361942 L137.836433,82.6797553 C137.836433,78.6192331 140.666487,75.7945329 144.911569,75.7945329 C149.15665,75.7945329 152.163567,78.6192331 152.163567,82.8562834 L151.279253,166.361942 C151.10239,170.422464 148.979787,172.717542 145.088431,172.717542 Z M145.088431,213.67592 C138.190159,213.67592 133.060639,208.909223 133.060639,202.377057 C133.060639,196.197997 138.367021,191.254747 145.088431,191.254747 C151.632979,191.254747 156.939361,196.197997 156.939361,202.377057 C156.939361,208.73267 151.632979,213.67592 145.088431,213.67592 Z"/>
</svg>
