<svg xmlns="http://www.w3.org/2000/svg" width="290" height="290" viewBox="0 0 290 290">
  <path fill-rule="evenodd" d="M144.911569,285 C222.030982,285 285,221.97353 285,145.000063 C285,68.0265449 222.030982,5 144.911569,5 C67.9690553,5 5,68.0265449 5,145.000063 C5,221.97353 67.9690553,285 144.911569,285 Z M144.911569,272.112234 C74.6904652,272.112234 18.0890693,215.264823 18.0890693,145.000063 C18.0890693,74.7352391 74.6904652,17.887804 144.911569,17.887804 C215.309572,17.887804 271.734043,74.7352391 271.734043,145.000063 C271.734043,215.264823 215.309572,272.112234 144.911569,272.112234 Z M145.088431,171.481733 C148.802924,171.481733 150.925528,169.186655 150.925528,165.302673 L151.632979,85.8575117 C151.632979,81.7969895 148.802924,79.1488175 144.911569,79.1488175 C141.020213,79.1488175 138.367021,81.7969895 138.367021,85.6809835 L139.074598,165.302673 C139.074598,169.186655 141.197076,171.481733 145.088431,171.481733 Z M145.088431,210.321573 C151.279253,210.321573 156.408773,205.554863 156.408773,199.728897 C156.408773,193.902919 151.456116,188.959669 145.088431,188.959669 C138.543884,188.959669 133.591352,193.726366 133.591352,199.728897 C133.591352,205.907957 138.367021,210.321573 145.088431,210.321573 Z"/>
</svg>
