<svg xmlns="http://www.w3.org/2000/svg" width="290" height="290" viewBox="0 0 290 290">
  <path fill-rule="evenodd" d="M145.000061,285 C222.017092,285 285,222.000006 285,145 C285,67.999994 222.017092,5 145.000061,5 C67.9828958,5 5,67.999994 5,145 C5,222.000006 67.9828958,285 145.000061,285 Z M145.171194,170.268308 C136.955958,170.268308 132.335002,165.829278 132.163869,157.634166 L130.110029,84.0488355 C129.938896,75.8536386 136.271426,69.7073922 145.000061,69.7073922 C153.557441,69.7073922 160.232237,76.0243542 160.061104,84.2195511 L157.836253,157.634166 C157.493865,166.000006 153.044042,170.268308 145.171194,170.268308 Z M145.171194,217.390249 C134.046453,217.390249 126.515871,210.90245 126.515871,201.512207 C126.515871,191.780497 133.87532,185.463426 145.171194,185.463426 C156.295813,185.463426 163.655262,191.60977 163.655262,201.512207 C163.655262,210.90245 156.12468,217.390249 145.171194,217.390249 Z"/>
</svg>
