<svg xmlns="http://www.w3.org/2000/svg" width="290" height="290" viewBox="0 0 290 290">
  <path fill-rule="evenodd" d="M145.000061,285 C222.017092,285 285,222.000006 285,145 C285,67.999994 222.017092,5 145.000061,5 C67.9828958,5 5,67.999994 5,145 C5,222.000006 67.9828958,285 145.000061,285 Z M145.000061,259.048781 C80.9902331,259.048781 32.04157,208.341474 32.04157,145 C32.04157,81.6585748 80.9902331,30.9511947 145.000061,30.9511947 C209.009767,30.9511947 257.95843,81.6585748 257.95843,145 C257.95843,208.341474 209.009767,259.048781 145.000061,259.048781 Z M145.171194,169.073178 C152.701776,169.073178 156.980466,164.975616 157.151599,156.951183 L159.376572,87.1219587 C159.547705,79.2683141 153.215175,73.2926623 145.000061,73.2926623 C136.613692,73.2926623 130.623428,79.0975985 130.794683,86.9512431 L132.848401,156.951183 C133.019534,164.804888 137.298345,169.073178 145.171194,169.073178 Z M145.171194,213.804882 C155.61128,213.804882 162.799475,207.658539 162.799475,198.780491 C162.799475,189.390249 155.782414,183.414645 145.171194,183.414645 C134.38872,183.414645 127.371658,189.560988 127.371658,198.780491 C127.371658,207.658539 134.559974,213.804882 145.171194,213.804882 Z"/>
</svg>
