<svg xmlns="http://www.w3.org/2000/svg" width="280" height="247" viewBox="0 0 280 247">
  <path d="M74.9669343,235.178069 L60.8148323,259.117606 C56.1856401,267.450152 45.8691545,271.814819 36.4785073,266.392051 C27.4846481,261.101546 26.0297591,250.123747 30.791214,241.658938 L40.578649,224.993846 C58.1695796,220.100129 71.6603684,228.961725 74.9669343,235.178069 Z M173.767123,93.9215742 L222.307511,177.643823 L266.615494,177.643823 C276.138403,177.643823 285,184.653742 285,195.102491 C285,205.418976 276.138403,212.428896 266.615494,212.428896 L242.279169,212.428896 L259.341049,241.658938 C264.102504,250.123747 262.515352,261.233808 253.38923,266.392051 C244.130846,271.682557 233.81436,267.450152 229.185168,259.117606 L167.947567,153.307498 C157.102031,134.922991 159.350496,104.502585 173.767123,93.9215742 Z M137.659424,31.6258727 L144.933869,43.6617726 L152.340576,31.6258727 C156.837506,23.2933266 167.286254,19.1931849 176.544639,24.4836904 C185.406235,29.5096705 187.12565,40.8842572 182.364195,49.2168033 L108.297119,177.643823 L150.621162,177.643823 C171.783184,177.643823 179.983467,196.954167 176.147851,212.428896 L23.3845064,212.428896 C13.8615966,212.428896 5,205.418976 5,195.102491 C5,184.653742 13.8615966,177.643823 23.3845064,177.643823 L67.824752,177.643823 L125.094473,78.711371 L107.768068,49.2168033 C103.006613,40.8842572 104.461502,29.6419332 113.455361,24.4836904 C122.713746,18.9286597 133.162494,23.2933266 137.659424,31.6258727 Z" transform="translate(-5 -22)"/>
</svg>
