<svg xmlns="http://www.w3.org/2000/svg" width="290" height="290" viewBox="0 0 290 290">
  <path fill-rule="nonzero" d="M145,285 C221.588235,285 285,221.45098 285,145 C285,68.4117647 221.45098,5 144.862745,5 C68.4117647,5 5,68.4117647 5,145 C5,221.45098 68.5490196,285 145,285 Z M145,261.666667 C80.2156863,261.666667 28.4705882,209.784314 28.4705882,145 C28.4705882,80.2156863 80.0784314,28.3333333 144.862745,28.3333333 C209.647059,28.3333333 261.529412,80.2156863 261.666938,145 C261.803922,209.784314 209.784314,261.666667 145,261.666667 Z M162.843137,179.588235 C165.039216,170.392157 160.509804,159 148.019608,159 L123.313725,159 L166.823529,83.7843137 C169.568627,78.9803922 168.607843,72.3921569 162.980392,69.372549 C157.627451,66.627451 151.588235,68.9607843 148.843137,73.627451 L144.72549,80.7647059 L140.470588,73.627451 C137.72549,68.9607843 131.686275,66.4901961 126.470588,69.372549 C120.980392,72.5294118 120.156863,78.8431373 122.901961,83.7843137 L132.921569,101.352941 L99.5686275,159 L73.4901961,159 C68,159 63.0588235,163.117647 63.0588235,169.568627 C63.0588235,175.333333 68,179.588235 73.4901961,179.588235 L162.843137,179.588235 Z M208,211.156863 C213.490196,208.137255 214.313725,201.686275 211.568627,196.882353 L201.823529,179.588235 L216.098039,179.588235 C221.588235,179.588235 226.666667,175.333333 226.666667,169.568627 C226.666667,163.117647 221.588235,159 216.098039,159 L190.156863,159 L161.607843,110.27451 C153.235294,116.45098 152,134.019608 158.313725,145 L194.137255,206.764706 C196.882353,211.705882 202.647059,213.901961 208,211.156863 Z M95.4509804,206.764706 L103.823529,192.627451 C101.764706,189.058824 94.0784314,183.843137 83.6470588,186.72549 L78.0196078,196.882353 C75.4117647,201.686275 75.9607843,208 81.3137255,211.156863 C86.9411765,214.176471 92.5686275,211.705882 95.4509804,206.764706 Z" />
</svg>