<?xml version="1.0" encoding="utf-8"?>
<!-- Generator: Adobe Illustrator 19.2.1, SVG Export Plug-In . SVG Version: 6.00 Build 0)  -->
<svg version="1.1" id="Layer_1" xmlns="http://www.w3.org/2000/svg" xmlns:xlink="http://www.w3.org/1999/xlink" x="0px" y="0px"
	 viewBox="0 0 290 290" style="enable-background:new 0 0 290 290;" xml:space="preserve">
<g>
	<path d="M147.5,79.8c4.9,0,13-1.9,24.1-5.7s20.8-5.7,29-5.7c13.5,0,25.4,3.6,35.9,10.8c5.9,4.2,11.8,9.8,17.6,16.9
		c-8.7,7.4-15.1,14.1-19.2,19.8c-7.3,10.5-11,22.1-11,34.8c0,13.9,3.9,26.4,11.6,37.6s16.6,18.2,26.6,21.2
		c-4.2,13.5-11,27.5-20.7,42.2c-14.5,22-29,33-43.3,33c-5.7,0-13.5-1.8-23.5-5.4s-18.5-5.4-25.3-5.4c-6.9,0-14.9,1.9-24,5.7
		s-16.5,5.7-22.2,5.7c-17.2,0-34-14.5-50.5-43.6c-16.5-28.8-24.8-57-24.8-84.6c0-25.7,6.3-46.6,18.9-62.8s28.6-24.3,47.8-24.3
		c8.2,0,18.1,1.7,29.8,5.1C136,78.1,143.7,79.8,147.5,79.8z M198.9,12.1c0,7-1.6,14.7-4.9,23s-8.5,16-15.6,23.1
		c-6.1,6-12.2,10.1-18.2,12.1c-3.8,1.2-9.6,2.1-17.4,2.8c0.2-16.6,4.6-31,13-43.1c8.5-12.1,22.5-20.4,42.1-24.9
		c0.4,1.4,0.7,2.7,0.8,3.8C198.8,9.9,198.9,11,198.9,12.1z"/>
</g>
</svg>
