<svg xmlns="http://www.w3.org/2000/svg" width="290" height="290" viewBox="0 0 290 290">
  <path fill-rule="evenodd" d="M28.8119123,78.8914931 L261.188147,78.8914931 C277.016063,78.8914931 285,69.5067891 285,53.81893 L285,41.0725631 C285,25.3847041 277.016063,16 261.188147,16 L28.8119123,16 C13.824414,16 5,25.3847041 5,41.0725631 L5,53.81893 C5,69.5067891 12.9839934,78.8914931 28.8119123,78.8914931 Z M68.171597,273.869028 L221.828492,273.869028 C249.422278,273.869028 264.129639,259.581887 264.129639,232.128148 L264.129639,98.0810719 L25.8704399,98.0810719 L25.8704399,232.128148 C25.8704399,259.721954 40.5777917,273.869028 68.171597,273.869028 Z M98.8469414,148.646369 C92.9639967,148.646369 88.9019701,144.584322 88.9019701,138.421323 L88.9019701,134.079064 C88.9019701,127.916065 92.9639967,123.994076 98.8469414,123.994076 L191.293215,123.994076 C197.1761,123.994076 201.378203,127.916065 201.378203,134.079064 L201.378203,138.421323 C201.378203,144.584322 197.1761,148.646369 191.293215,148.646369 L98.8469414,148.646369 Z"/>
</svg>
