<svg xmlns="http://www.w3.org/2000/svg" width="290" height="290" viewBox="0 0 290 290">
  <path fill="#333" d="M133.624192,264.443213 C143.578024,264.443213 150.946445,257.074792 150.946445,247.250231 L150.946445,200.583564 L154.178209,200.583564 C201.620499,200.583564 230.706371,214.286242 251.260388,252.550323 C256.301939,261.857802 262.636196,263.926131 269.228994,263.926131 C278.148661,263.926131 285,255.652816 285,239.752539 C285,145.902124 243.762696,88.2474608 154.178209,88.2474608 L150.946445,88.2474608 L150.946445,41.9686057 C150.946445,32.0147738 143.578024,24 133.365651,24 C126.514312,24 121.731302,26.843952 114.362881,33.6952909 L11.8513389,129.226223 C6.80978763,134.009234 5,139.309326 5,144.221607 C5,148.875346 6.93905817,154.43398 11.9806094,159.21699 L114.362881,255.394275 C121.084949,261.599261 126.643583,264.443213 133.624192,264.443213 Z M125.480148,231.608495 C124.704524,231.608495 124.058172,231.220683 123.282548,230.574331 L34.6029548,146.677747 C33.5687904,145.643583 33.3102493,144.99723 33.3102493,144.221607 C33.3102493,143.445983 33.5687904,142.799631 34.6029548,141.765466 L123.282548,57.0932595 C123.928901,56.4469067 124.575254,56.0590951 125.480148,56.0590951 C126.514312,56.0590951 127.419206,56.8347184 127.419206,57.9981533 L127.419206,106.99169 C127.419206,109.964912 128.711911,111.257618 131.685134,111.257618 L148.231764,111.257618 C232.257618,111.257618 261.084949,167.102493 263.282548,228.506002 C263.282548,229.410896 262.894737,229.798707 262.377655,229.798707 C261.731302,229.798707 261.472761,229.410896 261.084949,228.635272 C245.701754,196.317636 207.696214,177.314866 148.231764,177.314866 L131.685134,177.314866 C128.711911,177.314866 127.419206,178.607572 127.419206,181.580794 L127.419206,229.540166 C127.419206,230.703601 126.643583,231.608495 125.480148,231.608495 Z"/>
</svg>
