<svg xmlns="http://www.w3.org/2000/svg" width="290" height="290" viewBox="0 0 290 290">
  <path fill-rule="evenodd" d="M278.613049,278.774184 C283.022954,274.36423 285.098215,268.657238 284.83883,261.912596 L284.579446,73.3223386 C284.320061,66.5776041 282.244801,61.389361 278.09428,57.23884 C269.793054,48.9377981 256.822722,48.4190289 248.262111,57.23884 C244.11159,61.1299764 241.517561,66.5776041 241.517561,72.2846164 L240.998792,119.497059 L246.186851,220.925971 L212.982499,182.274029 L42.5508359,11.5829255 C33.4715299,2.76293059 20.7604868,2.76293059 11.9405801,11.8423101 C2.86126494,20.9216896 2.60185646,33.3732525 11.6811716,42.4526321 L182.112885,213.143699 L220.505388,246.088647 L119.595318,240.900478 L72.1234724,241.678705 C66.6758815,241.678705 61.2282905,244.27279 57.0777512,248.163926 C48.5172511,256.983829 48.7766541,269.694868 57.3371542,278.255365 C61.2282905,282.146501 66.4164785,284.481181 73.1611027,284.481181 L261.751397,285 C268.496131,285 274.462528,282.924728 278.613049,278.774184 Z"/>
</svg>
