<svg xmlns="http://www.w3.org/2000/svg" width="290px" height="290px" viewBox="0 0 290 290">
  <g stroke="none" stroke-width="1" fill="none" fill-rule="evenodd">
    <path fill="#333" fill-rule="nonzero" d="M144.739839,5 C163.926695,5 181.957675,8.64315616 198.832781,15.9294685 C215.707887,23.2155439 230.61803,33.3353037 243.56321,46.2887478 C256.508627,59.2419551 266.651112,74.161344 273.990667,91.0469144 C281.330222,107.932722 285,125.91709 285,145.000018 C285,164.082946 281.330222,182.067195 273.990667,198.952766 C266.651112,215.838336 256.537624,230.757844 243.650203,243.711288 C230.762544,256.664613 215.881162,266.784397 199.006056,274.070638 C182.13095,281.356879 164.099969,285 144.913114,285 C125.842012,285 107.868908,281.356879 90.993802,274.070638 C74.1186959,266.784397 59.2373138,256.664613 46.3496554,243.711288 C33.4622338,230.757844 23.3487692,215.838336 16.0092615,198.952766 C8.66975384,182.067195 5,164.082946 5,145.000018 C5,125.91709 8.66975384,107.932722 16.0092615,91.0469144 C23.3487692,74.161344 33.4333547,59.2419551 46.2630181,46.2887478 C59.0929182,33.3353037 73.9454213,23.2155439 90.8205273,15.9294685 C107.695633,8.64315616 125.668737,5 144.739839,5 Z M145.086744,72.6581068 C141.61912,72.6581068 138.758431,73.7856827 136.504677,76.0408345 C134.250686,78.2962232 133.123691,81.1586861 133.123691,84.6282233 L133.123691,84.6282233 L133.123691,148.122672 L134.510598,180.216839 L121.160992,163.562563 L106.597399,148.816556 C104.285886,146.50361 101.454076,145.347137 98.101969,145.347137 C94.7500985,145.347137 91.9761652,146.474713 89.7801692,148.729865 C87.5841732,150.985017 86.4861752,153.731773 86.4861752,156.970134 C86.4861752,160.439908 87.526415,163.273474 89.6068945,165.470832 L89.6068945,165.470832 L135.724231,211.270002 C138.845068,214.392775 141.965906,215.954161 145.086744,215.954161 C148.322861,215.954161 151.501339,214.392775 154.622177,211.270002 L154.622177,211.270002 L200.566593,165.470832 C202.762589,163.157649 203.860587,160.324083 203.860587,156.970134 C203.860587,153.731773 202.733592,150.985017 200.479601,148.729865 C198.225847,146.474713 195.423034,145.347137 192.071164,145.347137 C188.60354,145.347137 185.77173,146.50361 183.575734,148.816556 L183.575734,148.816556 L169.18577,163.562563 L155.835809,180.390221 L157.222717,148.122672 L157.222717,84.6282233 C157.222717,81.1586861 156.09584,78.2962232 153.842085,76.0408345 C151.588095,73.7856827 148.669647,72.6581068 145.086744,72.6581068 Z"></path>
  </g>
</svg>