<svg xmlns="http://www.w3.org/2000/svg" width="290" height="290" viewBox="0 0 290 290">
  <path fill-rule="evenodd" d="M281.54398,281.54398 C283.670718,279.41723 284.468174,277.024635 284.468174,273.834511 L285,72.8565421 C284.734181,69.9323476 283.936537,67.5397907 282.075617,65.6788712 C277.822141,61.4253947 271.973563,61.6912134 267.985906,65.4130524 C266.124986,67.273972 264.795893,69.9323476 264.795893,72.3249046 L264.529885,180.789195 L266.390805,254.693754 L234.75555,220.665754 L22.0804606,7.99074331 C18.0928047,4.00308556 12.2442426,4.00308556 7.99074161,7.99074331 C4.00308613,11.978401 4.00308613,18.092797 7.99074161,21.814636 L220.66565,234.755484 L254.69365,266.39089 L180.789186,264.52997 L72.5907706,264.795826 C69.9323384,264.795826 67.5397438,266.125033 65.4129867,267.985953 C61.6911854,271.707762 61.6911854,277.822167 65.6788431,281.809823 C67.5397438,283.936574 70.198176,284.999949 75.2492028,284.999949 L274.100302,284.468261 C277.024685,284.468261 279.68306,283.404886 281.54398,281.54398 Z"/>
</svg>
