<svg xmlns="http://www.w3.org/2000/svg" width="290" height="290" viewBox="0 0 290 290">
  <path fill-rule="evenodd" d="M281.54398,8.45602028 C279.68306,6.59510077 277.024685,5.53163746 274.100302,5.53163746 L75.2492028,5 C70.198176,5 67.5397438,6.06327492 65.6788431,8.19001316 C61.6911854,12.1776709 61.6911854,18.2922553 65.4129867,22.0139059 C67.5397438,23.8748254 69.9323384,25.2041074 72.5907706,25.2041074 L180.789186,25.4699262 L254.69365,23.6090067 L220.66565,55.2444499 L7.99074161,268.185298 C4.00308613,271.907099 4.00308613,278.021514 7.99074161,282.009172 C12.2442426,285.996829 18.0928047,285.996829 22.0804606,282.009172 L234.75555,69.3341613 L266.390805,35.3061612 L264.529885,109.210739 L264.795893,217.674973 C264.795893,220.067567 266.124986,222.726 267.985906,224.586919 C271.973563,228.30872 277.822141,228.574577 282.075617,224.321063 C283.936537,222.460162 284.734181,220.067567 285,217.143298 L284.468174,16.1653286 C284.468174,12.9753155 283.670718,10.5827585 281.54398,8.45602028 Z"/>
</svg>
