<svg xmlns="http://www.w3.org/2000/svg" width="290" height="290" viewBox="0 0 290 290">
  <path d="M74,233 C76.1739688,233 77.7808008,231.289376 77.7808008,229.198613 L77.7808008,87.3118514 L77.1191523,66.404167 L99.2369543,89.4976456 L136.478093,126.846266 C137.234254,127.606539 138.179437,127.891616 139.313711,127.891616 C141.298656,127.891616 143,126.276044 143,123.995224 C143,122.949806 142.621886,121.904455 141.015054,120.383909 L76.7411057,56.2354694 C75.9849455,55.3801703 75.0396951,55 74,55 C72.8657263,55 71.9205428,55.3801703 71.1643826,56.2354694 L6.13424627,121.239208 C5.37808216,122.094507 5,122.949806 5,123.995224 C5,126.276044 6.60684939,127.891616 8.68630122,127.891616 C9.72602714,127.891616 10.8602734,127.511513 11.5219172,126.846266 L48.6684939,89.4976456 L70.7862959,66.404167 L70.2191724,87.3118514 L70.2191724,229.198613 C70.2191724,231.289376 71.7315061,233 74,233 Z M216,56 C213.731453,56 212.219132,57.7106655 212.219132,59.8014341 L212.219132,201.688201 L212.786269,222.595839 L190.668467,199.502406 L153.521907,162.153798 C152.860258,161.48855 151.725984,161.10838 150.686289,161.10838 C148.606832,161.10838 147,162.723952 147,165.00484 C147,166.05019 147.378047,166.905503 148.134207,167.760816 L213.164383,232.764549 C213.920543,233.619861 214.865726,234 216,234 C217.039695,234 217.984879,233.619861 218.741039,232.764549 L283.015054,168.616128 C284.621886,167.095575 285,166.05019 285,165.00484 C285,162.723952 283.298589,161.10838 281.313644,161.10838 C280.179437,161.10838 279.234187,161.393525 278.478026,162.153798 L241.236954,199.502406 L219.119152,222.595839 L219.780801,201.688201 L219.780801,59.8014341 C219.780801,57.7106655 218.173969,56 216,56 Z" transform="rotate(90 145 144.5)"/>
</svg>
