<svg xmlns="http://www.w3.org/2000/svg" width="290" height="290" viewBox="0 0 290 290">
  <path fill-rule="evenodd" d="M285,144.848817 C285,140.422707 283.075646,136.189019 279.419223,132.725155 L180.312737,34.0035116 C176.656314,30.5395106 172.807606,29 168.573917,29 C159.721698,29 152.793832,35.5430222 152.793832,44.5876637 C152.793832,48.8213519 154.333342,53.05504 157.219942,55.9416393 L181.659825,81.15121 L237.467322,131.378066 L199.941667,128.683888 L20.9725073,128.683888 C11.5429567,128.683888 5,135.419332 5,144.848817 C5,154.278412 11.5429567,161.013801 20.9725073,161.013801 L199.941667,161.013801 L237.65988,158.127202 L181.659825,208.546452 L157.219942,233.756077 C154.333342,236.642676 152.793832,240.876351 152.793832,245.110025 C152.793832,254.154708 159.721698,260.697662 168.573917,260.697662 C172.807606,260.697662 176.656314,259.158138 180.312737,255.694218 L279.419223,156.972562 C283.075646,153.508643 285,149.274968 285,144.848817 Z"/>
</svg>
