<svg xmlns="http://www.w3.org/2000/svg" width="290px" height="290px" viewBox="0 0 290 290">
  <g stroke="none" stroke-width="1" fill="none" fill-rule="evenodd">
    <path fill="#333" fill-rule="nonzero" d="M144.739839,5 C163.926695,5 181.957675,8.64315616 198.832781,15.9294685 C215.707887,23.2155439 230.61803,33.3353037 243.56321,46.2887478 C256.508627,59.2419551 266.651112,74.161344 273.990667,91.0469144 C281.330222,107.932722 285,125.91709 285,145.000018 C285,164.082946 281.330222,182.067195 273.990667,198.952766 C266.651112,215.838336 256.537624,230.757844 243.650203,243.711288 C230.762544,256.664613 215.881162,266.784397 199.006056,274.070638 C182.13095,281.356879 164.099969,285 144.913114,285 C125.842012,285 107.868908,281.356879 90.993802,274.070638 C74.1186959,266.784397 59.2373138,256.664613 46.3496554,243.711288 C33.4622338,230.757844 23.3487692,215.838336 16.0092615,198.952766 C8.66975384,182.067195 5,164.082946 5,145.000018 C5,125.91709 8.66975384,107.932722 16.0092615,91.0469144 C23.3487692,74.161344 33.4333547,59.2419551 46.2630181,46.2887478 C59.0929182,33.3353037 73.9454213,23.2155439 90.8205273,15.9294685 C107.695633,8.64315616 125.668737,5 144.739839,5 Z M144.739839,31.369359 C129.020608,31.369359 114.312619,34.2896159 100.615872,40.1301299 C86.9193618,45.9706438 74.898787,54.0953249 64.5541474,64.5041733 C54.2095079,74.9132586 46.14762,86.9992 40.3684838,100.761998 C34.5893477,114.525032 31.6997796,129.271039 31.6997796,145.000018 C31.6997796,160.728997 34.6182268,175.475004 40.4551212,189.238038 C46.2920156,203.000836 54.3827826,215.086658 64.7274221,225.495507 C75.0720617,235.904545 87.0927549,244.029344 100.789502,249.869906 C114.486012,255.710467 129.193883,258.630748 144.913114,258.630748 C160.748099,258.630748 175.542725,255.710467 189.296994,249.869906 C203.051499,244.029344 215.101071,235.904545 225.445711,225.495507 C235.79035,215.086658 243.881117,203.000836 249.718011,189.238038 C255.555143,175.475004 258.473708,160.728997 258.473708,145.000018 C258.473708,129.271039 255.526263,114.525032 249.631374,100.761998 C243.736722,86.9992 235.588196,74.9132586 225.185799,64.5041733 C214.783164,54.0953249 202.733592,45.9706438 189.037082,40.1301299 C175.340571,34.2896159 160.574824,31.369359 144.739839,31.369359 Z M144.913114,75.2602597 C148.264985,75.2602597 151.010157,76.3589386 153.148632,78.5562963 C155.286869,80.753891 156.355988,83.5296628 156.355988,86.8836119 L156.355988,86.8836119 L156.355988,148.122672 L155.31563,179.175835 L168.145412,162.868679 L182.015552,148.816556 C184.096031,146.50361 186.812206,145.347137 190.164077,145.347137 C193.400431,145.347137 196.116606,146.416919 198.312602,148.556483 C200.508598,150.696047 201.606596,153.385009 201.606596,156.62337 C201.606596,159.861731 200.508598,162.521796 198.312602,164.603566 L198.312602,164.603566 L154.101997,208.841231 C151.096913,211.848416 148.033952,213.352008 144.913114,213.352008 C141.90803,213.352008 138.902945,211.848416 135.897861,208.841231 L135.897861,208.841231 L91.3403513,164.603566 C89.3756249,162.521796 88.3932617,159.861731 88.3932617,156.62337 C88.3932617,153.385009 89.4623806,150.696047 91.6006184,148.556483 C93.7388562,146.416919 96.3683939,145.347137 99.4892316,145.347137 C102.725586,145.347137 105.499519,146.50361 107.811031,148.816556 L107.811031,148.816556 L121.854446,162.868679 L134.510598,179.002453 L133.29732,148.122672 L133.29732,86.8836119 C133.29732,83.5296628 134.395318,80.753891 136.591314,78.5562963 C138.78731,76.3589386 141.561244,75.2602597 144.913114,75.2602597 Z"></path>
  </g>
</svg>