<svg xmlns="http://www.w3.org/2000/svg" width="290" height="290" viewBox="0 0 290 290">
  <path fill-rule="evenodd" d="M278.613036,11.225965 C274.462515,7.07526039 268.496118,5 261.751384,5 L73.1610994,5.51895297 C66.4164756,5.51895297 61.2282879,7.85359792 57.3371517,11.7447341 C48.776652,20.3051602 48.5172491,33.016291 57.0777487,41.8361016 C61.2282879,45.7272378 66.6758785,48.3214512 72.1234692,48.3214512 L119.595313,49.0996049 L220.505377,43.911362 L182.112876,76.8563275 L11.6811713,247.547478 C2.60185658,256.626783 2.86126504,269.078419 11.9405798,278.157743 C20.7604861,287.237049 33.4715285,287.237049 42.5508341,278.417146 L212.982489,107.726033 L246.186839,69.0740551 L240.99878,170.502981 L241.51755,217.71544 C241.51755,223.422433 244.111579,228.870024 248.2621,232.76116 C256.82271,241.581063 269.793041,241.062257 278.094267,232.76116 C282.244787,228.610621 284.320048,223.422433 284.579432,216.677809 L284.838817,28.0874326 C285.098201,21.3428823 283.022941,15.6358703 278.613036,11.225965 Z"/>
</svg>
