<svg xmlns="http://www.w3.org/2000/svg" width="290" height="290" viewBox="0 0 290 290">
  <path d="M80.500033,233 C85.3364515,233 88.7776847,229.656465 88.7776847,224.826913 L88.7776847,103.809497 L87.2895661,81.3335197 L115.936015,112.63274 L137.14187,133.436976 C138.629989,134.922983 140.769168,135.665987 143.001346,135.665987 C147.651766,135.665987 151,132.136703 151,127.585748 C151,125.356736 150.255941,123.406327 148.209761,121.36305 L86.731571,59.8791476 C84.9643889,57.928804 82.8252101,57 80.500033,57 C78.1747899,57 76.0356111,57.928804 74.2684817,59.8791476 L12.5112144,121.548851 C10.7440633,123.406327 10,125.356736 10,127.585748 C10,132.136703 13.3482854,135.665987 17.9986806,135.665987 C20.2308717,135.665987 22.3700571,134.922983 23.8581824,133.436976 L45.0639918,112.63274 L73.6174216,81.2406525 L72.2223087,103.809497 L72.2223087,224.826913 C72.2223087,229.656465 75.6636012,233 80.500033,233 Z M219.499967,57 C214.663548,57 211.222315,60.3435496 211.222315,65.1731067 L211.222315,186.190509 L212.617435,208.759367 L184.063985,177.367286 L162.85813,156.56309 C161.370011,155.077082 159.230832,154.334079 156.998654,154.334079 C152.348234,154.334079 149,157.863363 149,162.414252 C149,164.643264 149.744059,166.593673 151.511176,168.451195 L213.268429,230.213721 C215.035611,232.07124 217.17479,233 219.499967,233 C221.82521,233 223.964389,232.07124 225.731505,230.213721 L287.209761,168.63695 C289.255941,166.593673 290,164.643264 290,162.414252 C290,157.863363 286.6517,154.334079 282.001346,154.334079 C279.769102,154.334079 277.629923,155.077082 276.141804,156.56309 L254.936015,177.367286 L226.289566,208.666493 L227.777685,186.190509 L227.777685,65.1731067 C227.777685,60.3435496 224.336386,57 219.499967,57 Z" transform="rotate(90 150 145)"/>
</svg>
