<svg xmlns="http://www.w3.org/2000/svg" width="290" height="290" viewBox="0 0 290 290">
  <path fill-rule="evenodd" d="M285,144.652884 C285,142.536108 284.230313,140.804176 282.690802,139.264665 L181.08256,37.2714429 C178.580804,34.5772653 176.656314,34 174.73196,34 C170.498271,34 167.41925,37.0790211 167.41925,40.9278657 C167.41925,42.8522198 167.996516,44.7765739 169.343604,46.1236627 L224.766394,101.738874 L263.446716,138.687263 L229.962191,137.532596 L12.1202752,137.532596 C8.07903748,137.532596 5,140.419196 5,144.652884 C5,148.886599 8.07903748,151.773199 12.1202752,151.773199 L229.962191,151.773199 L263.446716,150.618559 L224.766394,187.567017 L169.343604,243.182132 C168.189074,244.336772 167.41925,246.453616 167.41925,248.378011 C167.41925,252.226815 170.498271,255.30585 174.73196,255.30585 C176.656314,255.30585 178.388382,254.72853 179.927893,253.189006 L282.690802,150.041239 C284.230313,148.501715 285,146.769796 285,144.652884 Z"/>
</svg>
