<?xml version="1.0" encoding="utf-8"?>
<!-- Generator: Adobe Illustrator 19.2.1, SVG Export Plug-In . SVG Version: 6.00 Build 0)  -->
<svg version="1.1" xmlns="http://www.w3.org/2000/svg" xmlns:xlink="http://www.w3.org/1999/xlink"
	 viewBox="0 0 290 290" xml:space="preserve">
<path d="M241.6,175.4c-4.3,0-8.7-15.5-8.7-21.7c0-7.7,17.4-32.3,17.4-56.4c0-37.7-33.4-60.8-69.4-60.8
	c-4.7,0-14.1,2-17.4,4.3c-1.4,1.1-3.5,10.9-4.3,10.8c-16.5,10.9-34.7,41.2-34.7,41.2s-8.7,3-8.7,6.5c0,3.5,10.8,7.4,10.8,8.7
	s-2.2,2.2-2.2,4.3c-0.1,7.9,1.6,3.6,8.7,10.8c0,1.3,0,3.8,0,6.5c-4.8,8.4-8.6,0-10.8,21.7c0,4.2,3,10.8,6.5,10.8
	c16,0,32.6,9,32.6,19.5c-5.2,4.1-15.2,12.5-15.2,15.2c0,2.7,10.8,11.9,10.8,15.2c-17.1,30.1-15.2,41.2-15.2,41.2H285
	C285,253.5,287.4,203.9,241.6,175.4z M89.6,114.6c-7,0-13,8.7-13,8.7S10.9,137,9.3,138.5C7.8,139.9,5,143.3,5,145
	c0,1.6,1.9,8.7,6.5,8.7c2.4,0,14.6-4.3,19.5-4.3s15.2,19.5,15.2,19.5v84.6h13v-99.8c0,0,8.1-13,19.5-13c5.3,0,2.3,2.2,10.8,2.2
	s15.2-7.2,15.2-15.2C104.8,121.5,96.7,114.6,89.6,114.6z"/>
</svg>
