<svg xmlns="http://www.w3.org/2000/svg" width="290" height="290" viewBox="0 0 290 290">
  <path fill="#333" d="M227.246575,285 C251.767123,285 266.150685,270.753425 266.150685,242.534247 L266.150685,100.753425 C266.150685,72.5342466 251.630137,58.2876712 223.136986,58.2876712 L201.219178,58.2876712 C200.534247,29.5205479 175.465753,5 144.506849,5 C113.547945,5 88.4794521,29.5205479 87.7945205,58.2876712 L66.0136986,58.2876712 C37.3835616,58.2876712 23,72.3972603 23,100.753425 L23,242.534247 C23,270.890411 37.3835616,285 66.0136986,285 L227.246575,285 Z M179.164384,58.2876712 L109.849315,58.2876712 C110.534247,40.3424658 125.191781,25.8219178 144.506849,25.8219178 C163.821918,25.8219178 178.479452,40.3424658 179.164384,58.2876712 Z"/>
</svg>
