<svg xmlns="http://www.w3.org/2000/svg" width="290" height="290" viewBox="0 0 290 290">
  <path fill-rule="evenodd" d="M37.4646731,236.074538 L173.940989,236.074538 C172.856774,254.370762 161.201345,266.026134 144.802511,266.026134 C128.539192,266.026134 116.748343,254.370762 115.799643,236.074538 L94.6573191,236.074538 C95.7415435,262.095839 116.206188,285 144.802511,285 C173.534349,285 193.999012,262.231363 195.083323,236.074538 L252.275969,236.074538 C265.015518,236.074538 272.740633,229.433676 272.740633,219.675695 C272.740633,206.122932 258.916773,193.925452 247.261439,181.863497 C238.316595,172.512108 235.877039,153.267174 234.792824,137.681526 C233.844124,84.2835837 220.020361,49.724031 183.970049,36.7134527 C179.362064,19.0947932 164.86063,5 144.802511,5 C124.880003,5 110.242997,19.0947932 105.770584,36.7134527 C69.7202428,49.724031 55.8964218,84.2835837 54.9477314,137.681526 C53.8635069,153.267174 51.4240091,172.512108 42.4791932,181.863497 C30.688287,193.925452 17,206.122932 17,219.675695 C17,229.433676 24.5895463,236.074538 37.4646731,236.074538 Z M43.2923592,215.609865 L43.2923592,213.983533 C45.731857,209.917703 53.8635069,202.057102 60.9109419,194.060977 C70.6689333,183.218742 75.2768704,165.871208 76.4966193,139.3078 C77.5808438,80.217754 95.1994265,61.2439459 118.374618,55.0096865 C121.762873,54.1965013 123.660273,52.4346162 123.795788,49.0464567 C124.202332,34.8160527 132.333992,24.9225081 144.802511,24.9225081 C157.406641,24.9225081 165.402689,34.8160527 165.944845,49.0464567 C166.080359,52.4346162 167.842245,54.1965013 171.230404,55.0096865 C194.541168,61.2439459 212.159731,80.217754 213.243946,139.3078 C214.463772,165.871208 219.071661,183.218742 228.69408,194.060977 C235.877039,202.057102 243.873184,209.917703 246.312739,213.983533 L246.312739,215.609865 L43.2923592,215.609865 Z"/>
</svg>
