<svg xmlns="http://www.w3.org/2000/svg" width="290" height="290" viewBox="0 0 290 290">
  <path fill-rule="evenodd" d="M39.0855121,231.793359 L249.916872,231.793359 C262.420388,231.793359 270.002375,225.275546 270.002375,215.698347 C270.002375,202.396684 256.434638,190.425232 244.99525,178.586737 C236.216132,169.408607 233.821775,150.520235 232.757648,135.223257 C231.826525,84.1448795 218.258883,48.8954968 182.876496,36.1259731 C177.82187,18.8337449 164.121129,5 144.434638,5 C124.881246,5 111.047492,18.8337449 106.125879,36.1259731 C70.7434638,48.8954968 57.1757648,84.1448795 56.2446514,135.223257 C55.180515,150.520235 52.7862152,169.408607 44.0071252,178.586737 C32.4346761,190.425232 19,202.396684 19,215.698347 C19,225.275546 26.4489303,231.793359 39.0855121,231.793359 Z M144.434638,285 C167.047501,285 183.541517,268.505938 185.270758,249.883612 L103.731579,249.883612 C105.460792,268.505938 121.954874,285 144.434638,285 Z"/>
</svg>
