<?xml version="1.0" encoding="utf-8"?>
<!-- Generator: Adobe Illustrator 19.2.1, SVG Export Plug-In . SVG Version: 6.00 Build 0)  -->
<svg version="1.1" id="Layer_1" xmlns="http://www.w3.org/2000/svg" xmlns:xlink="http://www.w3.org/1999/xlink" x="0px" y="0px"
	 viewBox="0 0 290 290" style="enable-background:new 0 0 290 290;" xml:space="preserve">
<style type="text/css">
	.st0{fill-rule:evenodd;clip-rule:evenodd;}
</style>
<g>
	<g>
		<g>
			<rect x="113.9" y="107.7" class="st0" width="24.9" height="24.9"/>
		</g>
	</g>
	<g>
		<g>
			<rect x="151.2" y="182.3" class="st0" width="24.9" height="24.9"/>
		</g>
	</g>
	<g>
		<g>
			<rect x="151.2" y="107.7" class="st0" width="24.9" height="24.9"/>
		</g>
	</g>
	<g>
		<g>
			<rect x="151.2" y="145" class="st0" width="24.9" height="24.9"/>
		</g>
	</g>
	<g>
		<g>
			<rect x="188.5" y="145" class="st0" width="24.9" height="24.9"/>
		</g>
	</g>
	<g>
		<g>
			<rect x="188.5" y="182.3" class="st0" width="24.9" height="24.9"/>
		</g>
	</g>
	<g>
		<g>
			<rect x="188.5" y="107.7" class="st0" width="24.9" height="24.9"/>
		</g>
	</g>
	<g>
		<g>
			<rect x="76.7" y="182.3" class="st0" width="24.9" height="24.9"/>
		</g>
	</g>
	<g>
		<g>
			<rect x="76.7" y="145" class="st0" width="24.9" height="24.9"/>
		</g>
	</g>
	<g>
		<g>
			<path class="st0" d="M145,5C67.7,5,5,67.7,5,145s62.7,140,140,140s140-62.7,140-140S222.3,5,145,5z M225.8,219.6H64.2V70.4h161.5
				V219.6z"/>
		</g>
	</g>
	<g>
		<g>
			<rect x="76.7" y="107.7" class="st0" width="24.9" height="24.9"/>
		</g>
	</g>
	<g>
		<g>
			<rect x="113.9" y="182.3" class="st0" width="24.9" height="24.9"/>
		</g>
	</g>
	<g>
		<g>
			<rect x="113.9" y="145" class="st0" width="24.9" height="24.9"/>
		</g>
	</g>
</g>
</svg>
