<?xml version="1.0" encoding="utf-8"?>
<!-- Generator: Adobe Illustrator 19.2.1, SVG Export Plug-In . SVG Version: 6.00 Build 0)  -->
<svg version="1.1" xmlns="http://www.w3.org/2000/svg" xmlns:xlink="http://www.w3.org/1999/xlink"
	 viewBox="0 0 290 290" xml:space="preserve">
<path d="M284.7,5.5V5H5.3v21.8l0,0v35.7l0,0v21.8l0,0V285h7.6h271.8l0,0V5.5L284.7,5.5z M22.3,26.7h245.4v35.7H22.3V26.7z
	 M66.6,259.9H22.3v-44.3h44.3V259.9z M66.6,194.2H22.3v-44.3h44.3V194.2z M66.6,128.4H22.3V84.1h44.3V128.4z M133.8,259.9H89.5
	v-44.3h44.3V259.9z M133.8,194.2H89.5v-44.3h44.3V194.2z M133.8,128.4H89.5V84.1h44.3V128.4z M201,259.9h-44.3v-44.3H201V259.9z
	 M201,194.2h-44.3v-44.3H201V194.2z M201,128.4h-44.3V84.1H201V128.4z M268.1,259.9h-44.3v-44.3h44.3V259.9z M268.1,194.2h-44.3
	v-44.3h44.3V194.2z M268.1,128.4h-44.3V84.1h44.3V128.4z"/>
</svg>
