<svg xmlns="http://www.w3.org/2000/svg" width="290" height="290" viewBox="0 0 290 290">
  <path d="M145,285 C67.680135,285 5,222.319865 5,145 C5,67.680135 67.680135,5 145,5 C222.319865,5 285,67.680135 285,145 C285,222.319865 222.319865,285 145,285 Z M85.1084942,219 L204.570752,219 C215.665101,219 224.679246,210.183963 224.679246,199.287737 L224.679246,91.0188337 C224.679246,80.5188387 215.566053,72 204.570752,72 L85.1084942,72 C74.0141523,72 65,80.5188387 65,91.0188337 L65,199.287737 C65,210.183963 74.0141523,219 85.1084942,219 Z M89.6650975,205.132074 C84.2169844,205.132074 79.8584897,200.971695 79.8584897,195.721698 L79.8584897,118.06134 C79.8584897,112.712225 82.7311347,109.839643 88.2783022,109.839643 L201.400958,109.839643 C206.948097,109.839643 209.820749,112.712225 209.820749,118.06134 L209.820749,195.721698 C209.820749,200.971695 205.462247,205.132074 200.014155,205.132074 L89.6650975,205.132074 Z M129.386793,138.566023 L133.150948,138.566023 C136.122619,138.566023 137.608469,137.179221 137.608469,134.207521 L137.608469,130.443374 C137.608469,127.471674 136.122619,126.084872 133.150948,126.084872 L129.386793,126.084872 C126.415094,126.084872 124.929251,127.471674 124.929251,130.443374 L124.929251,134.207521 C124.929251,137.179221 126.415094,138.566023 129.386793,138.566023 Z M156.528326,138.566023 L160.292474,138.566023 C163.264173,138.566023 164.750023,137.179221 164.750023,134.207521 L164.750023,130.443374 C164.750023,127.471674 163.264173,126.084872 160.292474,126.084872 L156.528326,126.084872 C153.556626,126.084872 152.070777,127.471674 152.070777,130.443374 L152.070777,134.207521 C152.070777,137.179221 153.556626,138.566023 156.528326,138.566023 Z M183.768856,138.566023 L187.533004,138.566023 C190.504703,138.566023 191.990553,137.179221 191.990553,134.207521 L191.990553,130.443374 C191.990553,127.471674 190.504703,126.084872 187.533004,126.084872 L183.768856,126.084872 C180.797157,126.084872 179.311307,127.471674 179.311307,130.443374 L179.311307,134.207521 C179.311307,137.179221 180.797157,138.566023 183.768856,138.566023 Z M102.146228,163.726413 L105.910383,163.726413 C108.882075,163.726413 110.367925,162.339618 110.367925,159.367919 L110.367925,155.603771 C110.367925,152.632071 108.882075,151.245283 105.910383,151.245283 L102.146228,151.245283 C99.1745284,151.245283 97.6886787,152.632071 97.6886787,155.603771 L97.6886787,159.367919 C97.6886787,162.339618 99.1745284,163.726413 102.146228,163.726413 Z M129.386793,163.726413 L133.150948,163.726413 C136.122619,163.726413 137.608469,162.339618 137.608469,159.367919 L137.608469,155.603771 C137.608469,152.632071 136.122619,151.245283 133.150948,151.245283 L129.386793,151.245283 C126.415094,151.245283 124.929251,152.632071 124.929251,155.603771 L124.929251,159.367919 C124.929251,162.339618 126.415094,163.726413 129.386793,163.726413 Z M156.528326,163.726413 L160.292474,163.726413 C163.264173,163.726413 164.750023,162.339618 164.750023,159.367919 L164.750023,155.603771 C164.750023,152.632071 163.264173,151.245283 160.292474,151.245283 L156.528326,151.245283 C153.556626,151.245283 152.070777,152.632071 152.070777,155.603771 L152.070777,159.367919 C152.070777,162.339618 153.556626,163.726413 156.528326,163.726413 Z M183.768856,163.726413 L187.533004,163.726413 C190.504703,163.726413 191.990553,162.339618 191.990553,159.367919 L191.990553,155.603771 C191.990553,152.632071 190.504703,151.245283 187.533004,151.245283 L183.768856,151.245283 C180.797157,151.245283 179.311307,152.632071 179.311307,155.603771 L179.311307,159.367919 C179.311307,162.339618 180.797157,163.726413 183.768856,163.726413 Z M102.146228,188.886789 L105.910383,188.886789 C108.882075,188.886789 110.367925,187.500001 110.367925,184.528302 L110.367925,180.764147 C110.367925,177.792454 108.882075,176.405659 105.910383,176.405659 L102.146228,176.405659 C99.1745284,176.405659 97.6886787,177.792454 97.6886787,180.764147 L97.6886787,184.528302 C97.6886787,187.500001 99.1745284,188.886789 102.146228,188.886789 Z M129.386793,188.886789 L133.150948,188.886789 C136.122619,188.886789 137.608469,187.500001 137.608469,184.528302 L137.608469,180.764147 C137.608469,177.792454 136.122619,176.405659 133.150948,176.405659 L129.386793,176.405659 C126.415094,176.405659 124.929251,177.792454 124.929251,180.764147 L124.929251,184.528302 C124.929251,187.500001 126.415094,188.886789 129.386793,188.886789 Z M156.528326,188.886789 L160.292474,188.886789 C163.264173,188.886789 164.750023,187.500001 164.750023,184.528302 L164.750023,180.764147 C164.750023,177.792454 163.264173,176.405659 160.292474,176.405659 L156.528326,176.405659 C153.556626,176.405659 152.070777,177.792454 152.070777,180.764147 L152.070777,184.528302 C152.070777,187.500001 153.556626,188.886789 156.528326,188.886789 Z"/>
</svg>
