<svg xmlns="http://www.w3.org/2000/svg" width="290" height="290" viewBox="0 0 290 290">
  <path d="M145,285 C67.680135,285 5,222.319865 5,145 C5,67.680135 67.680135,5 145,5 C222.319865,5 285,67.680135 285,145 C285,222.319865 222.319865,285 145,285 Z M87.2829229,217.97561 L203.038969,217.97561 C215.331654,217.97561 223.321943,210.190247 223.321943,197.897562 L223.321943,91.8731837 C223.321943,79.78543 215.229225,72 203.038969,72 L87.2829229,72 C74.9902452,72 67,79.78543 67,91.8731837 L67,197.897562 C67,210.190247 74.9902452,217.97561 87.2829229,217.97561 Z M88.614628,211.214635 C79.4975582,211.214635 74.2731671,205.990244 74.2731671,196.873174 L74.2731671,116.560983 C74.2731671,111.029289 77.2439017,108.058547 82.7756099,108.058547 L207.443867,108.058547 C213.077991,108.058547 216.048732,111.029289 216.048732,116.560983 L216.048732,196.873174 C216.048732,205.990244 210.824327,211.214635 201.707315,211.214635 L88.614628,211.214635 Z M129.385354,138.79026 L132.560962,138.79026 C135.019499,138.79026 136.248768,137.663464 136.248768,135.204869 L136.248768,132.131698 C136.248768,129.570746 135.019499,128.54638 132.560962,128.54638 L129.385354,128.54638 C126.926817,128.54638 125.697549,129.570746 125.697549,132.131698 L125.697549,135.204869 C125.697549,137.663464 126.926817,138.79026 129.385354,138.79026 Z M157.760981,138.79026 L160.936581,138.79026 C163.395104,138.79026 164.726831,137.663464 164.726831,135.204869 L164.726831,132.131698 C164.726831,129.570746 163.395104,128.54638 160.936581,128.54638 L157.760981,128.54638 C155.302386,128.54638 154.073161,129.570746 154.073161,132.131698 L154.073161,135.204869 C154.073161,137.663464 155.302386,138.79026 157.760981,138.79026 Z M187.365825,138.79026 L190.438996,138.79026 C192.999948,138.79026 194.229246,137.663464 194.229246,135.204869 L194.229246,132.131698 C194.229246,129.570746 192.999948,128.54638 190.438996,128.54638 L187.365825,128.54638 C184.804873,128.54638 183.780434,129.570746 183.780434,132.131698 L183.780434,135.204869 C183.780434,137.663464 184.804873,138.79026 187.365825,138.79026 Z M99.7804811,164.809764 L102.853652,164.809764 C105.414626,164.809764 106.643894,163.68294 106.643894,161.121966 L106.643894,158.048795 C106.643894,155.590258 105.414626,154.463426 102.853652,154.463426 L99.7804811,154.463426 C97.3219441,154.463426 96.0926756,155.590258 96.0926756,158.048795 L96.0926756,161.121966 C96.0926756,163.68294 97.3219441,164.809764 99.7804811,164.809764 Z M129.385354,164.809764 L132.560962,164.809764 C135.019499,164.809764 136.248768,163.68294 136.248768,161.121966 L136.248768,158.048795 C136.248768,155.590258 135.019499,154.463426 132.560962,154.463426 L129.385354,154.463426 C126.926817,154.463426 125.697549,155.590258 125.697549,158.048795 L125.697549,161.121966 C125.697549,163.68294 126.926817,164.809764 129.385354,164.809764 Z M157.760981,164.809764 L160.936581,164.809764 C163.395104,164.809764 164.726831,163.68294 164.726831,161.121966 L164.726831,158.048795 C164.726831,155.590258 163.395104,154.463426 160.936581,154.463426 L157.760981,154.463426 C155.302386,154.463426 154.073161,155.590258 154.073161,158.048795 L154.073161,161.121966 C154.073161,163.68294 155.302386,164.809764 157.760981,164.809764 Z M187.365825,164.809764 L190.438996,164.809764 C192.999948,164.809764 194.229246,163.68294 194.229246,161.121966 L194.229246,158.048795 C194.229246,155.590258 192.999948,154.463426 190.438996,154.463426 L187.365825,154.463426 C184.804873,154.463426 183.780434,155.590258 183.780434,158.048795 L183.780434,161.121966 C183.780434,163.68294 184.804873,164.809764 187.365825,164.809764 Z M99.7804811,190.726832 L102.853652,190.726832 C105.414626,190.726832 106.643894,189.702444 106.643894,187.14147 L106.643894,183.965862 C106.643894,181.507325 105.414626,180.380494 102.853652,180.380494 L99.7804811,180.380494 C97.3219441,180.380494 96.0926756,181.507325 96.0926756,183.965862 L96.0926756,187.14147 C96.0926756,189.702444 97.3219441,190.726832 99.7804811,190.726832 Z M129.385354,190.726832 L132.560962,190.726832 C135.019499,190.726832 136.248768,189.702444 136.248768,187.14147 L136.248768,183.965862 C136.248768,181.507325 135.019499,180.380494 132.560962,180.380494 L129.385354,180.380494 C126.926817,180.380494 125.697549,181.507325 125.697549,183.965862 L125.697549,187.14147 C125.697549,189.702444 126.926817,190.726832 129.385354,190.726832 Z M157.760981,190.726832 L160.936581,190.726832 C163.395104,190.726832 164.726831,189.702444 164.726831,187.14147 L164.726831,183.965862 C164.726831,181.507325 163.395104,180.380494 160.936581,180.380494 L157.760981,180.380494 C155.302386,180.380494 154.073161,181.507325 154.073161,183.965862 L154.073161,187.14147 C154.073161,189.702444 155.302386,190.726832 157.760981,190.726832 Z"/>
</svg>
