<svg xmlns="http://www.w3.org/2000/svg" width="290" height="290" viewBox="0 0 290 290">
  <path fill-rule="evenodd" d="M40.2605522,273.766748 L249.739448,273.766748 C269.193558,273.766748 285,258.307693 285,239.200994 L285,49.3498158 C285,30.9379139 269.019877,16 249.739448,16 L40.2605522,16 C20.806454,16 5,30.9379139 5,49.3498158 L5,239.200994 C5,258.307693 20.806454,273.766748 40.2605522,273.766748 Z M48.2506258,249.449129 C38.6972761,249.449129 31.054589,242.15384 31.054589,232.94789 L31.054589,96.7692639 C31.054589,87.389509 36.091816,82.3523928 45.8188589,82.3523928 L244.181166,82.3523928 C253.908159,82.3523928 258.945399,87.389509 258.945399,96.7692639 L258.945399,232.94789 C258.945399,242.15384 251.302699,249.449129 241.749387,249.449129 L48.2506258,249.449129 Z M117.903227,132.72454 L124.50373,132.72454 C129.714601,132.72454 132.320061,130.292761 132.320061,125.08184 L132.320061,118.48135 C132.320061,113.270429 129.714601,110.83865 124.50373,110.83865 L117.903227,110.83865 C112.692307,110.83865 110.086859,113.270429 110.086859,118.48135 L110.086859,125.08184 C110.086859,130.292761 112.692307,132.72454 117.903227,132.72454 Z M165.496319,132.72454 L172.09681,132.72454 C177.30773,132.72454 179.91319,130.292761 179.91319,125.08184 L179.91319,118.48135 C179.91319,113.270429 177.30773,110.83865 172.09681,110.83865 L165.496319,110.83865 C160.285399,110.83865 157.679939,113.270429 157.679939,118.48135 L157.679939,125.08184 C157.679939,130.292761 160.285399,132.72454 165.496319,132.72454 Z M213.263006,132.72454 L219.863497,132.72454 C225.074417,132.72454 227.679877,130.292761 227.679877,125.08184 L227.679877,118.48135 C227.679877,113.270429 225.074417,110.83865 219.863497,110.83865 L213.263006,110.83865 C208.052086,110.83865 205.446626,113.270429 205.446626,118.48135 L205.446626,125.08184 C205.446626,130.292761 208.052086,132.72454 213.263006,132.72454 Z M70.1364785,176.843669 L76.7369816,176.843669 C81.9478896,176.843669 84.5533497,174.411902 84.5533497,169.200982 L84.5533497,162.600491 C84.5533497,157.389571 81.9478896,154.957816 76.7369816,154.957816 L70.1364785,154.957816 C64.9255583,154.957816 62.3200982,157.389571 62.3200982,162.600491 L62.3200982,169.200982 C62.3200982,174.411902 64.9255583,176.843669 70.1364785,176.843669 Z M117.903227,176.843669 L124.50373,176.843669 C129.714601,176.843669 132.320061,174.411902 132.320061,169.200982 L132.320061,162.600491 C132.320061,157.389571 129.714601,154.957816 124.50373,154.957816 L117.903227,154.957816 C112.692307,154.957816 110.086859,157.389571 110.086859,162.600491 L110.086859,169.200982 C110.086859,174.411902 112.692307,176.843669 117.903227,176.843669 Z M165.496319,176.843669 L172.09681,176.843669 C177.30773,176.843669 179.91319,174.411902 179.91319,169.200982 L179.91319,162.600491 C179.91319,157.389571 177.30773,154.957816 172.09681,154.957816 L165.496319,154.957816 C160.285399,154.957816 157.679939,157.389571 157.679939,162.600491 L157.679939,169.200982 C157.679939,174.411902 160.285399,176.843669 165.496319,176.843669 Z M213.263006,176.843669 L219.863497,176.843669 C225.074417,176.843669 227.679877,174.411902 227.679877,169.200982 L227.679877,162.600491 C227.679877,157.389571 225.074417,154.957816 219.863497,154.957816 L213.263006,154.957816 C208.052086,154.957816 205.446626,157.389571 205.446626,162.600491 L205.446626,169.200982 C205.446626,174.411902 208.052086,176.843669 213.263006,176.843669 Z M70.1364785,220.962773 L76.7369816,220.962773 C81.9478896,220.962773 84.5533497,218.531018 84.5533497,213.320098 L84.5533497,206.719595 C84.5533497,201.508687 81.9478896,199.07692 76.7369816,199.07692 L70.1364785,199.07692 C64.9255583,199.07692 62.3200982,201.508687 62.3200982,206.719595 L62.3200982,213.320098 C62.3200982,218.531018 64.9255583,220.962773 70.1364785,220.962773 Z M117.903227,220.962773 L124.50373,220.962773 C129.714601,220.962773 132.320061,218.531018 132.320061,213.320098 L132.320061,206.719595 C132.320061,201.508687 129.714601,199.07692 124.50373,199.07692 L117.903227,199.07692 C112.692307,199.07692 110.086859,201.508687 110.086859,206.719595 L110.086859,213.320098 C110.086859,218.531018 112.692307,220.962773 117.903227,220.962773 Z M165.496319,220.962773 L172.09681,220.962773 C177.30773,220.962773 179.91319,218.531018 179.91319,213.320098 L179.91319,206.719595 C179.91319,201.508687 177.30773,199.07692 172.09681,199.07692 L165.496319,199.07692 C160.285399,199.07692 157.679939,201.508687 157.679939,206.719595 L157.679939,213.320098 C157.679939,218.531018 160.285399,220.962773 165.496319,220.962773 Z"/>
</svg>
