<svg xmlns="http://www.w3.org/2000/svg" width="290" height="290" viewBox="0 0 290 290">
  <path fill-rule="evenodd" d="M41.3302701,274.467904 L248.669639,274.467904 C270.687992,274.467904 285,260.522955 285,238.504601 L285,48.5963553 C285,26.9450698 270.504523,13 248.669639,13 L41.3302701,13 C19.3119297,13 5,26.9450698 5,48.5963553 L5,238.504601 C5,260.522955 19.3119297,274.467904 41.3302701,274.467904 Z M43.7155874,262.357813 C27.3853173,262.357813 18.0275171,253.000013 18.0275171,236.669743 L18.0275171,92.8165311 C18.0275171,82.908298 23.3486235,77.5871786 33.2568825,77.5871786 L256.559584,77.5871786 C266.651285,77.5871786 271.972405,82.908298 271.972405,92.8165311 L271.972405,236.669743 C271.972405,253.000013 262.614579,262.357813 246.284413,262.357813 L43.7155874,262.357813 Z M116.743104,132.633062 L122.431175,132.633062 C126.834845,132.633062 129.036681,130.614774 129.036681,126.210999 L129.036681,120.706411 C129.036681,116.119297 126.834845,114.284478 122.431175,114.284478 L116.743104,114.284478 C112.339434,114.284478 110.137598,116.119297 110.137598,120.706411 L110.137598,126.210999 C110.137598,130.614774 112.339434,132.633062 116.743104,132.633062 Z M167.568825,132.633062 L173.256883,132.633062 C177.660527,132.633062 180.045883,130.614774 180.045883,126.210999 L180.045883,120.706411 C180.045883,116.119297 177.660527,114.284478 173.256883,114.284478 L167.568825,114.284478 C163.165051,114.284478 160.963293,116.119297 160.963293,120.706411 L160.963293,126.210999 C160.963293,130.614774 163.165051,132.633062 167.568825,132.633062 Z M220.59629,132.633062 L226.100879,132.633062 C230.687992,132.633062 232.88988,130.614774 232.88988,126.210999 L232.88988,120.706411 C232.88988,116.119297 230.687992,114.284478 226.100879,114.284478 L220.59629,114.284478 C216.009177,114.284478 214.174227,116.119297 214.174227,120.706411 L214.174227,126.210999 C214.174227,130.614774 216.009177,132.633062 220.59629,132.633062 Z M63.7155874,179.238555 L69.2201757,179.238555 C73.8073284,179.238555 76.0091637,177.220215 76.0091637,172.633062 L76.0091637,167.128474 C76.0091637,162.724803 73.8073284,160.70645 69.2201757,160.70645 L63.7155874,160.70645 C59.3119167,160.70645 57.1100814,162.724803 57.1100814,167.128474 L57.1100814,172.633062 C57.1100814,177.220215 59.3119167,179.238555 63.7155874,179.238555 Z M116.743104,179.238555 L122.431175,179.238555 C126.834845,179.238555 129.036681,177.220215 129.036681,172.633062 L129.036681,167.128474 C129.036681,162.724803 126.834845,160.70645 122.431175,160.70645 L116.743104,160.70645 C112.339434,160.70645 110.137598,162.724803 110.137598,167.128474 L110.137598,172.633062 C110.137598,177.220215 112.339434,179.238555 116.743104,179.238555 Z M167.568825,179.238555 L173.256883,179.238555 C177.660527,179.238555 180.045883,177.220215 180.045883,172.633062 L180.045883,167.128474 C180.045883,162.724803 177.660527,160.70645 173.256883,160.70645 L167.568825,160.70645 C163.165051,160.70645 160.963293,162.724803 160.963293,167.128474 L160.963293,172.633062 C160.963293,177.220215 163.165051,179.238555 167.568825,179.238555 Z M220.59629,179.238555 L226.100879,179.238555 C230.687992,179.238555 232.88988,177.220215 232.88988,172.633062 L232.88988,167.128474 C232.88988,162.724803 230.687992,160.70645 226.100879,160.70645 L220.59629,160.70645 C216.009177,160.70645 214.174227,162.724803 214.174227,167.128474 L214.174227,172.633062 C214.174227,177.220215 216.009177,179.238555 220.59629,179.238555 Z M63.7155874,225.660566 L69.2201757,225.660566 C73.8073284,225.660566 76.0091637,223.825708 76.0091637,219.238555 L76.0091637,213.550485 C76.0091637,209.146814 73.8073284,207.128461 69.2201757,207.128461 L63.7155874,207.128461 C59.3119167,207.128461 57.1100814,209.146814 57.1100814,213.550485 L57.1100814,219.238555 C57.1100814,223.825708 59.3119167,225.660566 63.7155874,225.660566 Z M116.743104,225.660566 L122.431175,225.660566 C126.834845,225.660566 129.036681,223.825708 129.036681,219.238555 L129.036681,213.550485 C129.036681,209.146814 126.834845,207.128461 122.431175,207.128461 L116.743104,207.128461 C112.339434,207.128461 110.137598,209.146814 110.137598,213.550485 L110.137598,219.238555 C110.137598,223.825708 112.339434,225.660566 116.743104,225.660566 Z M167.568825,225.660566 L173.256883,225.660566 C177.660527,225.660566 180.045883,223.825708 180.045883,219.238555 L180.045883,213.550485 C180.045883,209.146814 177.660527,207.128461 173.256883,207.128461 L167.568825,207.128461 C163.165051,207.128461 160.963293,209.146814 160.963293,213.550485 L160.963293,219.238555 C160.963293,223.825708 163.165051,225.660566 167.568825,225.660566 Z"/>
</svg>
