<svg xmlns="http://www.w3.org/2000/svg" width="290" height="290" viewBox="0 0 290 290">
  <path fill="#333" d="M261.713092,249.356546 C277.089136,249.356546 285,242.002786 285,227.406685 L285,63.0612813 C285,48.4651811 277.089136,41 261.713092,41 L228.509749,41 C213.356546,41 205.445682,48.4651811 205.445682,63.0612813 L205.445682,227.406685 C205.445682,242.002786 213.356546,249.356546 228.509749,249.356546 L261.713092,249.356546 Z M161.545961,249.356546 C176.922006,249.356546 184.721448,242.002786 184.721448,227.406685 L184.721448,95.5961003 C184.721448,81 176.922006,73.5348189 161.545961,73.5348189 L128.342618,73.5348189 C113.077994,73.5348189 105.167131,81 105.167131,95.5961003 L105.167131,227.406685 C105.167131,242.002786 113.077994,249.356546 128.342618,249.356546 L161.545961,249.356546 Z M61.2674095,249.356546 C76.643454,249.356546 84.5543175,242.002786 84.5543175,227.406685 L84.5543175,128.019499 C84.5543175,113.423398 76.643454,105.958217 61.2674095,105.958217 L28.1754875,105.958217 C12.9108635,105.958217 5,113.423398 5,128.019499 L5,227.406685 C5,242.002786 12.9108635,249.356546 28.1754875,249.356546 L61.2674095,249.356546 Z"/>
</svg>
