<svg xmlns="http://www.w3.org/2000/svg" width="290" height="290" viewBox="0 0 290 290">
  <path fill-rule="evenodd" d="M145.000061,285 C222.017092,285 285,222.000006 285,145 C285,67.999994 222.017092,5 145.000061,5 C67.9828958,5 5,67.999994 5,145 C5,222.000006 67.9828958,285 145.000061,285 Z M127.200525,212.268296 C122.408326,212.268296 119.32764,210.560982 116.931559,208.000006 L73.2885178,160.024427 C71.0635819,157.804882 69.8655292,154.561043 69.8655292,151.317083 C69.8655292,143.80487 75.5134537,138.341486 83.5574715,138.341486 C87.8361982,138.341486 90.9168843,139.707332 93.8264131,142.780455 L126.515871,178.46342 L191.381485,87.2926744 C194.804389,82.5121529 197.885148,80.8048757 203.361891,80.8048757 C211.063606,80.8048757 216.540349,86.4390962 216.540349,93.7804731 C216.540349,96.512165 215.513429,99.5854092 213.801978,102.146386 L137.982878,207.317083 C135.586772,210.390255 131.992735,212.268296 127.200525,212.268296 Z"/>
</svg>
