<svg xmlns="http://www.w3.org/2000/svg" width="290" height="290" viewBox="0 0 290 290">
  <path fill-rule="evenodd" d="M145.000061,285 C222.017092,285 285,222.000006 285,145 C285,67.999994 222.017092,5 145.000061,5 C67.9828958,5 5,67.999994 5,145 C5,222.000006 67.9828958,285 145.000061,285 Z M145.000061,259.048781 C80.9902331,259.048781 32.04157,208.341474 32.04157,145 C32.04157,81.6585748 80.9902331,30.9511947 145.000061,30.9511947 C209.009767,30.9511947 257.95843,81.6585748 257.95843,145 C257.95843,208.341474 209.009767,259.048781 145.000061,259.048781 Z M129.767763,209.195124 C134.38872,209.195124 137.811745,207.317083 140.036717,204.414639 L212.261659,104.195094 C213.973111,101.804833 215.00003,98.9024257 215.00003,96.3414494 C215.00003,89.3415038 209.69442,83.8781199 202.334971,83.8781199 C197.200494,83.8781199 194.29099,85.5853971 191.039098,90.195082 L129.254243,176.926834 L98.1051398,142.951292 C95.3667561,140.048763 92.28607,138.682917 88.3496459,138.682917 C80.6479306,138.682917 75.1711634,143.975585 75.1711634,151.146367 C75.1711634,154.219491 76.3692039,157.292735 78.4229947,159.341443 L120.012233,205.097562 C122.408326,207.487811 125.317867,209.195124 129.767763,209.195124 Z"/>
</svg>
