<svg xmlns="http://www.w3.org/2000/svg" width="290" height="290" viewBox="0 0 290 290">
  <path fill-rule="evenodd" d="M144.911569,285 C222.030982,285 285,221.97353 285,145.000063 C285,68.0265449 222.030982,5 144.911569,5 C67.9690553,5 5,68.0265449 5,145.000063 C5,221.97353 67.9690553,285 144.911569,285 Z M144.911569,272.112234 C74.6904652,272.112234 18.0890693,215.264823 18.0890693,145.000063 C18.0890693,74.7352391 74.6904652,17.887804 144.911569,17.887804 C215.309572,17.887804 271.734043,74.7352391 271.734043,145.000063 C271.734043,215.264823 215.309572,272.112234 144.911569,272.112234 Z M127.046755,210.674667 C129.346196,210.674667 131.468749,209.615398 132.530051,208.026495 L214.955847,92.0366215 C215.663298,90.8007995 216.370874,89.2119213 216.370874,87.6230431 C216.370874,84.0921053 213.54082,81.2674052 209.649464,81.2674052 C206.996273,81.2674052 205.404258,82.5032271 204.166219,84.2686335 L126.86988,193.196731 L85.3032308,146.412413 C84.065079,145.000063 82.4731642,144.293825 80.350611,144.293825 C76.4592678,144.293825 73.6291886,147.118525 73.6291886,150.825991 C73.6291886,152.414869 73.9829516,153.827219 75.5748665,155.592751 L121.91726,208.379589 C123.155412,209.791939 124.924202,210.674667 127.046755,210.674667 Z"/>
</svg>
