<svg xmlns="http://www.w3.org/2000/svg" width="290" height="290" viewBox="0 0 290 290">
  <path fill-rule="evenodd" d="M144.911569,285 C222.030982,285 285,221.97353 285,145.000063 C285,68.0265449 222.030982,5 144.911569,5 C67.9690553,5 5,68.0265449 5,145.000063 C5,221.97353 67.9690553,285 144.911569,285 Z M123.332299,213.852473 C120.855983,213.852473 119.087193,212.969745 117.849029,211.557395 L69.0303319,155.945807 C67.6152923,154.356929 67.084654,152.768051 67.084654,151.002519 C67.084654,147.118525 69.9147206,144.293825 74.1598269,144.293825 C76.28238,144.293825 78.0511827,145.000063 79.2893345,146.588941 L123.155412,195.668363 L204.166219,81.090877 C205.404258,79.3253456 206.996273,78.0895236 210.00319,78.0895236 C214.071408,78.0895236 217.078325,80.9142238 217.078325,84.7982178 C217.078325,86.3872211 216.370874,88.1526275 215.486435,89.3884494 L128.992433,211.027761 C127.931156,212.793205 125.631728,213.852473 123.332299,213.852473 Z"/>
</svg>
