<svg xmlns="http://www.w3.org/2000/svg" width="290" height="290" viewBox="0 0 290 290">
  <path fill-rule="evenodd" d="M144.999951,285 C221.588272,285 285,221.588233 285,145.000049 C285,68.5490676 221.450932,5 144.862709,5 C68.4117673,5 5,68.5490676 5,145.000049 C5,221.588233 68.549019,285 144.999951,285 Z M144.999951,261.666665 C80.2156865,261.666665 28.4705867,209.784314 28.4705867,145.000049 C28.4705867,80.3529479 80.078425,28.3333739 144.862709,28.3333739 C209.647052,28.3333739 261.529384,80.3529479 261.666897,145.000049 C261.803868,209.784314 209.784294,261.666665 144.999951,261.666665 Z M184.254854,175.470589 C142.666643,175.470589 116.03917,149.392181 116.03917,107.80397 C116.03917,99.1568501 118.372575,86.9411466 120.843126,80.4901899 C121.666675,78.7058496 121.666675,77.6078165 121.666675,76.9216066 C121.666675,74.8627823 120.156818,72.5293769 117.274542,72.5293769 C116.313751,72.5293769 114.529411,72.6667161 112.745071,73.352926 C84.333335,84.6078384 65.2549002,115.35296 65.2549002,147.607841 C65.2549002,192.764713 99.7058763,225.019613 144.862709,225.019613 C177.941139,225.019613 206.352953,204.705884 216.098009,179.862722 C216.921558,178.078479 217.0588,176.294138 217.0588,175.745073 C217.0588,172.8627 214.58825,170.941215 212.392184,170.941215 C211.568634,170.941215 210.607843,171.078457 209.235326,171.490183 C203.470579,173.549007 193.725523,175.470589 184.254854,175.470589 Z"/>
</svg>
