<svg xmlns="http://www.w3.org/2000/svg" width="290" height="290" viewBox="0 0 290 290">
  <path fill-rule="evenodd" d="M144.999951,285 C221.588272,285 285,221.450981 285,145.000049 C285,68.4117284 221.450932,5 144.862709,5 C68.4117673,5 5,68.4117284 5,145.000049 C5,221.450981 68.549019,285 144.999951,285 Z M185.627468,173.96083 C195.09804,173.96083 204.843096,171.902006 210.607843,169.843182 C211.98036,169.431358 212.941151,169.294116 213.764701,169.294116 C215.960767,169.294116 218.431414,171.215699 218.431414,174.098072 C218.431414,174.64704 218.294075,176.43138 217.470623,178.215721 C207.72547,203.196076 179.313754,223.372554 146.235324,223.372554 C101.078432,223.372554 66.6274465,191.117653 66.6274465,145.960742 C66.6274465,113.705862 85.7058812,82.9607401 114.117685,71.705925 C115.901928,71.0196178 117.686268,70.8823758 118.647059,70.8823758 C121.529433,70.8823758 123.039192,73.215684 123.039192,75.2745083 C123.039192,75.9608154 123.039192,77.0588486 122.215643,78.8431888 C119.745093,85.2941455 117.411784,97.509849 117.411784,106.156872 C117.411784,147.745083 144.039258,173.96083 185.627468,173.96083 Z"/>
</svg>
