<svg xmlns="http://www.w3.org/2000/svg" width="290" height="290" viewBox="0 0 290 290">
  <path fill-rule="evenodd" d="M145.000061,285 C222.017092,285 285,222.000006 285,145 C285,67.999994 222.017092,5 145.000061,5 C67.9828958,5 5,67.999994 5,145 C5,222.000006 67.9828958,285 145.000061,285 Z M145.000061,259.048781 C80.9902331,259.048781 32.04157,208.341474 32.04157,145 C32.04157,81.6585748 80.9902331,30.9511947 145.000061,30.9511947 C209.009767,30.9511947 257.95843,81.6585748 257.95843,145 C257.95843,208.341474 209.009767,259.048781 145.000061,259.048781 Z M80.1344829,160.365858 L147.909565,160.365858 C154.070962,160.365858 158.863051,155.585337 158.863051,149.43909 L158.863051,62.1951788 C158.863051,56.0488113 154.070962,51.2682899 147.909565,51.2682899 C141.748169,51.2682899 136.955958,56.0488113 136.955958,62.1951788 L136.955958,138.512201 L80.1344829,138.512201 C73.9731107,138.512201 69.1809363,143.292723 69.1809363,149.43909 C69.1809363,155.585337 73.9731107,160.365858 80.1344829,160.365858 Z"/>
</svg>
