<svg xmlns="http://www.w3.org/2000/svg" width="290" height="290" viewBox="0 0 290 290">
  <path fill-rule="evenodd" d="M144.913321,285 C221.371594,285 285,221.505567 285,145 C285,68.4943589 221.198236,5 144.739963,5 C68.4551209,5 5,68.4943589 5,145 C5,221.505567 68.6284915,285 144.913321,285 Z M75.5634883,160.439925 C69.4953692,160.439925 64.9876348,155.755859 64.9876348,149.857532 C64.9876348,143.785617 69.4953692,139.10155 75.5634883,139.10155 L134.164121,139.10155 L134.164121,60.5141976 C134.164121,54.4422823 138.845288,49.7583387 144.739963,49.7583387 C150.808118,49.7583387 155.489162,54.4422823 155.489162,60.5141976 L155.489162,149.857532 C155.489162,155.755859 150.808118,160.439925 144.739963,160.439925 L75.5634883,160.439925 Z"/>
</svg>
