<svg xmlns="http://www.w3.org/2000/svg" width="290" height="290" viewBox="0 0 290 290">
  <path fill-rule="evenodd" d="M144.911569,285 C222.030982,285 285,221.97353 285,145.000063 C285,68.0265449 222.030982,5 144.911569,5 C67.9690553,5 5,68.0265449 5,145.000063 C5,221.97353 67.9690553,285 144.911569,285 Z M144.911569,272.112234 C74.6904652,272.112234 18.0890693,215.264823 18.0890693,145.000063 C18.0890693,74.7352391 74.6904652,17.887804 144.911569,17.887804 C215.309572,17.887804 271.734043,74.7352391 271.734043,145.000063 C271.734043,215.264823 215.309572,272.112234 144.911569,272.112234 Z M69.2072071,157.181629 L147.034172,157.181629 C150.217951,157.181629 152.871143,154.709985 152.871143,151.355575 L152.871143,51.0782187 C152.871143,47.9004623 150.217951,45.6053465 147.034172,45.6053465 C143.850267,45.6053465 141.373938,47.9004623 141.373938,51.0782187 L141.373938,145.706175 L69.2072071,145.706175 C65.8465022,145.706175 63.370186,148.354347 63.370186,151.355575 C63.370186,154.709985 65.8465022,157.181629 69.2072071,157.181629 Z"/>
</svg>
