<svg xmlns="http://www.w3.org/2000/svg" width="290" height="290" viewBox="0 0 290 290">
  <path fill-rule="evenodd" d="M27.0304648,284.28934 C33.1895083,284.28934 38.1641293,282.157359 41.9543112,278.367177 L145,175.084608 L248.045638,278.367177 C251.835804,282.157359 256.810458,284.28934 262.969602,284.28934 C274.576962,284.28934 285,275.998316 285,262.969535 C285,256.573611 282.631189,251.835871 278.603991,247.808791 L175.558437,144.526187 L278.603991,41.480465 C282.631189,37.4534356 285,32.7158132 285,26.3198046 C285,13.2910911 274.576962,5 262.969602,5 C256.810458,5 251.835804,7.13194689 248.045638,10.922112 L145,114.204699 L41.9543112,10.922112 C38.1641293,7.13194689 33.1895083,5 27.0304648,5 C15.4230111,5 5,13.2910911 5,26.3198046 C5,32.7158132 7.36886662,37.4534356 11.3959397,41.480465 L114.44163,144.526187 L11.3959397,247.808791 C7.36886662,251.835871 5,256.573611 5,262.969535 C5,275.998316 15.4230111,284.28934 27.0304648,284.28934 Z"/>
</svg>
