<svg xmlns="http://www.w3.org/2000/svg" width="290" height="290" viewBox="0 0 290 290">
  <path fill-rule="evenodd" d="M15.9706148,284.25195 C18.7132685,284.25195 20.9572588,283.254627 22.9519228,281.259963 L144.875346,159.087196 L267.297492,281.259963 C269.04283,283.254627 271.536093,284.25195 274.278666,284.25195 C279.514678,284.25195 284.252074,280.013296 284.252074,274.278666 C284.252074,271.536005 283.254662,269.292015 281.260016,267.297368 L159.087285,144.875257 L282.008119,22.2038907 C284.002765,20.2092444 285,17.9651127 285,14.9732316 C285,9.23860133 280.013296,5 275.026768,5 C272.284019,5 269.790756,5.99723481 268.045418,7.99188112 L145.124672,130.912733 L22.203919,7.99188112 C20.4585937,5.99723481 17.9652735,5 15.2226198,5 C9.98664405,5 5,9.48791003 5,15.2225403 C5,17.9651127 5.99732863,20.2092444 7.99198537,22.2038907 L130.912751,145.124566 L8.73998215,267.297368 C6.99465691,269.292015 5.99732863,271.536005 5.99732863,274.278666 C5.99732863,280.013296 10.7346391,284.25195 15.9706148,284.25195 Z"/>
</svg>
