<svg xmlns="http://www.w3.org/2000/svg" width="290" height="290" viewBox="0 0 290 290">
  <path fill-rule="evenodd" d="M145.000061,285 C222.017092,285 285,222.000006 285,145 C285,67.999994 222.017092,5 145.000061,5 C67.9828958,5 5,67.999994 5,145 C5,222.000006 67.9828958,285 145.000061,285 Z M97.7628494,205.43903 C90.4034366,205.43903 84.4132096,199.292686 84.4132096,191.951225 C84.4132096,188.365858 85.9535526,185.121959 88.3496459,182.90245 L126.173605,145 L88.3496459,107.097623 C85.9535526,104.878078 84.4132096,101.634118 84.4132096,98.0488476 C84.4132096,90.7073498 90.4034366,84.9024136 97.7628494,84.9024136 C101.356983,84.9024136 104.437669,86.2682596 106.662605,88.6585204 L144.828928,126.561019 L183.337383,88.4878047 C185.904621,85.7561128 188.814247,84.5609824 192.237151,84.5609824 C199.5966,84.5609824 205.586863,90.5366342 205.586863,97.878011 C205.586863,101.463402 204.388811,104.36581 201.650439,106.926786 L163.655262,145 L201.479185,182.560982 C203.87529,185.121959 205.41573,188.19513 205.41573,191.951225 C205.41573,199.292686 199.425467,205.43903 192.066018,205.43903 C188.300726,205.43903 185.048956,203.731716 182.823983,201.512207 L144.828928,163.609818 L107.004908,201.512207 C104.77996,203.902444 101.356983,205.43903 97.7628494,205.43903 Z"/>
</svg>
