<svg xmlns="http://www.w3.org/2000/svg" width="290" height="290" viewBox="0 0 290 290">
  <path fill-rule="evenodd" d="M52.7566446,285 L237.243323,285 C269.182492,285 285,269.182514 285,237.851717 L285,52.1483693 C285,20.8175077 269.182492,5 237.243323,5 L52.7566446,5 C20.9695738,5 5,20.6654308 5,52.1483693 L5,237.851717 C5,269.334602 20.9695738,285 52.7566446,285 Z M90.6273631,212.300392 C83.4790692,212.300392 77.6996077,206.520931 77.6996077,199.372637 C77.6996077,195.874545 79.2205169,192.832715 81.6539738,190.551346 L126.977215,144.924015 L81.6539738,99.2966308 C79.2205169,97.1673385 77.6996077,93.9734 77.6996077,90.4753077 C77.6996077,83.4791231 83.4790692,77.8517385 90.6273631,77.8517385 C94.1254554,77.8517385 97.1672846,79.2205385 99.2965554,81.6539846 L145.075985,127.129292 L191.007523,81.5019077 C193.593154,78.7643077 196.330754,77.5475847 199.676769,77.5475847 C206.825031,77.5475847 212.604492,83.3270462 212.604492,90.3232308 C212.604492,93.8213231 211.387769,96.7111078 208.802246,99.1445539 L163.174862,144.924015 L208.650169,190.247171 C210.931538,192.680628 212.452415,195.722446 212.452415,199.372637 C212.452415,206.520931 206.672954,212.300392 199.524692,212.300392 C195.874523,212.300392 192.832662,210.779483 190.551292,208.498114 L145.075985,162.870708 L99.6007415,208.498114 C97.4714708,210.931571 94.1254554,212.300392 90.6273631,212.300392 Z"/>
</svg>
