<svg xmlns="http://www.w3.org/2000/svg" width="290" height="290" viewBox="0 0 290 290">
  <path fill-rule="evenodd" d="M144.911569,285 C222.030982,285 285,221.97353 285,145.000063 C285,68.0265449 222.030982,5 144.911569,5 C67.9690553,5 5,68.0265449 5,145.000063 C5,221.97353 67.9690553,285 144.911569,285 Z M93.2628051,203.436326 C89.3714618,203.436326 86.3645074,200.435072 86.3645074,196.727632 C86.3645074,194.785635 86.8951457,193.196731 88.4870605,191.607828 L135.183242,145.000063 L88.4870605,98.3922594 C87.0720209,96.9799094 86.3645074,95.2143779 86.3645074,93.2724435 C86.3645074,89.5649776 89.3714618,86.7402774 93.2628051,86.7402774 C95.2084704,86.7402774 96.8003853,87.2698618 98.3923001,88.85874 L144.911569,135.290015 L191.607712,88.85874 C193.199602,87.0933336 194.791617,86.5637493 196.737233,86.5637493 C200.628588,86.5637493 203.635505,89.3884494 203.635505,93.2724435 C203.635505,95.2143779 203.104917,96.8032561 201.513027,98.2156062 L154.639895,145.000063 L201.513027,191.607828 C202.928054,193.020191 203.635505,194.785635 203.635505,196.727632 C203.635505,200.435072 200.628588,203.436326 196.737233,203.436326 C194.614629,203.436326 193.022739,202.730151 191.43085,201.141248 L144.911569,154.709985 L98.3923001,201.141248 C96.977273,202.730151 95.2084704,203.436326 93.2628051,203.436326 Z"/>
</svg>
