<svg xmlns="http://www.w3.org/2000/svg" width="290" height="290" viewBox="0 0 290 290">
  <path fill="#333" d="M214.941423,238.436536 C254.422594,238.436536 285,208.679214 285,170.36959 C285,131.942812 253.719665,102.771264 211.192469,102.771264 C195.610879,71.8423934 167.025105,52.9804688 132.230126,52.9804688 C86.7740586,52.9804688 48.3472803,88.2440671 44.2468619,134.988837 C20.8158996,141.666661 5,161.465824 5,186.302644 C5,215.122728 25.9707113,238.436536 62.4058577,238.436536 L214.941423,238.436536 Z M216.230126,219.574611 L62.1715481,219.574611 C38.1548117,219.574611 23.8619247,206.570427 23.8619247,186.888419 C23.8619247,170.018126 34.6401674,157.95118 53.6192469,152.796368 C60.1799163,151.156201 62.6401674,148.227331 63.1087866,141.315197 C65.9205021,101.599716 95.6778243,71.8423934 132.230126,71.8423934 C160.464435,71.8423934 182.25523,87.658293 195.376569,114.486745 C198.188285,120.227331 201.585774,122.218962 208.732218,122.218962 C245.401674,122.218962 266.020921,144.478377 266.020921,170.955364 C266.020921,198.13528 244.230126,219.574611 216.230126,219.574611 Z"/>
</svg>
