<svg xmlns="http://www.w3.org/2000/svg" width="290" height="290" viewBox="0 0 290 290">
  <path fill-rule="evenodd" d="M268.137354,42.5403458 L279.483482,31.1940935 C284.720195,25.9573807 284.545655,17.7532303 279.308942,12.5165175 L275.119596,8.32704831 C270.58117,3.61408101 262.376896,3.96316221 257.314723,9.02533441 L245.968595,20.3715867 L268.137354,42.5403458 Z M135.299464,175.203634 L257.838469,52.8391071 L235.66971,30.670348 L113.13068,153.034936 L102.657254,179.392992 C101.435359,182.535019 104.577374,185.851612 107.893967,184.80427 L135.299464,175.203634 Z M179.113236,55.2829229 L49.9410326,55.2829229 C22.0119018,55.2829229 7,69.5966128 7,97.5257065 L7,242.757204 C7,270.686322 22.0119018,285 49.9410326,285 L196.219823,285 C224.148917,285 239.160893,270.686322 239.160893,242.757204 L239.160893,103.635246 L212.977329,129.81881 L212.977329,244.153653 C212.977329,254.627078 207.04233,260.562015 196.568904,260.562015 L49.5919143,260.562015 C39.1184887,260.562015 33.1835516,254.627078 33.1835516,244.153653 L33.1835516,96.129258 C33.1835516,85.6558324 39.1184887,79.7209572 49.5919143,79.7209572 L153.627958,79.7209572 L179.113236,55.2829229 Z"/>
</svg>
