<svg xmlns="http://www.w3.org/2000/svg" width="290" height="290" viewBox="0 0 290 290">
  <path fill-rule="evenodd" d="M272.385755,31.1759833 L280.999246,22.5624924 C285.580865,18.1641224 285.580865,13.2158749 281.365744,9.00075408 L279.899621,7.53463074 C276.234378,3.86925744 270.919632,4.23588568 266.704511,8.26762748 L258.09089,16.8812482 L272.385755,31.1759833 Z M134.202831,169.175619 L264.322012,39.0564775 L250.210526,24.7616125 L120.091319,154.880871 L108.912067,176.689537 C108.179005,178.522198 110.011666,180.721396 112.027602,179.805072 L134.202831,169.175619 Z M183.501459,52.2515876 L39.8206178,52.2515876 C17.8286507,52.2515876 5,64.8969502 5,86.8889302 L5,250.362644 C5,272.354617 17.8286507,285 39.8206178,285 L204.393814,285 C226.385794,285 239.214536,272.354617 239.214536,250.362644 L239.214536,103.566294 L226.202545,116.578155 L226.202545,250.912444 C226.202545,265.023956 218.50543,272.721149 204.210565,272.721149 L40.0038929,272.721149 C25.7091059,272.721149 18.0119129,265.023956 18.0119129,250.912444 L18.0119129,86.5224319 C18.0119129,72.410946 25.7091059,64.5304518 40.0038929,64.5304518 L171.039346,64.5304518 L183.501459,52.2515876 Z"/>
</svg>
