<svg xmlns="http://www.w3.org/2000/svg" width="290" height="290" viewBox="0 0 290 290">
  <path fill="#333" d="M285,91.6912638 L285,72.8108567 C285,48.3494487 272.650551,36 247.714165,36 L42.2858355,36 C17.4681934,36 5,48.230704 5,72.8108567 L5,91.6912638 L285,91.6912638 Z M247.714165,254.608991 C272.650551,254.608991 285,242.259542 285,217.798134 L285,118.64631 L5,118.64631 L5,217.798134 C5,242.378287 17.4681934,254.608991 42.2858355,254.608991 L247.714165,254.608991 Z M88.1212892,213.523325 L59.028838,213.523325 C52.0229008,213.523325 47.2731128,208.773537 47.2731128,202.123834 L47.2731128,180.156064 C47.2731128,173.387617 52.0229008,168.756573 59.028838,168.756573 L88.1212892,168.756573 C95.0084818,168.756573 99.7582697,173.387617 99.7582697,180.156064 L99.7582697,202.123834 C99.7582697,208.773537 95.0084818,213.523325 88.1212892,213.523325 Z"/>
</svg>
