<svg xmlns="http://www.w3.org/2000/svg" width="290" height="290" viewBox="0 0 290 290">
  <path fill="#333" d="M214.763183,285 C241.884887,285 255.380228,271.287313 255.380228,244.123134 L255.380228,125.541045 L160.519773,125.541045 C143.748864,125.541045 135.756478,117.574627 135.756478,100.858209 L135.756478,5 L75.6170456,5 C48.6263637,5 35,18.8432836 35,46.0074627 L35,244.123134 C35,271.41791 48.495341,285 75.6170456,285 L214.763183,285 Z M253.250951,108.269962 C252.465013,102.919294 248.666315,97.6991292 242.378815,91.3044278 L170.203551,18.0916227 C164.047041,11.8274255 158.676468,8.04280633 153.174905,7.12927757 L153.174905,101.22274 C153.174905,105.920888 155.532718,108.269962 160.379332,108.269962 L253.250951,108.269962 Z"/>
</svg>
