<svg xmlns="http://www.w3.org/2000/svg" width="290" height="290" viewBox="0 0 290 290">
  <path fill="#333" d="M214.179104,285 C241.212687,285 254.664179,271.287313 254.664179,244.123134 L254.664179,125.541045 C254.664179,108.69403 252.705224,101.380597 242.257463,90.6716418 L170.298507,17.4067164 C160.373134,7.22014925 152.145522,5 137.518657,5 L75.4850746,5 C48.5820896,5 35,18.8432836 35,46.0074627 L35,244.123134 C35,271.41791 48.4514925,285 75.4850746,285 L214.179104,285 Z M213.134328,263.973881 L76.3992537,263.973881 C62.9477612,263.973881 56.0261194,256.791045 56.0261194,243.731343 L56.0261194,46.3992537 C56.0261194,33.4701493 62.9477612,26.0261194 76.5298507,26.0261194 L134.645522,26.0261194 L134.645522,101.902985 C134.645522,118.358209 142.873134,126.455224 159.197761,126.455224 L233.63806,126.455224 L233.63806,243.731343 C233.63806,256.791045 226.716418,263.973881 213.134328,263.973881 Z M229.589552,106.735075 L161.548507,106.735075 C156.324627,106.735075 154.365672,104.645522 154.365672,99.4216418 L154.365672,30.0746269 L229.589552,106.735075 Z"/>
</svg>
