<svg xmlns="http://www.w3.org/2000/svg" width="290" height="290" viewBox="0 0 290 290">
  <path fill-rule="evenodd" d="M10.3164559,97.7017728 L131.8073,219.192686 C135.54852,222.933892 140.274246,224.706044 144.99993,224.706044 C149.725782,224.706044 154.648381,222.933892 158.19263,219.192686 L279.683487,97.7017728 C283.227875,94.1575237 285,89.4318118 285,84.5092127 C285,74.6638749 277.517588,66 266.490787,66 C261.765075,66 256.842476,67.7721245 253.298088,71.3165131 L144.99993,179.614629 L36.7018286,71.3165131 C33.1575237,67.7721245 28.4317839,66 23.5091429,66 C13.0731365,66 5,74.0730737 5,84.5092127 C5,89.4318118 6.77215243,94.1575237 10.3164559,97.7017728 Z"/>
</svg>
