<svg xmlns="http://www.w3.org/2000/svg" width="290" height="290" viewBox="0 0 290 290">
  <path fill-rule="evenodd" d="M156.50947,16.5265242 C156.50947,10.2829761 151.066304,5 144.66268,5 C138.259021,5 132.815901,10.2829761 132.815901,16.5265242 L132.815901,151.803929 L133.77645,171.014803 L127.532891,164.291025 L110.403101,147.161259 C108.161816,144.919962 105.12008,143.639237 102.238432,143.639237 C95.9948612,143.639237 91.5123013,147.961641 91.5123013,154.045113 C91.5123013,157.246982 92.6329384,159.808431 95.0343118,161.889652 L136.017736,199.351043 C139.219571,202.232691 141.620944,203.353339 144.66268,203.353339 C147.704416,203.353339 150.105732,202.232691 153.307601,199.351043 L194.291025,161.889652 C196.692399,159.808431 197.813047,157.246982 197.813047,154.045113 C197.813047,147.961641 193.170377,143.639237 186.926829,143.639237 C184.045226,143.639237 181.16351,144.919962 178.922213,147.161259 L161.792446,164.291025 L155.548898,171.014803 L156.50947,151.803929 L156.50947,16.5265242 Z M108.001728,74.3195617 L72.7815889,74.3195617 C48.7678665,74.3195617 35,87.4470771 35,113.061689 L35,246.257862 C35,271.872496 48.7678665,285 74.3825121,285 L214.942814,285 C240.557539,285 254.32536,271.872496 254.32536,246.257862 L254.32536,113.061689 C254.32536,87.4470771 242.158416,74.3195617 216.543805,74.3195617 L181.643853,74.3195617 L181.643853,96.7324177 L215.26308,96.7324177 C224.868573,96.7324177 230.311626,102.17547 230.311626,111.780964 L230.311626,247.538587 C230.311626,257.14408 224.868573,262.587189 215.26308,262.587189 L74.0623252,262.587189 C64.4568317,262.587189 59.0137225,257.14408 59.0137225,247.538587 L59.0137225,111.780964 C59.0137225,102.17547 64.4568317,96.7324177 74.0623252,96.7324177 L108.001728,96.7324177 L108.001728,74.3195617 Z"/>
</svg>
