<svg xmlns="http://www.w3.org/2000/svg" width="290" height="290" viewBox="0 0 290 290">
  <path fill-rule="evenodd" d="M150.557045,10.7343883 C150.557045,7.62140149 147.935632,5 144.822703,5 C141.709774,5 139.08835,7.62140149 139.08835,10.7343883 L139.08835,163.759542 L139.416031,181.945588 L125.489757,167.691645 L100.422468,142.624391 C99.2756024,141.477514 97.8010554,140.822105 96.3265083,140.822105 C93.5412489,140.822105 91.0836705,143.11586 91.0836705,146.064908 C91.0836705,147.539548 91.7390325,148.686426 92.8858986,149.833187 L140.726743,196.691047 C142.037444,198.001759 143.348156,198.657109 144.822703,198.657109 C146.29725,198.657109 147.607962,198.001759 148.918663,196.691047 L196.923365,149.833187 C198.070243,148.686426 198.561712,147.539548 198.561712,146.064908 C198.561712,143.11586 196.267957,140.822105 193.318909,140.822105 C192.008209,140.822105 190.369862,141.477514 189.222984,142.624391 L164.155615,167.691645 L150.229376,182.109422 L150.557045,163.759542 L150.557045,10.7343883 Z M108.778235,76.9250663 L68.6377954,76.9250663 C49.4686954,76.9250663 38,88.2299038 38,107.890531 L38,254.034524 C38,273.695144 49.4686954,285 69.1293111,285 L220.516095,285 C240.176722,285 251.645383,273.695144 251.645383,254.034524 L251.645383,107.890531 C251.645383,88.2299038 240.504368,76.9250663 221.007564,76.9250663 L180.867194,76.9250663 L180.867194,87.9022576 L220.352272,87.9022576 C232.96781,87.9022576 240.012899,94.9473467 240.012899,107.562885 L240.012899,254.526039 C240.012899,267.141601 232.96781,274.02282 220.352272,274.02282 L69.2931574,274.02282 C56.5137496,274.02282 49.6325301,267.141601 49.6325301,254.526039 L49.6325301,107.562885 C49.6325301,94.9473467 56.5137496,87.9022576 69.2931574,87.9022576 L108.778235,87.9022576 L108.778235,76.9250663 Z"/>
</svg>
