<svg xmlns="http://www.w3.org/2000/svg" width="290" height="290" viewBox="0 0 290 290">
  <path fill-rule="evenodd" d="M7.88659925,81.5431771 L137.339455,221.210187 C139.559912,223.430643 142.002409,224.98496 144.889019,224.98496 C147.997654,224.98496 150.662208,223.430643 152.88268,220.988146 L282.335541,81.321152 C284.111899,79.5447934 285,77.5464096 285,74.881793 C285,69.9967675 281.225258,66 276.118207,66 C273.675773,66 271.233181,66.6660755 269.456823,68.4424341 L145.11106,202.558311 L20.5432243,68.4424341 C18.7668547,66.6660755 16.3243482,66 14.103889,66 C8.99682889,66 5,69.9967675 5,74.881793 C5,77.5464096 6.11023026,79.5447934 7.88659925,81.5431771 Z"/>
</svg>
