<?xml version="1.0" encoding="UTF-8"?>
<svg width="290px" height="290px" viewBox="0 0 290 290" version="1.1" xmlns="http://www.w3.org/2000/svg" xmlns:xlink="http://www.w3.org/1999/xlink">
    <!-- Generator: Sketch 53.2 (72643) - https://sketchapp.com -->
    <title>sfpro_reg_icloud_and_arrow_down</title>
    <desc>Created with Sketch.</desc>
    <g id="sfpro_reg_icloud_and_arrow_down" stroke="none" stroke-width="1" fill="none" fill-rule="evenodd">
        <path d="M63.5144063,200.563192 L115.510008,200.563192 L115.510008,176.971176 L63.5144063,176.971176 C44.2682862,176.971176 28.5920153,161.139676 28.5920153,141.738415 C28.5920153,125.285988 40.077598,111.317028 55.5986619,107.591993 C58.5476611,106.816013 61.4966602,105.729531 63.0487743,103.866959 C64.6008774,101.849191 64.6008774,99.5210309 64.6008774,96.2616947 C64.6008774,81.6718399 75.155196,70.8071292 89.7449958,70.8071292 C93.159627,70.8071292 96.1086372,71.2727173 98.9024294,72.0488073 C101.696211,72.6695914 104.334796,72.8248974 106.818163,72.0488073 C109.146323,71.2727173 111.319276,69.7206472 112.871379,67.082095 C123.425665,49.543296 142.982232,37.5919934 165.022155,37.5919934 C198.702879,37.5919934 226.330299,65.3747189 226.330299,99.2106389 C226.330299,106.195119 223.691747,110.075349 223.691747,115.197368 C223.691747,117.83592 224.312641,120.16408 225.864711,121.871456 C227.882479,124.04431 230.831423,125.285988 234.866959,125.285988 C250.38799,125.285988 261.407897,137.237291 261.407897,151.206252 C261.407897,165.330409 250.077598,176.971176 235.953441,176.971176 L180.698382,176.971176 L180.698382,200.563192 L235.953441,200.563192 C262.804881,200.563192 285,178.368072 285,151.206252 C285,128.700631 270.099753,109.764957 249.767096,103.711763 C249.922402,102.159693 249.922402,100.762709 249.922402,99.2106389 C249.922402,52.3370442 211.740554,14 165.022155,14 C137.705128,14 113.337011,27.1929807 97.6607403,47.5255279 C95.1773732,47.0598299 92.693995,46.9046339 90.2106279,46.9046339 C66.3081985,46.9046339 46.1308144,64.2882369 41.7849191,87.2594462 C20.2106389,95.9511927 5,117.05983 5,141.738415 C5,174.177384 31.2305895,200.563192 63.5144063,200.563192 Z M148.10414,275.529915 C151.053194,275.529915 153.381354,274.443441 156.485605,271.64965 L196.219523,235.330365 C198.547683,233.31263 199.634165,230.829262 199.634165,227.725045 C199.634165,221.827036 195.133041,217.636359 189.079847,217.636359 C186.285988,217.636359 183.49224,218.878037 181.319276,221.05099 L164.711763,237.658525 L158.658459,244.177373 L159.589745,225.552092 L159.589745,124.199616 C159.589745,118.146312 154.312641,113.024404 148.10414,113.024404 C141.89575,113.024404 136.618646,118.146312 136.618646,124.199616 L136.618646,225.552092 L137.549822,244.177373 L131.496627,237.658525 L114.889114,221.05099 C112.716172,218.878037 109.767162,217.636359 106.973381,217.636359 C100.920164,217.636359 96.5742692,221.827036 96.5742692,227.725045 C96.5742692,230.829262 97.6607403,233.31263 99.9889004,235.330365 L139.722786,271.64965 C142.827036,274.443441 145.155196,275.529915 148.10414,275.529915 Z" id="Fill-1" fill="#000000"></path>
    </g>
</svg>