<svg xmlns="http://www.w3.org/2000/svg" width="290" height="290" viewBox="0 0 290 290">
  <path fill-rule="evenodd" d="M47.5943481,284.679252 L181.981107,284.679252 C210.542433,284.679252 224.575537,270.811321 224.575537,242.74529 L224.575537,223.264152 L242.405687,223.264152 C270.967013,223.264152 285,209.396221 285,181.33019 L285,47.9339977 C285,19.8679077 270.967013,6 242.405687,6 L108.018882,6 C79.6226456,6 65.4245335,19.8679077 65.4245335,47.9339977 L65.4245335,67.4150532 L47.5943481,67.4150532 C19.1981121,67.4150532 5,81.2829609 5,109.349051 L5,242.74529 C5,270.811321 19.1981121,284.679252 47.5943481,284.679252 Z M224.575537,109.349051 C224.575537,81.2829609 210.542433,67.4150532 181.981107,67.4150532 L90.1886845,67.4150532 L90.1886845,49.2547453 C90.1886845,37.0377427 96.7924573,30.7641627 108.349063,30.7641627 L242.075529,30.7641627 C253.6321,30.7641627 260.235837,37.0377427 260.235837,49.2547453 L260.235837,180.009431 C260.235837,192.22641 253.6321,198.500001 242.075529,198.500001 L224.575537,198.500001 L224.575537,109.349051 Z M47.9245291,259.915101 C36.3679238,259.915101 29.764151,253.64151 29.764151,241.424531 L29.764151,110.669798 C29.764151,98.452796 36.3679238,92.1792159 47.9245291,92.1792159 L181.650949,92.1792159 C193.207519,92.1792159 199.811374,98.452796 199.811374,110.669798 L199.811374,241.424531 C199.811374,253.64151 193.207519,259.915101 181.650949,259.915101 L47.9245291,259.915101 Z"/>
</svg>
