<svg xmlns="http://www.w3.org/2000/svg" width="290" height="290" viewBox="0 0 290 290">
  <path fill-rule="evenodd" d="M45.721149,283.980721 L184.37505,283.980721 C211.129844,283.980721 225.096187,270.350908 225.096187,244.10091 L225.096187,224.076872 L244.447116,224.076872 C271.20191,224.076872 285,210.447072 285,184.365339 L285,45.8797509 C285,19.6297173 271.20191,6 244.447116,6 L105.793275,6 C79.0384571,6 65.0721137,19.6297173 65.0721137,45.8797509 L65.0721137,65.7355592 L45.721149,65.7355592 C18.9663434,65.7355592 5,79.3652766 5,105.61531 L5,244.10091 C5,270.350908 18.9663434,283.980721 45.721149,283.980721 Z M225.096187,105.61531 C225.096187,79.3652766 211.129844,65.7355592 184.37505,65.7355592 L84.5913437,65.7355592 L84.5913437,46.8893905 C84.5913437,32.9230471 92.1634619,25.3509289 105.96154,25.3509289 L244.11061,25.3509289 C257.908699,25.3509289 265.480818,32.9230471 265.480818,46.8893905 L265.480818,183.355723 C265.480818,197.322067 257.908699,204.725908 244.11061,204.725908 L225.096187,204.725908 L225.096187,105.61531 Z M45.8894262,264.461491 C32.0913482,264.461491 24.51923,257.05765 24.51923,243.091295 L24.51923,106.62495 C24.51923,92.6586063 32.0913482,85.2547415 45.8894262,85.2547415 L184.038424,85.2547415 C197.836514,85.2547415 205.576886,92.6586063 205.576886,106.62495 L205.576886,243.091295 C205.576886,257.05765 197.836514,264.461491 184.038424,264.461491 L45.8894262,264.461491 Z"/>
</svg>
