<svg xmlns="http://www.w3.org/2000/svg" width="290" height="290" viewBox="0 0 290 290">
  <path fill="#333" d="M145.051641,232.580966 C227.781262,232.580966 285,165.653633 285,144.790483 C285,123.82405 227.677979,57 145.051641,57 C63.3548506,57 5,123.82405 5,144.790483 C5,165.653633 63.3548506,232.580966 145.051641,232.580966 Z M145.051641,202.31907 C112.82737,202.31907 87.3164884,176.188491 87.2128955,144.790483 C87.1099225,112.566212 112.82737,87.261896 145.051641,87.261896 C176.966064,87.261896 202.786795,112.566212 202.786795,144.790483 C202.786795,176.188491 176.966064,202.31907 145.051641,202.31907 Z M145.051641,165.55035 C156.516046,165.55035 166.018075,156.151605 166.018075,144.790483 C166.018075,133.326079 156.516046,123.927333 145.051641,123.927333 C133.483954,123.927333 123.981925,133.326079 123.981925,144.790483 C123.981925,156.151605 133.483954,165.55035 145.051641,165.55035 Z"/>
</svg>
