<?xml version="1.0" encoding="utf-8"?>
<!-- Generator: Adobe Illustrator 21.0.0, SVG Export Plug-In . SVG Version: 6.00 Build 0)  -->
<svg version="1.1" id="Layer_1" xmlns="http://www.w3.org/2000/svg" xmlns:xlink="http://www.w3.org/1999/xlink" x="0px" y="0px"
	 viewBox="0 0 290 290" style="enable-background:new 0 0 290 290;" xml:space="preserve">
<g id="Page-1">
	<g id="KPI-Icons" transform="translate(-205.000000, -110.000000)">
		<path id="Fans" d="M316.8,266.4h66.3l73.6-73.6c0,0,19.3,2.4,24.9,8.1c5.6,5.6,8.3,25.2,8.3,25.2l-69.5,69.5v49.2H279.5v-49.2
			L210,226c0,0,2.7-19.5,8.3-25.2c5.6-5.6,24.9-8.1,24.9-8.1L316.8,266.4z M350,259.3c25.9,0,47-21,47-47s-21-47-47-47s-47,21-47,47
			S324.1,259.3,350,259.3z"/>
	</g>
</g>
</svg>
