<?xml version="1.0" encoding="UTF-8"?>
<svg width="290px" height="290px" viewBox="0 0 290 290" version="1.1" xmlns="http://www.w3.org/2000/svg" xmlns:xlink="http://www.w3.org/1999/xlink">
    <!-- Generator: Sketch 53.2 (72643) - https://sketchapp.com -->
    <title>sfpro_reg_flag</title>
    <desc>Created with Sketch.</desc>
    <g id="sfpro_reg_flag" stroke="none" stroke-width="1" fill="none" fill-rule="evenodd">
        <path d="M49.8745908,272.062705 L49.8745908,181.871278 C53.0165109,179.83827 66.6930762,176.141907 79.4455443,176.141907 C125.465355,176.141907 165.940608,202.201312 212.145206,202.201312 C228.409275,202.201312 234.693037,201.277215 248.000026,195.732671 C258.719538,191.297025 265.742635,182.425734 265.742635,167.270616 L265.742635,39.9306832 C265.742635,31.4290465 257.980203,26.2540917 248.369628,26.2540917 C240.976929,26.2540917 227.66994,31.0594443 210.297064,31.0594443 C164.277267,31.0594443 123.801988,5 77.597363,5 C61.3333333,5 55.0495064,5.92400553 41.7425826,11.4685626 C31.0231034,15.904313 24,24.7755519 24,39.9306832 L24,272.062705 C24,279.085808 29.914192,285 36.9372954,285 C44.1452196,285 49.8745908,279.270626 49.8745908,272.062705 Z M79.4455443,150.26729 C70.2046246,150.26729 55.2343206,151.191426 49.8745908,153.22437 L49.8745908,41.0396208 C51.7227721,36.6040014 60.5940634,30.8745122 77.597363,30.8745122 C120.105625,30.8745122 161.320188,56.9339566 210.297064,56.9339566 C219.538037,56.9339566 232.660094,56.0098201 239.867992,53.9768769 L239.867992,166.161704 C238.01985,170.59735 229.14848,176.326721 212.145206,176.326721 C169.637023,176.326721 128.422447,150.26729 79.4455443,150.26729 Z" id="Fill-1" fill="#000000"></path>
    </g>
</svg>