<?xml version="1.0" encoding="UTF-8"?>
<svg width="290px" height="290px" viewBox="0 0 290 290" version="1.1" xmlns="http://www.w3.org/2000/svg" xmlns:xlink="http://www.w3.org/1999/xlink">
    <!-- Generator: Sketch 53.2 (72643) - https://sketchapp.com -->
    <title>sfpro_reg_flag_filled</title>
    <desc>Created with Sketch.</desc>
    <g id="sfpro_reg_flag_filled" stroke="none" stroke-width="1" fill="none" fill-rule="evenodd">
        <path d="M50.9602602,272.01987 L50.9602602,179.304659 C54.6688613,177.82121 67.4635653,174.483461 78.4039556,174.483461 C123.648991,174.483461 174.271503,200.814587 214.138971,200.814587 C226.006584,200.814587 239.728458,198.589421 249.370852,193.768237 C257.715224,189.503331 264.205204,183.75499 264.205204,170.403995 L264.205204,38.1920757 C264.205204,30.7748998 258.08605,26.3245943 249.741678,26.3245943 C243.251567,26.3245943 229.34428,30.9603128 214.509928,30.9603128 C159.99339,30.9603128 120.311243,5 74.6953545,5 C61.9006505,5 50.9602602,7.22521847 40.205296,12.04635 C30.9337736,16.1258296 25,23.5431369 25,36.7086405 L25,272.01987 C25,279.066226 30.9337736,285 37.9801301,285 C45.2119193,285 50.9602602,279.251656 50.9602602,272.01987 Z" id="Fill-1" fill="#000000"></path>
    </g>
</svg>