<?xml version="1.0" encoding="utf-8"?>
<!-- Generator: Adobe Illustrator 19.2.1, SVG Export Plug-In . SVG Version: 6.00 Build 0)  -->
<svg version="1.1" id="Layer_1" xmlns="http://www.w3.org/2000/svg" xmlns:xlink="http://www.w3.org/1999/xlink" x="0px" y="0px"
	 viewBox="0 0 290 290" style="enable-background:new 0 0 290 290;" xml:space="preserve">
<path d="M162.9,285h-35.7l-8.4-40c-8.7-2.3-17.5-6.1-25.7-10.8l-34.4,22.3l-25.1-25.1L55.8,197c-4.6-7.5-8.3-16.2-10.8-25.8l-40-8.4
	v-35.7l40-8.4c2.3-8.7,6.1-17.5,10.8-25.7L33.5,58.6l25.1-25.1L93,55.8c7.5-4.6,16.2-8.3,25.7-10.8l8.4-40h35.7l8.4,40
	c8.7,2.3,17.5,6.1,25.7,10.8l34.4-22.3l25.1,25.1L234.2,93c4.6,7.6,8.3,16.2,10.8,25.7l40,8.4v35.7l-40,8.4
	c-2.3,8.7-6.1,17.5-10.8,25.7l22.3,34.4l-25.1,25.1L197,234.2c-7.6,4.6-16.2,8.3-25.7,10.8L162.9,285z M129.6,281.9h30.7l8.2-39.4
	l0.9-0.2c10-2.6,18.9-6.3,26.6-11.2l0.8-0.5l33.9,22l21.6-21.6l-22-33.9l0.5-0.8c5-8.5,8.9-17.7,11.2-26.7l0.2-0.9l39.4-8.2v-30.7
	l-39.4-8.2l-0.2-0.9c-2.6-10-6.3-18.9-11.2-26.6l-0.5-0.8l22-33.9l-21.6-21.6l-33.9,22l-0.8-0.5c-8.5-5-17.7-8.9-26.7-11.2l-0.9-0.2
	l-8.2-39.4h-30.7l-8.2,39.4l-0.9,0.2c-10,2.6-18.9,6.3-26.6,11.2L93,59.4l-33.9-22L37.4,59.1l22,33.9l-0.5,0.8
	c-5,8.5-8.9,17.7-11.2,26.7l-0.2,0.9l-39.4,8.2v30.7l39.4,8.2l0.2,0.9c2.6,10,6.3,18.9,11.2,26.6l0.5,0.8l-22,33.9l21.6,21.6
	l33.9-22l0.8,0.5c8.5,5,17.7,8.9,26.7,11.2l0.9,0.2L129.6,281.9z M145,192.1c-26,0-47.1-21.1-47.1-47.1S119,97.9,145,97.9
	s47.1,21.1,47.1,47.1S171,192.1,145,192.1z M145,101c-24.3,0-44,19.7-44,44s19.7,44,44,44s44-19.7,44-44S169.3,101,145,101z"/>
</svg>
