<svg xmlns="http://www.w3.org/2000/svg" width="290" height="290" viewBox="0 0 290 290">
  <path fill-rule="evenodd" d="M145,265.168684 C147.995437,265.168684 150.6757,264.853365 153.82878,264.695711 L161.238774,278.727242 C162.657671,281.722739 165.81075,283.299315 169.279227,282.826342 C172.432419,282.195711 174.954927,279.515531 175.427967,276.204721 L177.635079,260.596618 C183.310778,259.020033 188.828835,256.812833 194.346892,254.605621 L205.855823,265.01103 C208.378332,267.375895 211.846809,267.848868 215,266.11463 C217.837794,264.380391 219.099048,261.069591 218.468477,257.758779 L215.157643,242.308331 C219.887374,238.997519 224.617105,235.213734 228.873908,231.11463 L243.220745,237.105627 C246.531467,238.366881 249.842301,237.5786 252.207167,234.740761 C254.256747,232.375895 254.572033,228.749764 252.83785,225.911926 L244.481999,212.511035 C247.792833,207.781304 250.472984,202.5786 253.153136,197.060576 L268.918869,197.848868 C272.229703,198.006522 275.382895,195.956976 276.486506,192.803818 C277.590118,189.650671 276.486506,186.182205 273.806243,184.132648 L261.508987,174.357877 C262.927884,168.83982 264.189138,163.006478 264.662178,156.857849 L279.481943,152.128118 C282.792777,151.024507 285,148.344356 285,144.875879 C285,141.407402 282.792777,138.72725 279.481943,137.623639 L264.662178,132.893908 C264.189138,126.745279 262.927884,121.06958 261.508987,115.39388 L273.806243,105.619132 C276.486506,103.569552 277.590118,100.258829 276.486506,97.1056377 C275.382895,93.9524463 272.229703,91.902978 268.918869,92.0606209 L253.153136,92.6911921 C250.472984,87.1732468 247.792833,82.1281182 244.481999,77.2407442 L252.83785,63.8398762 C254.572033,61.159725 254.256747,57.5336052 252.207167,55.1687395 C249.842301,52.3308338 246.531467,51.5426197 243.220745,52.8038739 L228.873908,58.6372166 C224.617105,54.6956994 219.887374,50.7542939 215.157643,47.4434597 L218.468477,32.1506546 C219.099048,28.6821776 217.837794,25.3714551 215,23.7948035 C211.846809,22.0606209 208.378332,22.3759065 205.855823,24.8984149 L194.346892,35.1462032 C188.828835,32.7813376 183.310778,30.8894004 177.635079,29.1552177 L175.427967,13.7047698 C174.954927,10.3939356 172.432419,7.71378433 169.279227,7.08310136 C165.81075,6.61017292 162.657671,8.18671276 161.238774,11.0245068 L153.82878,25.0560577 C150.6757,24.8984149 147.995437,24.7407721 145,24.7407721 C141.846809,24.7407721 139.166657,24.8984149 136.013466,25.0560577 L128.603583,11.0245068 C127.184686,8.18671276 124.031495,6.61017292 120.563018,7.08310136 C117.409938,7.71378433 114.887385,10.3939356 114.414412,13.7047698 L112.2072,29.1552177 C106.531523,30.8894004 101.013511,32.7813376 95.4954871,35.1462032 L83.9864782,24.8984149 C81.4639586,22.3759065 77.9954927,22.0606209 74.8423348,23.7948035 C72.0044961,25.3714551 70.7432419,28.6821776 71.373869,32.1506546 L74.6846809,47.4434597 C69.9549496,50.7542939 65.2252184,54.6956994 60.9684603,58.6372166 L46.6216237,52.8038739 C43.3108119,51.5426197 40,52.3308338 37.6351344,55.1687395 C35.5855879,57.5336052 35.2702688,61.159725 37.0045073,63.8398762 L45.3603583,77.2407442 C42.0495465,82.1281182 39.3693729,87.1732468 36.6891881,92.6911921 L20.9234211,92.0606209 C17.6126092,91.902978 14.4594591,93.9524463 13.3558555,97.1056377 C12.4099093,100.258829 13.3558555,103.569552 16.0360358,105.619132 L28.3333371,115.39388 C26.9144177,121.06958 25.6531523,126.745279 25.3378332,132.893908 L10.3603606,137.623639 C7.04954983,138.72725 5,141.407402 5,144.875879 C5,148.344356 7.04954983,151.024507 10.3603606,152.128118 L25.3378332,156.857849 C25.6531523,163.006478 26.9144177,168.83982 28.3333371,174.357877 L16.0360358,184.132648 C13.3558555,186.182205 12.4099093,189.650671 13.3558555,192.803818 C14.4594591,195.956976 17.6126092,198.006522 20.9234211,197.848868 L36.6891881,197.060576 C39.3693729,202.5786 42.0495465,207.781304 45.3603583,212.511035 L37.0045073,225.911926 C35.2702688,228.749764 35.5855879,232.375895 37.6351344,234.740761 C40,237.5786 43.3108119,238.366881 46.6216237,237.105627 L60.9684603,231.11463 C65.2252184,235.213734 69.9549496,238.997519 74.6846809,242.308331 L71.373869,257.758779 C70.7432419,261.069591 72.0044961,264.380391 74.8423348,266.11463 C77.9954927,267.848868 81.4639586,267.375895 83.9864782,265.01103 L95.4954871,254.605621 C101.013511,256.812833 106.531523,259.020033 112.2072,260.596618 L114.414412,276.204721 C114.887385,279.515531 117.409938,282.195711 120.563018,282.826342 C124.031495,283.299315 127.184686,281.722739 128.603583,278.727242 L136.013466,264.695711 C139.166657,264.853365 141.846809,265.168684 145,265.168684 Z M177.16215,135.731702 C170.382839,119.49304 158.873908,111.294831 144.527072,111.294831 C142.792777,111.294831 140.585554,111.452474 136.328863,112.2408 L103.378376,56.1145964 C115.990985,50.2812538 130.022481,46.9705313 145,46.9705313 C196.554003,46.9705313 236.914362,85.7542381 241.328807,135.731702 L177.16215,135.731702 Z M48.1981971,145.033521 C48.1981971,112.556086 63.3333259,83.7047698 87.1396361,65.8894562 L120.405375,122.488477 C113.62612,130.056114 110.788281,137.465996 110.788281,145.348919 C110.788281,152.758801 113.310801,159.695755 120.09009,167.578566 L85.8783707,223.074087 C62.7026988,205.258773 48.1981971,176.880397 48.1981971,145.033521 Z M131.126092,145.191164 C131.126092,137.465996 137.74776,131.632653 144.842357,131.632653 C152.567525,131.632653 158.873908,137.465996 158.873908,145.191164 C158.873908,152.758801 152.567525,158.907429 144.842357,158.907429 C137.74776,158.907429 131.126092,152.758801 131.126092,145.191164 Z M145,242.938958 C129.549552,242.938958 114.887385,239.470492 102.117111,233.164176 L136.013466,178.141662 C140.112626,179.087609 142.635134,179.245263 144.527072,179.245263 C158.873908,179.245263 170.382839,170.8894 177.16215,154.335341 L241.328807,154.335341 C236.914362,204.155173 196.554003,242.938958 145,242.938958 Z"/>
</svg>
