<?xml version="1.0" encoding="utf-8"?>
<!-- Generator: Adobe Illustrator 19.2.1, SVG Export Plug-In . SVG Version: 6.00 Build 0)  -->
<svg version="1.1" id="Layer_1" xmlns="http://www.w3.org/2000/svg" xmlns:xlink="http://www.w3.org/1999/xlink" x="0px" y="0px"
	 viewBox="0 0 290 290" style="enable-background:new 0 0 290 290;" xml:space="preserve">
<path d="M165.3,285h-40.5l-8.3-39.7c-7.5-2.2-14.8-5.3-22-9.3l-34.1,22.1l-28.5-28.5l22.1-34.1c-3.8-6.6-6.9-14-9.2-22L5,165.3
	v-40.5l39.7-8.3c2.2-7.4,5.3-14.9,9.2-22L31.8,60.3l28.5-28.5l34.1,22.1c6.6-3.8,14-6.9,22-9.2L124.7,5h40.5l8.3,39.7
	c7.5,2.2,14.8,5.3,22,9.3l34.1-22.1l28.5,28.5l-22.1,34.1c3.8,6.6,6.9,14,9.2,22l39.7,8.3v40.5l-39.7,8.3c-2.2,7.4-5.3,14.9-9.2,22
	l22.1,34.1l-28.5,28.5l-34.1-22.1c-6.6,3.8-14,6.9-22,9.2L165.3,285z M132.9,275h24.3l7.9-37.8l3-0.8c9.3-2.4,17.8-5.9,25-10.5
	l2.7-1.7l32.6,21.1l17.1-17.1l-21.1-32.5l1.6-2.7c4.7-8,8.4-16.7,10.6-25.1l0.8-3l37.8-7.9v-24.3l-37.8-7.9l-0.8-3
	c-2.4-9.4-5.9-17.8-10.5-25l-1.7-2.7l21.1-32.6l-17.1-17.1l-32.5,21.1l-2.7-1.6c-8-4.7-16.7-8.4-25.1-10.6l-3-0.8L157.1,15h-24.3
	L125,52.8l-3,0.8c-9.3,2.4-17.8,5.9-25,10.5l-2.7,1.7L61.7,44.6L44.6,61.7l21.1,32.5l-1.6,2.7c-4.7,8-8.4,16.6-10.6,25.1l-0.8,3
	L15,132.9v24.3l37.8,7.9l0.8,3c2.4,9.4,5.9,17.8,10.5,25l1.7,2.7l-21.1,32.6l17.1,17.1l32.5-21.1l2.7,1.6c8,4.7,16.7,8.4,25.1,10.6
	l3,0.8L132.9,275z M145,194.4c-27.2,0-49.4-22.2-49.4-49.4s22.2-49.4,49.4-49.4c27.2,0,49.4,22.2,49.4,49.4S172.2,194.4,145,194.4z
	 M145,105.6c-21.7,0-39.4,17.7-39.4,39.4s17.7,39.4,39.4,39.4c21.7,0,39.4-17.7,39.4-39.4S166.7,105.6,145,105.6z"/>
</svg>
