<svg xmlns="http://www.w3.org/2000/svg" width="290" height="290" viewBox="0 0 290 290">
  <path fill-rule="evenodd" d="M145.080534,268.100335 C148.949366,268.100335 152.818083,267.93913 156.525618,267.455537 L163.134662,279.867745 C164.263053,282.446905 166.197468,283.414089 169.421342,282.930497 C172.484148,282.608102 173.773721,281.157325 174.096085,277.933376 L176.191683,264.070401 C183.606753,262.297224 191.021823,259.556863 197.953347,256.171715 L208.108744,265.359973 C210.204342,267.455537 212.138758,267.616742 215.201449,266.165965 C217.619412,264.876381 218.264255,263.103216 217.780594,259.718068 L215.040267,246.338671 C221.326947,241.98635 227.291262,237.150425 232.772031,231.347315 L245.506573,236.666832 C248.085718,238.11761 250.020134,237.634017 252.438096,234.893656 C254.694876,232.636898 254.694876,230.541323 252.760461,227.962167 L245.506573,216.194753 C250.020134,209.90805 253.888851,203.137766 256.951657,196.206266 L270.975771,196.851063 C274.038577,197.012257 275.811696,195.883878 276.617722,192.982323 C277.746112,190.080768 276.940087,188.146398 274.683306,186.373222 L263.721883,177.668568 C265.817482,170.41468 267.107054,162.6772 267.751783,154.778583 L280.808804,150.587387 C283.87161,149.458997 285,147.84706 285,144.945436 C285,142.043927 283.87161,140.43199 280.808804,139.303599 L267.751783,135.112403 C267.107054,127.213786 265.656299,119.476238 263.721883,112.22235 L274.683306,103.517707 C276.940087,101.90577 277.423633,99.9713546 276.617722,97.0698451 C275.811696,94.1683357 274.038577,93.0399456 270.975771,93.2011278 L256.951657,93.6846747 C253.727669,86.5919691 250.020134,79.9829247 245.506573,73.6962448 L252.760461,61.9287964 C254.533694,59.5108338 254.533694,57.4152357 252.438096,55.1584554 C250.020134,52.4181283 248.085718,51.9345814 245.506573,53.3853361 L232.772031,58.5436259 C227.291262,52.9017893 221.326947,48.0658641 215.040267,43.7134858 L217.780594,30.3341003 C218.264255,26.9489299 217.619412,25.0146283 215.201449,23.8862382 C212.138758,22.274187 210.204342,22.4353692 208.108744,24.5309673 L197.953347,33.7192708 C191.021823,30.4952826 183.606753,27.7549555 176.191683,25.981722 L174.096085,12.1187897 C173.773721,8.89480154 172.322966,7.44404683 169.421342,7.12168228 C166.197468,6.63802122 164.263053,7.60522911 163.134662,9.86200943 L156.525618,22.5966657 C152.818083,22.1130047 148.949366,21.9518224 145.080534,21.9518224 C141.211817,21.9518224 137.343099,22.1130047 133.474382,22.5966657 L127.02652,9.86200943 C125.736833,7.60522911 123.963714,6.63802122 120.578544,7.12168228 C117.677011,7.44404683 116.387439,8.89480154 115.903846,12.1187897 L113.969476,25.8205397 C106.554395,27.7549555 99.1393132,30.3341003 92.2078243,33.7192708 L81.8911877,24.6921495 C79.6344188,22.5966657 77.7000487,22.4353692 74.9596873,23.8862382 C72.5417247,25.0146283 71.7357448,26.9489299 72.2193373,30.3341003 L75.1208924,43.7134858 C68.672996,48.0658641 62.7086806,52.9017893 57.3891743,58.5436259 L44.6545751,53.3853361 C42.0754074,51.9345814 40.1410488,52.4181283 37.7230862,55.1584554 C35.627511,57.4152357 35.4663173,59.5108338 37.0782885,61.7676141 L44.6545751,73.6962448 C40.1410488,79.9829247 36.2723086,86.5919691 33.0483547,93.6846747 L19.0241831,93.2011278 C15.9614262,93.0399456 14.3494516,94.1683357 13.3822677,97.0698451 C12.2538855,99.9713546 12.8986751,101.90577 15.4778337,103.517707 L26.2780594,112.22235 C24.3436893,119.476238 23.0541169,127.213786 22.4093193,134.951221 L9.19113326,139.303599 C6.12838216,140.270807 5,141.882744 5,144.945436 C5,148.008242 6.12838216,149.620179 9.19113326,150.587387 L22.4093193,154.939765 C23.0541169,162.6772 24.3436893,170.41468 26.2780594,177.668568 L15.4778337,186.373222 C13.0598723,187.985204 12.4150826,189.919575 13.3822677,192.982323 C14.3494516,195.883878 15.9614262,197.012257 19.0241831,196.851063 L33.0483547,196.206266 C36.2723086,203.137766 40.1410488,209.90805 44.49337,216.194753 L37.2394937,227.962167 C35.3051236,230.541323 35.4663173,232.636898 37.7230862,234.893656 C40.1410488,237.634017 42.0754074,238.11761 44.6545751,236.666832 L57.3891743,231.347315 C62.7086806,237.150425 68.672996,241.98635 75.1208924,246.338671 L72.2193373,259.718068 C71.7357448,263.103216 72.5417247,264.876381 74.9596873,266.165965 C77.8612424,267.616742 79.7956125,267.455537 81.8911877,265.359973 L92.0466192,256.171715 C99.1393132,259.556863 106.554395,262.297224 113.969476,264.231594 L115.903846,277.933376 C116.387439,281.157325 117.677011,282.608102 120.739726,282.930497 C123.963714,283.414089 125.736833,282.446905 127.02652,279.867745 L133.474382,267.455537 C137.181917,267.93913 141.211817,268.100335 145.080534,268.100335 Z M173.934903,139.948329 C170.549732,125.763032 159.104763,116.252364 145.080534,116.252364 C142.017842,116.252364 138.955036,116.73591 135.408684,118.025483 L93.1749979,45.486605 C108.488765,37.2656236 126.220494,32.7520629 145.080534,32.7520629 C205.529599,32.7520629 253.082825,79.6605601 255.662084,139.948329 L173.934903,139.948329 Z M34.3379385,144.945436 C34.3379385,105.290941 53.6816279,70.9558034 83.6643526,51.1285558 L126.059312,123.506251 C119.450153,129.309384 115.581447,137.208001 115.581447,145.590279 C115.581447,154.456104 119.611336,162.354835 126.704041,168.319151 L83.8255463,239.084795 C53.8428216,219.096308 34.3379385,184.600057 34.3379385,144.945436 Z M126.704041,145.590279 C126.704041,135.434882 135.086319,127.374969 145.241831,127.374969 C155.236045,127.374969 163.779506,135.434882 163.779506,145.590279 C163.779506,155.745677 155.236045,164.127954 145.241831,164.127954 C135.086319,164.127954 126.704041,155.745677 126.704041,145.590279 Z M145.080534,257.300106 C126.220494,257.300106 108.811152,252.786579 93.4973967,244.7267 L136.214709,173.799828 C139.438697,174.767013 142.179025,175.250605 145.080534,175.250605 C159.58831,175.250605 171.033393,165.095162 174.096085,150.587387 L255.662084,150.587387 C252.921643,210.552848 205.368417,257.300106 145.080534,257.300106 Z"/>
</svg>
