<svg xmlns="http://www.w3.org/2000/svg" width="290" height="290" viewBox="0 0 290 290">
  <path fill="#333" d="M157.325359,285 C164.291866,285 169.382775,280.84689 170.856459,274.014354 L177.822967,244.54067 C183.047847,242.799043 188.138756,240.789474 192.559809,238.645933 L218.416268,254.454545 C224.177033,258.07177 230.741627,257.535885 235.564593,252.712919 L252.84689,235.564593 C257.669856,230.741627 258.339713,223.77512 254.454545,218.014354 L238.645933,192.425837 C240.923445,187.736842 242.933014,182.913876 244.406699,178.090909 L274.148325,170.990431 C280.980861,169.516746 285,164.425837 285,157.45933 L285,133.210526 C285,126.37799 280.980861,121.287081 274.148325,119.813397 L244.674641,112.712919 C242.933014,107.220096 240.789474,102.263158 238.913876,98.1100478 L254.722488,72.1196172 C258.473684,66.3588517 258.07177,59.7942584 253.114833,54.9712919 L235.564593,37.6889952 C230.607656,33.1339713 224.712919,32.3301435 218.818182,35.6794258 L192.559809,51.8899522 C188.272727,49.6124402 183.315789,47.6028708 177.822967,45.861244 L170.856459,15.9856459 C169.382775,9.15311005 164.291866,5 157.325359,5 L132.674641,5 C125.708134,5 120.617225,9.15311005 119.009569,15.9856459 L112.043062,45.5933014 C106.818182,47.3349282 101.727273,49.3444976 97.1722488,51.7559809 L71.1818182,35.6794258 C65.2870813,32.3301435 59.2583732,33 54.3014354,37.6889952 L36.8851675,54.9712919 C31.9282297,59.7942584 31.3923445,66.3588517 35.277512,72.1196172 L50.9521531,98.1100478 C49.2105263,102.263158 47.0669856,107.220096 45.3253589,112.712919 L15.8516746,119.813397 C9.01913876,121.287081 5,126.37799 5,133.210526 L5,157.45933 C5,164.425837 9.01913876,169.516746 15.8516746,170.990431 L45.5933014,178.090909 C47.0669856,182.913876 49.076555,187.736842 51.2200957,192.425837 L35.5454545,218.014354 C31.5263158,223.77512 32.3301435,230.741627 37.15311,235.564593 L54.3014354,252.712919 C59.1244019,257.535885 65.8229665,258.07177 71.5837321,254.454545 L97.3062201,238.645933 C101.861244,240.789474 106.818182,242.799043 112.043062,244.54067 L119.009569,274.014354 C120.617225,280.84689 125.708134,285 132.674641,285 L157.325359,285 Z M145,192.291866 C119.009569,192.291866 97.708134,170.856459 97.708134,144.866029 C97.708134,119.009569 119.009569,97.708134 145,97.708134 C170.990431,97.708134 192.291866,119.009569 192.291866,144.866029 C192.291866,170.856459 170.990431,192.291866 145,192.291866 Z"/>
</svg>
