<svg xmlns="http://www.w3.org/2000/svg" width="290" height="290" viewBox="0 0 290 290">
  <path fill-rule="evenodd" d="M86.3497737,47.2438193 C84.5584556,44.1497926 80.812988,43.8240145 77.3932062,45.7782216 C40.1013154,67.7625331 16,109.776949 16,156.025442 C16,227.026576 73.9734244,285 144.811727,285 C215.812895,285 273.786285,227.026576 273.786285,156.025442 C273.786285,90.8867796 224.769428,36.3330793 161.910636,28.0278718 L161.910636,11.4175724 C161.910636,5.22940353 155.559636,3.11236498 150.674233,6.85783258 L120.384726,29.6564163 C116.476404,32.4247803 116.476404,37.7986769 120.384726,40.7299877 L150.674233,63.528456 C155.559636,67.2739236 161.910636,65.1570005 161.910636,58.9688316 L161.910636,40.0785469 C218.418428,48.2209229 261.572779,96.9121171 261.572779,156.025442 C261.572779,220.675552 209.624726,273.275034 144.811727,273.275034 C80.1615933,273.275034 28.0506519,220.675552 28.0506519,156.025442 C28.0506519,113.848079 50.5235037,77.859001 83.744218,56.363299 C87.1639998,54.0834291 88.3039347,50.3379615 86.3497737,47.2438193 Z"/>
</svg>
