<svg xmlns="http://www.w3.org/2000/svg" width="290" height="290" viewBox="0 0 290 290">
  <path fill-rule="evenodd" d="M94.1171005,48.4393212 C90.1717945,42.6002552 82.7546195,42.2846602 76.9155647,45.9143378 C40.3031047,68.6392999 16,109.51265 16,155.593876 C16,226.76725 74.0749417,285 145.090529,285 C216.105994,285 274.180947,226.76725 274.180947,155.593876 C274.180947,91.9955638 227.626328,38.0236809 166.868595,27.9237475 L166.868595,15.2987188 C166.868595,5.35658287 157.715446,2.04250027 149.982699,7.88156623 L115.263954,33.7628134 C110.371773,37.392491 110.371773,44.1783419 115.263954,47.8080194 L149.982699,73.5314692 C157.557649,79.2127376 166.868595,75.898655 166.868595,66.272114 L166.868595,52.3845937 C214.843502,62.3268415 249.246596,104.462683 249.246596,155.593876 C249.246596,214.142266 204.112267,261.012524 145.090529,261.012524 C86.0686797,261.012524 40.9343505,214.142266 40.9343505,155.593876 C40.9343505,118.034497 59.2405805,85.0518036 88.2780458,66.587709 C95.6952319,61.8533372 98.0624178,54.2783871 94.1171005,48.4393212 Z"/>
</svg>
