<svg xmlns="http://www.w3.org/2000/svg" width="290" height="290" viewBox="0 0 290 290">
  <path fill-rule="evenodd" d="M127.875672,58.9688316 C127.875672,65.1570005 134.226649,67.2739236 139.112052,63.528456 L169.401571,40.7299877 C173.30987,37.7986769 173.147039,32.4247803 169.401571,29.6564163 L139.112052,6.85783258 C134.226649,3.11236498 127.875672,5.22940353 127.875672,11.4175724 L127.875672,28.0278718 C64.8540025,36.3330793 16,90.8867796 16,156.025442 C16,227.026576 73.9734244,285 144.811727,285 C215.812895,285 273.786285,227.026576 273.786285,156.025442 C273.786285,109.776949 249.522104,67.7625331 212.39309,45.7782216 C208.973285,43.8240145 205.227818,44.1497926 203.273726,47.2438193 C201.48235,50.3379615 202.459454,54.0834291 206.04209,56.363299 C239.262804,77.859001 261.572779,113.848079 261.572779,156.025442 C261.572779,220.675552 209.624726,273.275034 144.811727,273.275034 C80.1615933,273.275034 28.0506519,220.675552 28.0506519,156.025442 C28.0506519,96.9121171 71.3678802,48.2209229 127.875672,40.0785469 L127.875672,58.9688316 Z"/>
</svg>
