<svg xmlns="http://www.w3.org/2000/svg" width="290" height="290" viewBox="0 0 290 290">
  <path fill-rule="evenodd" d="M123.312386,66.272114 C123.312386,75.898655 132.623298,79.2127376 140.19836,73.5314692 L174.917049,47.8080194 C179.809218,44.1783419 179.809218,37.392491 174.917049,33.7628134 L140.19836,7.88156623 C132.465501,2.04250027 123.312386,5.35658287 123.312386,15.2987188 L123.312386,27.9237475 C62.5546408,38.0236809 16,91.9955638 16,155.593876 C16,226.76725 74.0749417,285 145.090529,285 C216.105994,285 274.180947,226.76725 274.180947,155.593876 C274.180947,109.51265 249.877898,68.6392999 213.265416,45.9143378 C207.42635,42.2846602 200.009197,42.6002552 196.063924,48.4393212 C192.11854,54.2783871 194.485726,61.8533372 201.902879,66.587709 C230.940411,85.0518036 249.246596,118.034497 249.246596,155.593876 C249.246596,214.142266 204.112267,261.012524 145.090529,261.012524 C86.0686797,261.012524 40.9343505,214.142266 40.9343505,155.593876 C40.9343505,104.462683 75.3374333,62.3268415 123.312386,52.3845937 L123.312386,66.272114 Z"/>
</svg>
