<svg xmlns="http://www.w3.org/2000/svg" width="290" height="290" viewBox="0 0 290 290">
  <path fill-rule="evenodd" d="M31.3507182,128.033159 L101.682467,128.033159 C119.123238,128.033159 128.033186,119.123238 128.033186,100.924151 L128.033186,32.1090079 C128.033186,13.9099208 119.123238,5 101.682467,5 L31.3507182,5 C13.7203799,5 5,13.9099208 5,32.1090079 L5,100.924151 C5,119.123238 13.7203799,128.033159 31.3507182,128.033159 Z M188.317492,128.033159 L258.649349,128.033159 C276.090079,128.033159 285,119.123238 285,100.924151 L285,32.1090079 C285,13.9099208 276.090079,5 258.649349,5 L188.317492,5 C170.687206,5 161.966841,13.9099208 161.966841,32.1090079 L161.966841,100.924151 C161.966841,119.123238 170.687206,128.033159 188.317492,128.033159 Z M31.5402873,114.952611 C22.4407571,114.952611 18.0805692,110.213317 18.0805692,100.734595 L18.0805692,32.1090079 C18.0805692,22.8199759 22.4407571,17.8909921 31.5402873,17.8909921 L101.492898,17.8909921 C110.592429,17.8909921 114.952611,22.8199759 114.952611,32.1090079 L114.952611,100.734595 C114.952611,110.213317 110.592429,114.952611 101.492898,114.952611 L31.5402873,114.952611 Z M188.507182,114.952611 C179.407571,114.952611 175.047389,110.213317 175.047389,100.734595 L175.047389,32.1090079 C175.047389,22.8199759 179.407571,17.8909921 188.507182,17.8909921 L258.459793,17.8909921 C267.55927,17.8909921 271.919452,22.8199759 271.919452,32.1090079 L271.919452,100.734595 C271.919452,110.213317 267.55927,114.952611 258.459793,114.952611 L188.507182,114.952611 Z M31.3507182,284.620889 L101.682467,284.620889 C119.123238,284.620889 128.033186,275.710936 128.033186,257.511881 L128.033186,188.696711 C128.033186,170.497651 119.123238,161.587703 101.682467,161.587703 L31.3507182,161.587703 C13.7203799,161.587703 5,170.497651 5,188.696711 L5,257.511881 C5,275.710936 13.7203799,284.620889 31.3507182,284.620889 Z M188.317492,284.620889 L258.649349,284.620889 C276.090079,284.620889 285,275.710936 285,257.511881 L285,188.696711 C285,170.497651 276.090079,161.587703 258.649349,161.587703 L188.317492,161.587703 C170.687206,161.587703 161.966841,170.497651 161.966841,188.696711 L161.966841,257.511881 C161.966841,275.710936 170.687206,284.620889 188.317492,284.620889 Z M31.5402873,271.729893 C22.4407571,271.729893 18.0805692,266.80098 18.0805692,257.511881 L18.0805692,188.88628 C18.0805692,179.407612 22.4407571,174.668278 31.5402873,174.668278 L101.492898,174.668278 C110.592429,174.668278 114.952611,179.407612 114.952611,188.88628 L114.952611,257.511881 C114.952611,266.80098 110.592429,271.729893 101.492898,271.729893 L31.5402873,271.729893 Z M188.507182,271.729893 C179.407571,271.729893 175.047389,266.80098 175.047389,257.511881 L175.047389,188.88628 C175.047389,179.407612 179.407571,174.668278 188.507182,174.668278 L258.459793,174.668278 C267.55927,174.668278 271.919452,179.407612 271.919452,188.88628 L271.919452,257.511881 C271.919452,266.80098 267.55927,271.729893 258.459793,271.729893 L188.507182,271.729893 Z"/>
</svg>
