<svg xmlns="http://www.w3.org/2000/svg" width="290" height="290" viewBox="0 0 290 290">
  <path fill-rule="evenodd" d="M38.0411266,134.143646 L100.724875,134.143646 C122.815241,134.143646 133.766015,122.815254 133.766015,100.158469 L133.766015,38.9851771 C133.766015,16.3283924 122.815241,5 100.724875,5 L38.0411266,5 C15.9507748,5 5,16.3283924 5,38.9851771 L5,100.158469 C5,122.815254 15.9507748,134.143646 38.0411266,134.143646 Z M188.519876,134.143646 L251.203612,134.143646 C273.29403,134.143646 284.244711,122.815254 284.244711,100.158469 L284.244711,38.9851771 C284.244711,16.3283924 273.29403,5 251.203612,5 L188.519876,5 C166.429591,5 155.478776,16.3283924 155.478776,38.9851771 L155.478776,100.158469 C155.478776,122.815254 166.429591,134.143646 188.519876,134.143646 Z M38.6075462,107.333109 C34.0762026,107.333109 31.8105242,104.689799 31.8105242,99.7808918 L31.8105242,39.3627545 C31.8105242,34.4538469 34.0762026,31.8105375 38.6075462,31.8105375 L100.158456,31.8105375 C104.689813,31.8105375 106.955491,34.4538469 106.955491,39.3627545 L106.955491,99.7808918 C106.955491,104.689799 104.689813,107.333109 100.158456,107.333109 L38.6075462,107.333109 Z M189.086242,107.333109 C184.554912,107.333109 182.289314,104.689799 182.289314,99.7808918 L182.289314,39.3627545 C182.289314,34.4538469 184.554912,31.8105375 189.086242,31.8105375 L250.637245,31.8105375 C255.168576,31.8105375 257.434308,34.4538469 257.434308,39.3627545 L257.434308,99.7808918 C257.434308,104.689799 255.168576,107.333109 250.637245,107.333109 L189.086242,107.333109 Z M38.0411266,285 L100.724875,285 C122.815241,285 133.766015,273.671612 133.766015,251.014836 L133.766015,189.841544 C133.766015,167.184759 122.815241,155.85638 100.724875,155.85638 L38.0411266,155.85638 C15.9507748,155.85638 5,167.184759 5,189.841544 L5,251.014836 C5,273.671612 15.9507748,285 38.0411266,285 Z M188.519876,285 L251.203612,285 C273.29403,285 284.244711,273.671612 284.244711,251.014836 L284.244711,189.841544 C284.244711,167.184759 273.29403,155.85638 251.203612,155.85638 L188.519876,155.85638 C166.429591,155.85638 155.478776,167.184759 155.478776,189.841544 L155.478776,251.014836 C155.478776,273.671612 166.429591,285 188.519876,285 Z M38.6075462,258.189476 C34.0762026,258.189476 31.8105242,255.546193 31.8105242,250.637219 L31.8105242,190.219148 C31.8105242,185.310187 34.0762026,182.666891 38.6075462,182.666891 L100.158456,182.666891 C104.689813,182.666891 106.955491,185.310187 106.955491,190.219148 L106.955491,250.637219 C106.955491,255.546193 104.689813,258.189476 100.158456,258.189476 L38.6075462,258.189476 Z M189.086242,258.189476 C184.554912,258.189476 182.289314,255.546193 182.289314,250.637219 L182.289314,190.219148 C182.289314,185.310187 184.554912,182.666891 189.086242,182.666891 L250.637245,182.666891 C255.168576,182.666891 257.434308,185.310187 257.434308,190.219148 L257.434308,250.637219 C257.434308,255.546193 255.168576,258.189476 250.637245,258.189476 L189.086242,258.189476 Z"/>
</svg>
