<svg xmlns="http://www.w3.org/2000/svg" width="290" height="290" viewBox="0 0 290 290">
  <path fill-rule="evenodd" d="M5.82574844 12.1976739L273.992246 12.1976739C277.269179 12.1976739 280 9.46685331 280 6.18992021 280 2.91298711 277.269179 2.79776202e-13 273.992246 2.79776202e-13L5.82574844 2.79776202e-13C2.54876502 2.79776202e-13 0 2.91298711 0 6.18992021 0 9.46685331 2.54876502 12.1976739 5.82574844 12.1976739zM5.82574844 79.0117595L273.992246 79.0117595C277.269179 79.0117595 280 76.0988886 280 72.8219684 280 69.5449062 277.269179 66.8140857 273.992246 66.8140857L5.82574844 66.8140857C2.54876502 66.8140857 0 69.5449062 0 72.8219684 0 76.0988886 2.54876502 79.0117595 5.82574844 79.0117595zM5.82574844 145.643756L273.992246 145.643756C277.269179 145.643756 280 142.912935 280 139.635951 280 136.358979 277.269179 133.446095 273.992246 133.446095L5.82574844 133.446095C2.54876502 133.446095 0 136.358979 0 139.635951 0 142.912935 2.54876502 145.643756 5.82574844 145.643756z" transform="translate(5 72)"/>
</svg>
