<svg xmlns="http://www.w3.org/2000/svg" width="290" height="290" viewBox="0 0 290 290">
  <path fill-rule="evenodd" d="M11.4943182 24.4254182L267.242945 24.4254182C273.7084 24.4254182 278.7372 18.6782909 278.7372 12.2127091 278.7372 5.74712727 273.7084-1.56319402e-13 267.242945-1.56319402e-13L11.4943182-1.56319402e-13C5.02876436-1.56319402e-13-7.10542736e-14 5.74712727-7.10542736e-14 12.2127091-7.10542736e-14 18.6782909 5.02876436 24.4254182 11.4943182 24.4254182zM11.4943182 84.05222L267.242945 84.05222C273.7084 84.05222 278.7372 78.3050545 278.7372 71.8394727 278.7372 65.3738909 273.7084 59.6267636 267.242945 59.6267636L11.4943182 59.6267636C5.02876436 59.6267636-7.10542736e-14 65.3738909-7.10542736e-14 71.8394727-7.10542736e-14 78.3050545 5.02876436 84.05222 11.4943182 84.05222zM11.4943182 143.678996L267.242945 143.678996C273.7084 143.678996 278.7372 137.931831 278.7372 131.466275 278.7372 125.000731 273.7084 119.253565 267.242945 119.253565L11.4943182 119.253565C5.02876436 119.253565-7.10542736e-14 125.000731-7.10542736e-14 131.466275-7.10542736e-14 137.931831 5.02876436 143.678996 11.4943182 143.678996z" transform="translate(5 73)"/>
</svg>
