<svg xmlns="http://www.w3.org/2000/svg" width="290" height="290" viewBox="0 0 290 290">
  <path fill="#333" d="M145,285 C221.588235,285 285,221.45098 285,145 C285,68.4117647 221.45098,5 144.862745,5 C68.4117647,5 5,68.4117647 5,145 C5,221.45098 68.5490196,285 145,285 Z M145.137255,218.843137 C143.352941,218.843137 140.196078,216.921569 137.72549,215.411765 C108.764706,197.019608 69.5098039,162.705882 69.5098039,125.647059 C69.5098039,100.529412 86.8039216,82.4117647 110.823529,82.4117647 C126.058824,82.4117647 137.72549,91.0588235 144.862745,103.960784 C151.862745,91.0588235 163.803922,82.4117647 178.901961,82.4117647 C202.784314,82.4117647 220.215686,100.529412 220.215686,125.647059 C220.215686,162.705882 180.686275,196.607843 151.862745,215.411765 C149.666667,217.058824 146.921569,218.843137 145.137255,218.843137 Z"/>
</svg>
