<svg xmlns="http://www.w3.org/2000/svg" width="290" height="290" viewBox="0 0 290 290">
  <path fill-rule="evenodd" d="M145.000061,285 C222.017092,285 285,222.000006 285,145 C285,67.999994 222.017092,5 145.000061,5 C67.9828958,5 5,67.999994 5,145 C5,222.000006 67.9828958,285 145.000061,285 Z M145.000061,259.048781 C80.9902331,259.048781 32.04157,208.341474 32.04157,145 C32.04157,81.6585748 80.9902331,30.9511947 145.000061,30.9511947 C209.009767,30.9511947 257.95843,81.6585748 257.95843,145 C257.95843,208.341474 209.009767,259.048781 145.000061,259.048781 Z M140.550116,172.829272 C148.594097,172.829272 153.386308,167.878059 153.386308,161.731704 L153.386308,161.048842 C153.386308,153.878059 158.007386,149.268254 166.907154,143.463438 C179.572092,135.268362 190.0123,127.414597 190.0123,110.341461 C190.0123,86.2682596 168.618606,74.317077 145.171194,74.317077 C121.381431,74.317077 105.63571,84.731698 101.356983,96.512165 C100.501233,98.9024257 99.9877853,101.292686 99.9877853,103.682947 C99.9877853,110.682893 105.63571,114.438999 110.770187,114.438999 C119.841088,114.438999 121.039128,109.658599 126.515871,103.853663 C131.821481,98.2195632 137.298345,95.6585869 144.144274,95.6585869 C155.09776,95.6585869 162.286076,101.97567 162.286076,111.536592 C162.286076,120.585367 156.295813,124.512189 145.000061,132.365834 C135.92916,138.682917 127.885057,145.853699 127.885057,159.682996 L127.885057,160.365858 C127.885057,168.731722 132.335002,172.829272 140.550116,172.829272 Z M140.550116,213.804882 C151.33259,213.804882 158.178519,207.487811 158.178519,198.780491 C158.178519,189.560988 151.33259,183.414645 140.550116,183.414645 C129.767763,183.414645 122.750629,189.560988 122.750629,198.780491 C122.750629,207.487811 129.767763,213.804882 140.550116,213.804882 Z"/>
</svg>
