<svg xmlns="http://www.w3.org/2000/svg" width="290" height="290" viewBox="0 0 290 290">
  <path d="M145,5 C222,5 285,68 285,145 C285,222 222,285 145,285 C68,285 5,222 5,145 C5,68 68,5 145,5 Z M141.9,180.6 C131.4,180.6 123.8,186.9 123.8,196.1 C123.8,205.1 131.4,211.6 141.9,211.6 C152.8,211.6 160,205.1 160,196.1 C160,186.9 152.7,180.6 141.9,180.6 Z M144.5,69.6 C122.1,69.6 98,80.4 98,110.9 L98,110.9 L123.8,110.9 C123.2,100 130.3,90.6 144.5,90.2 C154.1,90.7 163.8,95.7 162.6,108.3 C163.8,116.8 157.3,121.4 147.1,126.4 C136.4,135.8 127.9,145.2 129,160 L129,160 L129,167.8 L152.2,167.8 L152.2,162.6 C153.5,150.9 157.8,147.8 170.3,139.4 C180.2,131.9 191,123.8 191,105.8 C191,81.9 169.5,69.6 144.5,69.6 Z"/>
</svg>
