<svg xmlns="http://www.w3.org/2000/svg" width="290" height="290" viewBox="0 0 290 290">
  <path fill-rule="evenodd" d="M144.911569,285 C222.030982,285 285,221.97353 285,145.000063 C285,68.0265449 222.030982,5 144.911569,5 C67.9690553,5 5,68.0265449 5,145.000063 C5,221.97353 67.9690553,285 144.911569,285 Z M144.911569,272.112234 C74.6904652,272.112234 18.0890693,215.264823 18.0890693,145.000063 C18.0890693,74.7352391 74.6904652,17.887804 144.911569,17.887804 C215.309572,17.887804 271.734043,74.7352391 271.734043,145.000063 C271.734043,215.264823 215.309572,272.112234 144.911569,272.112234 Z M142.081515,172.717542 C145.97287,172.717542 148.272336,170.06937 148.272336,166.538483 L148.272336,162.654501 C148.272336,154.180401 152.340555,149.060585 162.95332,141.822181 C177.280454,132.112259 184.001864,123.991214 184.001864,110.22077 C184.001864,91.506912 167.198402,79.1488175 145.265294,79.1488175 C123.155412,79.1488175 109.005066,91.506912 106.705637,105.45401 C106.174999,107.219416 105.998111,109.161476 105.998111,111.10341 C105.998111,114.810876 108.828191,116.752811 111.835132,116.752811 C116.080239,116.752811 117.495278,114.45782 119.087193,111.10341 C121.386622,99.4514282 130.58431,90.2712152 144.734706,90.2712152 C160.476992,90.2712152 170.559044,98.9218438 170.559044,110.926882 C170.559044,120.460276 165.429524,126.109677 152.163567,135.290015 C141.020213,143.058003 135.71383,150.119879 135.71383,161.948314 L135.71383,166.185389 C135.71383,170.245924 138.190159,172.717542 142.081515,172.717542 Z M142.081515,210.321573 C148.449199,210.321573 153.578719,205.554863 153.578719,199.728897 C153.578719,193.902919 148.449199,188.959669 142.081515,188.959669 C135.536967,188.959669 130.58431,193.726366 130.58431,199.728897 C130.58431,205.731417 135.360105,210.321573 142.081515,210.321573 Z"/>
</svg>
