<svg xmlns="http://www.w3.org/2000/svg" width="290" height="290" viewBox="0 0 290 290">
  <path fill-rule="nonzero" d="M145,285 C221.588235,285 285,221.45098 285,145 C285,68.4117647 221.45098,5 144.862745,5 C68.4117647,5 5,68.4117647 5,145 C5,221.45098 68.5490196,285 145,285 Z M145,261.666667 C80.2156863,261.666667 28.4705882,209.784314 28.4705882,145 C28.4705882,80.2156863 80.0784314,28.3333333 144.862745,28.3333333 C209.647059,28.3333333 261.529412,80.2156863 261.666938,145 C261.803922,209.784314 209.784314,261.666667 145,261.666667 Z M196.745098,190.156863 C222.137255,190.156863 239.568627,171.901961 239.568627,145 C239.568627,118.098039 222.137255,99.7058824 196.745098,99.7058824 C183.568627,99.7058824 172.313725,105.196078 159.686275,117.411765 L145,131.54902 L130.313725,117.411765 C118.098039,105.470588 106.705882,99.7058824 93.254902,99.7058824 C67.8627451,99.7058824 50.5686275,118.098039 50.5686275,145 C50.5686275,171.901961 67.8627451,190.156863 93.254902,190.156863 C106.705882,190.156863 118.098039,184.392157 130.313725,172.588235 L145,158.45098 L159.686275,172.588235 C172.313725,184.803922 183.568627,190.156863 196.745098,190.156863 Z M93.254902,170.254902 C79.3921569,170.254902 70.3333333,160.509804 70.3333333,145 C70.3333333,129.490196 79.3921569,119.607843 93.254902,119.607843 C100.666667,119.745098 107.529412,123.176471 116.72549,131.54902 L131,145 L116.72549,158.313725 C107.803922,166.54902 100.941176,170.254902 93.254902,170.254902 Z M196.745098,170.254902 C189.058824,170.254902 182.196078,166.54902 173.411765,158.313725 L159.137255,145 L173.411765,131.54902 C182.470588,123.176471 189.333333,119.745098 196.745098,119.607843 C210.745098,119.607843 219.803922,129.490196 219.803922,145 C219.803922,160.509804 210.745098,170.254902 196.745098,170.254902 Z"/>
</svg>