<svg xmlns="http://www.w3.org/2000/svg" width="290" height="290" viewBox="0 0 290 290">
  <path fill-rule="evenodd" d="M144.911569,285 C222.030982,285 285,221.97353 285,145.000063 C285,68.0265449 222.030982,5 144.911569,5 C67.9690553,5 5,68.0265449 5,145.000063 C5,221.97353 67.9690553,285 144.911569,285 Z M144.911569,272.112234 C74.6904652,272.112234 18.0890693,215.264823 18.0890693,145.000063 C18.0890693,74.7352391 74.6904652,17.887804 144.911569,17.887804 C215.309572,17.887804 271.734043,74.7352391 271.734043,145.000063 C271.734043,215.264823 215.309572,272.112234 144.911569,272.112234 Z M144.911569,90.0945619 C151.809841,90.0945619 157.469949,84.6216897 157.469949,77.7364674 C157.469949,70.674717 151.809841,65.0253166 144.911569,65.0253166 C137.836433,65.0253166 132.1762,70.674717 132.1762,77.7364674 C132.1762,84.6216897 137.836433,90.0945619 144.911569,90.0945619 Z M119.971582,219.854993 L177.103591,219.854993 C180.464359,219.854993 182.940687,217.383361 182.940687,214.029014 C182.940687,210.851208 180.464359,208.203035 177.103591,208.203035 L154.639895,208.203035 L154.639895,124.34427 C154.639895,120.283748 152.517417,117.459048 148.449199,117.459048 L121.386622,117.459048 C117.849029,117.459048 115.372725,120.10722 115.372725,123.284977 C115.372725,126.639386 117.849029,129.11103 121.386622,129.11103 L142.258377,129.11103 L142.258377,208.203035 L119.971582,208.203035 C116.434002,208.203035 113.957686,210.851208 113.957686,214.029014 C113.957686,217.383361 116.434002,219.854993 119.971582,219.854993 Z"/>
</svg>
