<svg xmlns="http://www.w3.org/2000/svg" width="290" height="290" viewBox="0 0 290 290">
  <path fill-rule="evenodd" d="M144.911569,285 C222.030982,285 285,221.97353 285,145.000063 C285,68.0265449 222.030982,5 144.911569,5 C67.9690553,5 5,68.0265449 5,145.000063 C5,221.97353 67.9690553,285 144.911569,285 Z M144.38098,82.1500458 C136.775132,82.1500458 130.58431,76.1475892 130.58431,68.3796011 C130.58431,60.6116131 136.775132,54.4326284 144.38098,54.4326284 C152.163567,54.4326284 158.531251,60.6116131 158.531251,68.3796011 C158.531251,76.1475892 152.163567,82.1500458 144.38098,82.1500458 Z M117.141515,222.679705 C113.427047,222.679705 110.596981,219.854993 110.596981,216.324092 C110.596981,212.793205 113.427047,209.791939 117.141515,209.791939 L141.373938,209.791939 L141.373938,125.227036 L118.556555,125.227036 C114.842087,125.227036 112.01202,122.402336 112.01202,118.69487 C112.01202,115.34046 114.842087,112.339232 118.556555,112.339232 L148.802924,112.339232 C153.048006,112.339232 155.524334,115.516989 155.524334,119.930692 L155.524334,209.791939 L179.933645,209.791939 C183.825001,209.791939 186.478192,212.793205 186.478192,216.324092 C186.478192,219.854993 183.825001,222.679705 179.933645,222.679705 L117.141515,222.679705 Z"/>
</svg>
