<svg xmlns="http://www.w3.org/2000/svg" width="290" height="290" viewBox="0 0 290 290">
  <path fill-rule="evenodd" d="M145.000061,285 C222.017092,285 285,222.000006 285,145 C285,67.999994 222.017092,5 145.000061,5 C67.9828958,5 5,67.999994 5,145 C5,222.000006 67.9828958,285 145.000061,285 Z M142.261689,92.7560583 C130.110029,92.7560583 120.525681,83.0244208 120.525681,70.9024015 C120.525681,58.7805033 130.110029,49.2195814 142.261689,49.2195814 C154.413228,49.2195814 163.826395,58.7805033 163.826395,70.9024015 C163.826395,83.0244208 154.413228,92.7560583 142.261689,92.7560583 Z M118.471902,224.219515 C111.45478,224.219515 105.806855,219.268302 105.806855,212.097568 C105.806855,205.268302 111.45478,199.975622 118.471902,199.975622 L134.559974,199.975622 L134.559974,139.536616 L121.552576,139.536616 C114.535466,139.536616 108.887541,134.414663 108.887541,127.243881 C108.887541,120.585367 114.535466,115.292699 121.552576,115.292699 L148.765352,115.292699 C157.664998,115.292699 162.286076,121.439066 162.286076,130.999988 L162.286076,199.975622 L178.37416,199.975622 C185.391222,199.975622 191.039098,205.268302 191.039098,212.097568 C191.039098,219.268302 185.391222,224.219515 178.37416,224.219515 L118.471902,224.219515 Z"/>
</svg>
