<svg xmlns="http://www.w3.org/2000/svg" width="290" height="290" viewBox="0 0 290 290">
  <path fill-rule="evenodd" d="M145.000061,285 C222.017092,285 285,222.000006 285,145 C285,67.999994 222.017092,5 145.000061,5 C67.9828958,5 5,67.999994 5,145 C5,222.000006 67.9828958,285 145.000061,285 Z M145.000061,259.048781 C80.9902331,259.048781 32.04157,208.341474 32.04157,145 C32.04157,81.6585748 80.9902331,30.9511947 145.000061,30.9511947 C209.009767,30.9511947 257.95843,81.6585748 257.95843,145 C257.95843,208.341474 209.009767,259.048781 145.000061,259.048781 Z M142.775088,99.5854092 C153.899829,99.5854092 162.457209,90.7073498 162.457209,79.780461 C162.457209,68.6829774 153.899829,59.9756337 142.775088,59.9756337 C131.821481,59.9756337 123.092919,68.6829774 123.092919,79.780461 C123.092919,90.7073498 131.821481,99.5854092 142.775088,99.5854092 Z M121.210286,218.926834 L175.635667,218.926834 C181.968197,218.926834 187.102674,214.317077 187.102674,207.829278 C187.102674,201.682935 181.968197,196.90245 175.635667,196.90245 L161.088023,196.90245 L161.088023,134.414663 C161.088023,125.70732 156.809333,120.07322 148.765352,120.07322 L123.948669,120.07322 C117.616152,120.07322 112.481675,124.85362 112.481675,130.999988 C112.481675,137.487787 117.616152,142.097592 123.948669,142.097592 L135.757905,142.097592 L135.757905,196.90245 L121.210286,196.90245 C114.877768,196.90245 109.743291,201.682935 109.743291,207.829278 C109.743291,214.317077 114.877768,218.926834 121.210286,218.926834 Z"/>
</svg>
