<?xml version="1.0" encoding="utf-8"?>
<!-- Generator: Adobe Illustrator 19.2.1, SVG Export Plug-In . SVG Version: 6.00 Build 0)  -->
<svg version="1.1" xmlns="http://www.w3.org/2000/svg" xmlns:xlink="http://www.w3.org/1999/xlink"
	 viewBox="0 0 290 290" xml:space="preserve">
<path d="M285,83c0-3.4-0.1-6-0.1-8.4c-0.1-5.5-0.5-11.9-1.6-18.4c-1.2-6.5-3.1-12.2-5.8-17.6c-2.8-5.6-6.5-10.6-10.9-15
	c-4.4-4.4-9.5-8.1-15-10.9c-5.4-2.7-11.2-4.6-17.6-5.8c-6.5-1.2-12.9-1.5-18.4-1.6C213,5.1,210.4,5,207,5c-2.8,0-5.7,0-8.6,0H91.7
	c-3.1,0-5.9,0-8.7,0c-3.4,0-6,0.1-8.4,0.1c-5.5,0.1-11.9,0.5-18.4,1.6c-6.5,1.2-12.2,3.1-17.6,5.8c-5.6,2.8-10.6,6.5-15,10.9
	s-8.1,9.5-10.9,15c-2.7,5.4-4.6,11.2-5.8,17.6c-1.2,6.5-1.5,12.9-1.6,18.4C5.1,77,5,79.6,5,83c0,3.1,0,6.2,0,9.3v105.5
	c0,3.1,0,6.2,0,9.3c0,3.4,0.1,6,0.1,8.4c0.1,5.5,0.5,11.9,1.6,18.4c1.2,6.5,3.1,12.2,5.8,17.6c2.8,5.6,6.5,10.6,10.9,15
	c4.4,4.4,9.5,8.1,15,10.9c5.4,2.7,11.2,4.6,17.6,5.8c6.5,1.2,12.9,1.5,18.4,1.6c2.4,0.1,5,0.1,8.4,0.1c2.9,0,5.8,0,9,0h106.4
	c3.1,0,5.8,0,8.7,0c3.4,0,6-0.1,8.4-0.1c5.5-0.1,11.9-0.5,18.4-1.6c6.5-1.2,12.2-3.1,17.6-5.8c5.6-2.8,10.6-6.5,15-10.9
	c4.4-4.4,8.1-9.5,10.9-15c2.7-5.4,4.6-11.2,5.8-17.6c1.2-6.5,1.5-12.9,1.6-18.4c0.1-2.4,0.1-5,0.1-8.4c0-3.1,0-6.3,0-9.4V92.3
	C285,89.3,285,86.1,285,83z M266.8,196.1v-50.2h16.4v50.2L266.8,196.1L266.8,196.1z M23.2,93.9v50.2H6.8V93.9H23.2z M219.6,144.1
	c-0.2-19.4-7.9-37.1-20.4-50.2h54.3c7.3,15.5,11.3,32.6,11.4,50.2H219.6z M181.8,106.9c-6.3-6.1-14.2-10.7-22.9-13h36L181.8,106.9z
	 M108.2,180.5c-8.7-9-14.1-21.2-14.3-34.6h48.9L108.2,180.5z M142.8,144.1H93.9c0.2-13.4,5.7-25.6,14.4-34.6L142.8,144.1z
	 M109.5,108.2c9-8.7,21.2-14.1,34.6-14.4v48.9L109.5,108.2z M145.9,93.9c13.4,0.2,25.6,5.6,34.6,14.3l-34.6,34.6V93.9z M108.2,106.9
	L95.2,93.9h36C122.4,96.2,114.6,100.8,108.2,106.9z M106.9,108.2c-6.1,6.3-10.7,14.2-13.1,22.9v-36L106.9,108.2z M106.9,181.8
	l-13,13v-36C96.2,167.6,100.8,175.5,106.9,181.8z M108.2,183.1c6.3,6.1,14.1,10.6,22.8,13H95.2L108.2,183.1z M109.5,181.8l34.6-34.6
	v48.9h-1.4C129.8,195.6,118.2,190.2,109.5,181.8z M145.9,196.1v-48.9l34.6,34.6c-8.7,8.4-20.3,13.7-33.2,14.3H145.9z M181.8,183.1
	l13,13h-35.8C167.8,193.8,175.5,189.2,181.8,183.1z M183.1,181.8c6.1-6.3,10.6-14.1,13-22.8v35.8L183.1,181.8z M181.8,180.5
	l-34.6-34.6h48.9v1.5C195.6,160.2,190.2,171.9,181.8,180.5z M196.1,144.1h-48.9l34.6-34.6c8.4,8.7,13.7,20.3,14.3,33.2L196.1,144.1
	L196.1,144.1z M183.1,108.2l13-13V131C193.8,122.3,189.2,114.5,183.1,108.2z M145.9,92V72.3C164.8,72.5,182,80,194.8,92H145.9z
	 M144.1,92H95.2c12.8-12,30-19.5,48.8-19.7L144.1,92L144.1,92z M92,144.1H72.3c0.2-18.9,7.7-36,19.7-48.8V144.1z M92,145.9v48.9
	c-12.1-12.8-19.5-30-19.7-48.9L92,145.9L92,145.9z M142.6,198c0.5,0,1,0,1.4,0v19.8c-18.9-0.2-36.1-7.7-48.9-19.8H142.6z M145.9,198
	c0.5,0,1,0,1.5,0h47.5c-12.8,12.1-30,19.6-49,19.8V198z M198,147.4c0-0.5,0-1,0-1.5h19.8c-0.2,18.9-7.7,36.1-19.8,49L198,147.4
	L198,147.4z M198,144.1c0-0.5,0-1,0-1.4V95.2c12.1,12.8,19.6,30,19.8,48.9L198,144.1L198,144.1z M199.3,92l31.1-31.1
	c9.1,9.3,16.6,19.8,22.2,31.1H199.3z M198,90.7V37.4c11.4,5.6,21.9,13,31.1,22.2L198,90.7z M196.1,90.7
	c-13.2-12.4-30.8-20.1-50.2-20.3V25.1c17.7,0.1,34.7,4,50.2,11.4V90.7z M144.1,70.4c-19.4,0.2-37.1,7.9-50.2,20.4V36.5
	c15.5-7.3,32.6-11.3,50.2-11.4V70.4z M92,90.7L60.9,59.6C70.2,50.5,80.7,43,92,37.4V90.7z M90.7,92H37.4c5.6-11.3,13-21.8,22.2-31.1
	L90.7,92z M90.8,93.9c-12.4,13.2-20.1,30.8-20.4,50.2H25.1c0.1-17.7,4.1-34.7,11.4-50.2H90.8z M70.4,145.9
	c0.2,19.4,7.9,37.1,20.3,50.2H36.5c-7.3-15.5-11.2-32.6-11.4-50.2L70.4,145.9L70.4,145.9z M90.7,198l-31.1,31.1
	c-9.1-9.3-16.6-19.8-22.2-31.1H90.7z M92,199.3v53.3c-11.4-5.6-21.9-13.1-31.1-22.2L92,199.3z M93.9,199.3
	c13.2,12.4,30.8,20.1,50.2,20.4v45.3c-17.7-0.1-34.7-4.1-50.2-11.4V199.3z M145.9,219.6c19.4-0.2,37.1-7.9,50.2-20.3v54.2
	c-15.5,7.3-32.6,11.2-50.2,11.4V219.6z M198,199.3l31.2,31.2c-9.3,9.1-19.8,16.6-31.2,22.2V199.3z M199.3,198h53.4
	c-5.6,11.4-13.1,21.9-22.2,31.2L199.3,198z M199.3,196.1c12.4-13.2,20.1-30.8,20.3-50.2h45.3c-0.1,17.7-4,34.7-11.4,50.2H199.3z
	 M255.6,93.9h9.4v29.9C263.1,113.4,260,103.3,255.6,93.9z M254.7,92c-5.7-11.9-13.4-22.8-23-32.4l33.2-33.2V92H254.7z M230.4,58.3
	c-9.6-9.5-20.6-17.2-32.4-22.9V25.1h65.6L230.4,58.3z M196.1,34.5c-9.6-4.4-19.7-7.6-30.2-9.4h30.2V34.5z M145.9,23.2V6.8h50.2v16.4
	C196.1,23.2,145.9,23.2,145.9,23.2z M144.1,23.2H93.9V6.8h50.2L144.1,23.2L144.1,23.2z M124.1,25.1c-10.5,1.8-20.7,5-30.2,9.4v-9.4
	H124.1z M92,35.4c-11.8,5.7-22.8,13.4-32.4,22.9L26.4,25.1H92V35.4z M58.3,59.6C48.8,69.2,41.1,80.2,35.4,92H25.1V26.4L58.3,59.6z
	 M34.5,93.9c-4.4,9.6-7.6,19.7-9.4,30.2V93.9L34.5,93.9L34.5,93.9z M23.2,145.9v50.2H6.8v-50.2H23.2z M25.1,166
	c1.8,10.5,5,20.6,9.4,30.2h-9.4V166z M35.3,198c5.7,11.8,13.4,22.8,22.9,32.4l-33.2,33.2V198H35.3z M59.6,231.7
	c9.6,9.5,20.6,17.2,32.4,23v10.3H26.4L59.6,231.7z M93.9,255.6c9.5,4.4,19.5,7.6,29.9,9.4H93.9L93.9,255.6L93.9,255.6z M144.1,266.8
	v16.4H93.9v-16.4H144.1z M145.9,266.8h50.2v16.4h-50.2V266.8z M166.3,264.9c10.4-1.8,20.4-5,29.9-9.4v9.4H166.3z M198,254.7
	c11.9-5.7,22.8-13.4,32.5-23l33.2,33.2H198V254.7z M231.8,230.5c9.5-9.7,17.2-20.6,23-32.5h10.2v65.6L231.8,230.5z M255.6,196.1
	c4.4-9.5,7.5-19.5,9.4-29.9v29.9H255.6z M266.8,144.1V93.9h16.4v50.2H266.8z M281.4,56.5c1.1,6.4,1.4,12.7,1.6,18.1
	c0.1,2.4,0.1,5,0.1,8.4c0,3,0,6.1,0,9h-16.4V26.4c3.6,3.9,6.6,8.2,9,12.9C278.5,44.6,280.3,50.2,281.4,56.5z M207,6.9
	c3.4,0,5.9,0.1,8.4,0.1c5.4,0.1,11.8,0.4,18.1,1.6c6.3,1.1,11.9,3,17.1,5.6c4.7,2.4,9.1,5.4,12.9,9H198V6.8h0.5
	C201.4,6.8,204.2,6.8,207,6.9z M39.3,14.2c5.2-2.7,10.8-4.5,17.1-5.6C62.8,7.4,69.2,7.1,74.6,7c2.4-0.1,5-0.1,8.4-0.1
	c2.9,0,5.6,0,8.7,0H92v16.4H26.4C30.3,19.6,34.6,16.6,39.3,14.2z M7,74.6c0.1-5.4,0.4-11.8,1.6-18.1c1.1-6.3,3-11.9,5.6-17.1
	c2.4-4.7,5.4-9,9-12.9V92H6.8c0-3,0-6,0-9C6.9,79.6,6.9,77,7,74.6z M8.6,233.5c-1.1-6.4-1.4-12.7-1.6-18.1c-0.1-2.4-0.1-5-0.1-8.4
	c0-3,0-6.1,0-9h16.4v65.6c-3.6-3.9-6.6-8.2-9-12.9C11.5,245.4,9.7,239.8,8.6,233.5z M83,283.1c-3.4,0-6-0.1-8.4-0.1
	c-5.4-0.1-11.8-0.4-18.1-1.6c-6.3-1.1-11.9-3-17.1-5.6c-4.7-2.4-9.1-5.4-12.9-9H92v16.4h-0.1C88.7,283.2,85.9,283.2,83,283.1z
	 M250.6,275.8c-5.2,2.7-10.8,4.5-17.1,5.6c-6.4,1.1-12.7,1.4-18.1,1.6c-2.4,0.1-5,0.1-8.4,0.1c-2.8,0-5.6,0-8.7,0H198v-16.4h65.6
	C259.7,270.4,255.4,273.4,250.6,275.8z M283,215.4c-0.1,5.4-0.4,11.8-1.6,18.1c-1.1,6.3-3,11.9-5.6,17.1c-2.4,4.7-5.4,9-9,12.9V198
	h16.4c0,3,0,6,0,9C283.1,210.4,283.1,213,283,215.4z"/>
</svg>
