<svg xmlns="http://www.w3.org/2000/svg" width="290" height="290" viewBox="0 0 290 290">
  <path fill-rule="evenodd" d="M209.441687,282.113407 C211.218061,283.889765 213.438516,285 215.881012,285 C220.988076,285 224.984889,281.003171 224.984889,276.118164 C224.984889,273.675652 224.318814,271.23314 222.542393,269.678823 L88.4266392,144.889003 L222.542393,20.5433275 C224.318814,18.7669697 224.984889,16.3243793 224.984889,14.1039714 C224.984889,8.77489802 220.766035,5 215.881012,5 C213.438516,5 211.440102,6.11028264 209.441687,7.88664044 L69.7747816,137.339365 C67.5543217,139.55993 66,142.224388 66,145.111028 C66,147.997669 67.3322757,150.440149 69.5527345,152.882661 L209.441687,282.113407 Z"/>
</svg>
