<svg xmlns="http://www.w3.org/2000/svg" width="290" height="290" viewBox="0 0 290 290">
  <path fill-rule="evenodd" d="M193.004245,279.683543 C196.54855,283.227847 201.274277,285 206.196989,285 C216.632991,285 224.706067,276.926862 224.706067,266.490861 C224.706067,261.568205 222.933942,256.842464 219.389552,253.298173 L111.091426,144.999962 L219.389552,36.70178 C222.933942,33.1575302 224.706067,28.2347904 224.706067,23.5090774 C224.706067,12.4824138 216.04219,5 206.196989,5 C201.274277,5 196.54855,6.77212493 193.004245,10.3163748 L71.5133625,131.80726 C67.7721528,135.351649 66,140.274249 66,144.999962 C66,149.725717 67.7721528,154.451458 71.5133625,158.192665 L193.004245,279.683543 Z"/>
</svg>
