<svg xmlns="http://www.w3.org/2000/svg" width="290" height="290" viewBox="0 0 290 290">
  <path d="M153.732673,285 C164.267327,285 169.950495,275.153541 174.940594,264.197623 L281.118812,35.371471 C283.752475,29.9628529 285,25.1089648 285,21.0871719 C285,11.9341258 278.207921,5 268.920792,5 C264.762376,5 259.910891,6.10946013 254.50495,8.74442793 L25.7920792,114.836553 C15.2574257,119.690441 5,125.515106 5,136.19366 C5,146.872214 15.2574257,152.974245 28.8415842,152.974245 L133.772277,153.390292 C135.712871,153.390292 136.683168,154.222387 136.683168,156.302625 L136.960396,261.007925 C136.960396,274.182764 142.782178,285 153.732673,285 Z"/>
</svg>
