<svg xmlns="http://www.w3.org/2000/svg" width="290" height="290" viewBox="0 0 290 290">
  <path fill-rule="evenodd" d="M144.608682,5 C106.521739,5 70.869559,32.1304674 70.869559,89.6956852 L70.869559,122.217442 C56.9565209,124.478222 50,133.347814 50,150.565186 L50,253.521746 C50,273.347827 59.043478,282.565217 77.4782607,282.565217 L211.739178,282.565217 C230.173949,282.565217 239.217315,273.347827 239.217315,253.521746 L239.217315,150.391289 C239.217315,133.173918 232.260833,123.782635 218.347867,121.695629 L218.347867,89.6956852 C218.347867,32.1304674 182.695601,5 144.608682,5 Z M96.9565232,85.8695889 C96.9565232,49.1739424 118.347821,29.8695643 144.608682,29.8695643 C170.869555,29.8695643 192.260903,49.1739424 192.260903,85.8695889 L192.260903,121.347836 L96.9565232,121.695629 L96.9565232,85.8695889 Z"/>
</svg>
