<svg xmlns="http://www.w3.org/2000/svg" width="290" height="290" viewBox="0 0 290 290">
  <path fill-rule="evenodd" d="M145.135569,5 C106.281336,5 72.7740303,32.8039776 72.7740303,85.0254952 L72.7740303,119.424008 C56.1985984,119.958649 48,128.513661 48,147.406073 L48,256.126677 C48,275.732019 56.7332898,284.287078 74.5563307,284.287078 L215.536594,284.287078 C233.359598,284.287078 242.09295,275.732019 242.09295,256.126677 L242.09295,147.22786 C242.09295,128.513661 234.072579,119.780436 217.49707,119.245668 L217.49707,85.0254952 C217.49707,32.8039776 183.811538,5 145.135569,5 Z M85.4283848,84.3125144 C85.4283848,42.2501838 111.806477,16.9414495 145.135569,16.9414495 C178.464624,16.9414495 204.842766,42.2501838 204.842766,84.3125144 L204.842766,119.245668 L85.4283848,119.245668 L85.4283848,84.3125144 Z"/>
</svg>
