<svg xmlns="http://www.w3.org/2000/svg" width="290" height="290" viewBox="0 0 290 290">
  <path fill-rule="nonzero" d="M189.423077,278 C194.134615,278 198.846154,276.786619 202.884615,274.494678 L273.288462,234.453117 C281.365385,230.004055 285,223.532691 285,214.499747 L285,32.897111 C285,22.9204257 279.480769,17.3928028 269.788462,17.3928028 C266.423077,17.3928028 262.923077,18.4713634 258.480769,20.8981247 L187.134615,60.6700456 L114.038462,15.774962 C109.865385,13.3482007 105.153846,12 100.442308,12 C95.5961538,12 90.75,13.3482007 86.5769231,15.774962 L16.5769231,55.681703 C8.63461538,60.2655854 5,66.7369488 5,75.7698936 L5,257.102889 C5,267.079574 10.5192308,272.742017 20.2115385,272.742017 C23.5769231,272.742017 27.0769231,271.528637 31.3846154,269.101875 L99.9038462,232.161176 L174.346154,273.955398 C179.192308,276.651799 184.442308,278 189.423077,278 Z M28.4230769,244.834263 C27.3461538,244.834263 26.6730769,244.025342 26.6730769,242.677141 L26.6730769,81.0278763 C26.6730769,77.7921946 27.8846154,75.5002534 31.1153846,73.6127724 L86.3076923,41.2559554 C88.0576923,40.3122149 89.5384615,39.5032945 91.1538462,38.559554 L91.1538462,210.724785 L30.4423077,244.160162 C29.7692308,244.429802 29.0961538,244.834263 28.4230769,244.834263 Z M177.173077,249.013685 C175.288462,247.935124 173.269231,246.991384 171.25,245.912823 L112.826923,212.881906 L112.826923,41.3907755 C114.173077,42.1996959 115.788462,43.0086163 117.134615,43.8175367 L177.173077,80.488596 L177.173077,249.013685 Z M198.846154,251.440446 L198.846154,79.1403953 L259.557692,45.9746579 C260.230769,45.5701977 260.903846,45.3005575 261.442308,45.3005575 C262.653846,45.3005575 263.326923,46.109478 263.326923,47.4576787 L263.326923,209.106944 C263.326923,212.477446 261.980769,214.769387 258.884615,216.656868 L204.903846,248.069944 C202.884615,249.283325 200.865385,250.496706 198.846154,251.440446 Z" />
</svg>