<svg xmlns="http://www.w3.org/2000/svg" width="290" height="290" viewBox="0 0 290 290">
  <path fill-rule="nonzero" d="M181.795995,261.914894 C187.795764,261.914894 192.659574,267.082675 192.659574,273.457447 C192.659574,279.528658 188.247955,284.505093 182.644975,284.965273 L181.795995,285 L108.204005,285 C102.204219,285 97.3404255,279.832222 97.3404255,273.457447 C97.3404255,267.386232 101.752029,262.4098 107.355023,261.949621 L108.204005,261.914894 L181.795995,261.914894 Z M30.211193,214.604657 L30.3617128,215.494732 C30.531988,216.806922 31.1128557,219.217373 32.0098704,221.967611 C33.8387736,227.575009 36.4859513,232.879028 39.9199798,237.655507 C47.8981058,248.752456 59.2368179,255.8845 74.4376504,258.810491 C80.6975163,260.01544 84.7953347,266.066859 83.5903839,272.326723 C82.3854337,278.586585 76.3340022,282.684402 70.0741471,281.47945 C49.0799214,277.438309 32.6052671,267.02808 21.176278,251.131252 C16.3239982,244.38211 12.6184298,236.961938 10.0626336,229.125898 C9.44473162,227.231423 8.92249694,225.413607 8.49524572,223.689238 L8.09963032,221.996639 L7.84119958,220.730606 L7.46855201,218.465469 C6.64820614,212.143702 11.1079912,206.35387 17.4297596,205.533519 C23.4504982,204.752231 28.9887435,208.760187 30.211193,214.604657 Z M270.000879,205.437964 L271.338399,205.533521 C276.857729,206.24976 281.015513,210.778923 281.358985,216.507623 L281.380492,217.473065 L281.268494,218.675682 L280.879848,220.980672 L280.6012,222.302364 C280.133525,224.391 279.498198,226.695473 278.70548,229.125933 C276.149627,236.961964 272.444047,244.382118 267.591792,251.131252 C257.056958,265.784381 242.226573,275.784406 223.442689,280.435812 L221.074138,280.989329 L218.77059,281.464168 L218.167216,281.556614 L217.164467,281.658014 L216.102097,281.670223 L214.601985,281.529897 C209.885189,280.738181 206.096355,277.099835 205.177759,272.326807 C203.972715,266.066939 208.070522,260.015462 214.330387,258.810491 C229.531283,255.884501 240.869976,248.75247 248.848112,237.655462 C252.282176,232.879041 254.929345,227.575066 256.758235,221.967675 L257.370223,219.980551 C257.82836,218.397451 258.153793,217.021134 258.323464,216.036758 L258.406391,215.494647 C259.162495,209.668628 264.16687,205.359698 270.000879,205.437964 Z M183.023214,52.4587885 C199.317385,52.4587885 207.017825,53.9458213 215.014541,58.2224314 C221.671102,61.7824362 227.035759,66.9088966 230.911418,73.4571154 L231.849197,75.1237058 L233.101965,77.6453578 L234.037985,79.8404214 C236.226161,85.4476293 237.261376,91.9932906 237.491565,102.316163 L237.526972,104.431941 L237.541212,183.023257 C237.541212,199.317393 236.054179,207.01782 231.77757,215.014533 C228.217563,221.67111 223.091096,227.035764 216.542883,230.911393 L214.876294,231.849164 L212.354642,233.101931 L210.159607,234.03794 C204.552479,236.226118 198.00687,237.261331 187.683863,237.491577 L185.568055,237.526997 L106.976743,237.541178 C90.6824849,237.541178 82.9820654,236.054159 74.9854859,231.777547 C68.3288999,228.217566 62.9642381,223.091104 59.0886118,216.542889 L58.1508408,214.876299 L56.9732814,212.523133 C54.0825894,206.308067 52.7917756,199.527584 52.5153946,187.982578 L52.4770328,185.89491 L52.458822,106.976786 C52.458822,90.6824932 53.9458406,82.9820607 58.2224546,74.9854781 C61.7824332,68.3289077 66.9088883,62.9642435 73.4571094,59.0885866 L75.123701,58.1508073 L77.4769086,56.9732286 C83.6920466,54.0825613 90.4725557,52.7917326 102.017444,52.5153595 L104.10509,52.4769993 L183.023214,52.4587885 Z M182.968302,73.7726837 L104.308593,73.7897804 L101.133533,73.8591626 C94.6665375,74.0641584 90.8047889,74.6275756 88.0913255,75.6094117 L87.4848622,75.843444 L86.8675325,76.1051773 L85.0371892,77.0175632 C81.5402376,78.8877476 78.8876814,81.5402817 77.017537,85.0371588 C74.9584963,88.8872357 74.1185302,92.6599753 73.8606413,100.765195 L73.816636,102.445312 L73.7729429,106.973243 L73.7898239,185.691407 L73.8592061,188.866484 C74.0642025,195.33351 74.6276244,199.195254 75.6095332,201.908842 L75.843584,202.515337 L76.1052333,203.132551 L77.0175388,204.962811 C78.8877023,208.459724 81.5402763,211.112298 85.0371969,212.982465 C88.8873125,215.041531 92.6601314,215.881473 100.76645,216.139359 L102.4468,216.183364 L106.976743,216.227057 L183.023214,216.227057 C193.099546,216.227057 198.448777,215.644745 201.915391,214.388043 L202.508182,214.159252 L203.132587,213.894751 L204.962845,212.982461 C208.459718,211.112319 211.112252,208.459762 212.982463,204.962763 C215.041534,201.112708 215.881466,197.339926 216.139337,189.23355 L216.18334,187.553187 L216.227042,183.023257 L216.227042,106.976786 C216.227042,96.9004377 215.644742,91.5511938 214.388133,88.0847289 L214.15936,87.4919653 L213.894807,86.8674968 L212.982437,85.0371552 C211.112273,81.540243 208.459757,78.8877267 204.9628,77.0175394 C201.112742,74.9584706 197.339938,74.118535 189.233566,73.8606627 L187.553204,73.8166604 L182.968302,73.7726837 Z M16.5425532,97.3404255 C22.6137642,97.3404255 27.5901998,101.752045 28.0503791,107.355025 L28.0851064,108.204005 L28.0851064,181.795995 C28.0851064,187.795781 22.9173287,192.659574 16.5425532,192.659574 C10.4713383,192.659574 5.49490626,188.247971 5.03472727,182.644977 L5,181.795995 L5,108.204005 C5,102.204236 10.1677816,97.3404255 16.5425532,97.3404255 Z M273.457447,97.3404255 C279.528637,97.3404255 284.505092,101.75205 284.965273,107.355026 L285,108.204005 L285,181.795995 C285,187.795777 279.8322,192.659574 273.457447,192.659574 C267.386253,192.659574 262.409802,188.247967 261.949621,182.644977 L261.914894,181.795995 L261.914894,108.204005 C261.914894,102.204241 267.082698,97.3404255 273.457447,97.3404255 Z M83.5903803,16.3897285 C84.7953174,22.6496489 80.6975562,28.70098 74.4376373,29.9060315 C59.2367935,32.8319756 47.8980962,39.9639903 39.9199914,51.0609409 C36.485978,55.8374184 33.8387863,61.1414677 32.0098685,66.7488373 C31.2249712,69.1553163 30.6821405,71.3016111 30.4446253,72.6797228 L30.3617103,73.2218296 C29.541343,79.5435707 23.7514512,84.0033464 17.4298873,83.1829285 C11.3954009,82.3999883 7.05749428,77.0889585 7.4161336,70.9266112 L7.49964102,70.0408819 L7.87189022,67.8164356 C8.34669243,65.3948383 9.08470184,62.5888856 10.062633,59.5905688 C12.6184255,51.7545529 16.3239907,44.3343991 21.1762731,37.5852415 C32.6052192,21.6884233 49.0798493,11.278215 70.0742692,7.23696911 C76.3340683,6.03216718 82.3854277,10.1299595 83.5903803,16.3897285 Z M216.102624,7.04626502 L217.163963,7.058464 L218.693926,7.23699531 C239.688251,11.2782072 256.162829,21.6883924 267.591802,37.585248 C272.444055,44.3343912 276.149631,51.754526 278.705487,59.5905533 C279.300032,61.4134004 279.806042,63.1653931 280.226039,64.8401893 L280.61746,66.4890181 L280.926907,67.985826 L281.299611,70.2511601 C282.119813,76.5729298 277.660011,82.3626977 271.338456,83.1829023 C265.317714,83.9642685 259.779466,79.9563771 258.556919,74.1119085 L258.406383,73.2218326 C258.236081,71.909494 257.655229,69.4990378 256.758261,66.7488438 C254.929332,61.1414107 252.28215,55.8374052 248.848069,51.0609416 C240.869985,39.9639772 229.531307,32.8319746 214.330283,29.9060091 C208.070483,28.700958 203.972732,22.6495694 205.177713,16.3899013 C206.035117,11.9349478 209.392686,8.46861623 214.097339,7.33016834 L215.125677,7.12233416 L216.102624,7.04626502 Z M181.795995,5 C187.795759,5 192.659574,10.1678036 192.659574,16.5425532 C192.659574,22.6137433 188.24795,27.5901977 182.644974,28.0503789 L181.795995,28.0851064 L108.204005,28.0851064 C102.204223,28.0851064 97.3404255,22.9173068 97.3404255,16.5425532 C97.3404255,10.4713593 101.752033,5.49490825 107.355023,5.03472741 L108.204005,5 L181.795995,5 Z" />
</svg>