<svg xmlns="http://www.w3.org/2000/svg" width="290" height="290" viewBox="0 0 290 290">
  <path fill-rule="nonzero" d="M58.5802469,275 C75.2469136,275 109.320988,258.186635 134.382716,240.384248 C220.432099,242.733174 285,193.158473 285,128.377566 C285,66.1928401 222.777778,16 145,16 C67.2222222,16 5,66.1928401 5,128.377566 C5,168.927446 30.9259259,204.903103 69.9382716,222.952745 C64.382716,233.831981 54.0123457,248.420048 48.4567901,255.714081 C41.9135802,264.244391 45.8641975,275 58.5802469,275 Z M70.8024691,253.365155 C77.7160494,244.834845 87.5925926,231.977566 91.7901235,223.941766 C95.2469136,217.636754 94.382716,211.949881 86.4814815,208.24105 C47.7160494,190.191408 25.4938272,161.386158 25.4938272,128.377566 C25.4938272,77.8138425 78.4567901,36.5221957 145,36.5221957 C211.666667,36.5221957 264.62963,77.8138425 264.62963,128.377566 C264.62963,179.064916 211.666667,220.356563 145,220.356563 C142.530864,220.356563 138.703704,220.232936 133.765432,220.109308 C128.580247,219.98568 124.62963,221.716468 119.938272,225.425298 C104.753086,236.428162 82.7777778,249.90358 71.5432099,254.477804 C70.5555556,254.848687 70.1851852,254.106921 70.8024691,253.365155 Z" />
</svg>