<svg xmlns="http://www.w3.org/2000/svg" width="290" height="290" viewBox="0 0 290 290">
  <path fill-rule="evenodd" d="M193.573044,21.947821 L259.385458,87.5626185 C281.12536,66.0204733 281.718209,39.3397423 261.757135,19.3786681 C241.993677,-0.582546071 215.312946,0.208059466 193.573044,21.947821 Z M184.481851,30.6437816 C170.449828,44.8735609 165.311242,61.0796439 168.671001,76.0998886 L27.3620463,224.32606 C24.0022585,227.883491 24.9904342,233.022007 29.7336669,237.567603 L14.12051,257.726378 C12.5394303,259.702724 12.5394303,262.271975 14.7134151,264.445965 L16.8873997,266.619941 C19.0613843,268.793931 21.4330034,268.596301 23.4093534,267.015216 L43.5681153,251.402052 C48.3113564,256.145293 53.4498722,256.935828 56.8096586,253.773672 L138.828183,175.510223 L138.630539,178.672379 L138.630539,276.501696 C138.630539,281.244936 142.3856,285 147.326486,285 C152.069727,285 156.022432,281.244936 156.022432,276.501696 L156.022432,178.672379 L155.231827,160.094703 L205.035914,112.464662 C220.056159,116.022037 236.262242,110.685975 250.294265,96.6538118 L184.481851,30.6437816 Z M37.8367084,228.476396 L173.414354,87.9579913 C175.588274,91.515366 178.355183,95.0727408 181.517325,98.4326393 C182.110174,99.0254884 182.110174,99.0254884 182.110174,99.0254884 C182.307931,99.2231048 182.307931,99.2231048 182.505547,99.4207211 C186.062922,102.78062 189.620297,105.547389 193.375428,107.721449 L52.8569671,243.496655 L37.8367084,228.476396 Z"/>
</svg>
