<svg xmlns="http://www.w3.org/2000/svg" width="290" height="290" viewBox="0 0 290 290">
  <path fill-rule="evenodd" d="M189.152967,22.0310806 L260.938922,93.8169045 C283.083684,71.6721423 283.821773,42.5148809 262.046186,20.9238163 C240.454991,-0.851901295 211.297729,-0.11368153 189.152967,22.0310806 Z M173.836182,37.3478657 C159.442139,51.7419087 154.090471,69.0887001 158.150353,85.3280964 L30.2643775,220.595668 C26.5735795,224.286466 27.1271985,230.560811 29.7107585,233.14437 L14.5785061,253.812811 C12.3640313,256.765441 12.3640313,260.640775 15.3166657,263.593405 L19.376537,267.653274 C22.3291702,270.605905 26.2045088,270.605905 29.1571394,268.391428 L49.8255797,253.259192 C52.4091266,255.842739 58.6834715,256.027274 62.3742695,252.705573 L133.606553,185.34861 L133.422017,190.700252 L133.422017,271.159524 C133.422017,278.910193 139.696362,285 147.447016,285 C155.197735,285 161.472015,278.910193 161.472015,271.159524 L161.472015,190.700252 L160.180228,160.251217 L197.641775,124.81965 C213.881302,128.879532 231.227963,123.527863 245.622137,109.13369 L173.836182,37.3478657 Z M47.7956388,225.02462 L166.639161,103.228455 C168.299992,105.812028 170.51452,108.211078 172.728918,110.240954 C174.758924,112.455482 177.157844,114.66988 179.556895,116.330842 L179.741417,116.330842 L57.9453171,235.174298 L47.7956388,225.02462 Z"/>
</svg>
