<svg xmlns="http://www.w3.org/2000/svg" width="290" height="290" viewBox="0 0 290 290">
  <path fill-rule="evenodd" d="M144.999951,285 C221.588272,285 285,221.588233 285,145.000049 C285,68.5490676 221.450932,5 144.862709,5 C68.4117673,5 5,68.5490676 5,145.000049 C5,221.588233 68.549019,285 144.999951,285 Z M75.2745083,164.490161 C64.8431353,164.490161 56.0588218,155.568654 56.0588218,145.137291 C56.0588218,134.705927 64.7058836,125.921565 75.2745083,125.921565 C85.8431329,125.921565 94.6274465,134.843169 94.6274465,145.137291 C94.6274465,155.568654 85.7058812,164.490161 75.2745083,164.490161 Z M144.862709,164.490161 C134.431346,164.490161 125.509839,155.568654 125.509839,145.137291 C125.509839,134.705927 134.294104,125.921565 144.862709,125.921565 C155.294073,125.921565 164.215677,134.843169 164.215677,145.137291 C164.215677,155.568654 155.294073,164.490161 144.862709,164.490161 Z M214.451008,164.490161 C204.019645,164.490161 195.09804,155.568654 195.09804,145.137291 C195.09804,134.705927 203.882305,125.921565 214.451008,125.921565 C225.019613,125.921565 233.666636,134.843169 233.666636,145.137291 C233.666636,155.568654 224.882371,164.490161 214.451008,164.490161 Z"/>
</svg>
