<svg xmlns="http://www.w3.org/2000/svg" width="290" height="290" viewBox="0 0 290 290">
  <path fill-rule="evenodd" d="M61.4545334 30.5454077C61.4545334 13.6363657 47.8181677 8.70414851e-13 30.5454463 8.70414851e-13 13.6363657 8.70414851e-13 4.97379915e-14 13.6363657 4.97379915e-14 30.5454077 4.97379915e-14 47.454527 13.6363657 60.9090659 30.5454463 60.9090659 47.8181677 60.9090659 61.4545334 47.454527 61.4545334 30.5454077zM170.363542 30.5454077C170.363542 13.6363657 156.909106 8.70414851e-13 139.999936 8.70414851e-13 123.090881 8.70414851e-13 109.636342 13.6363657 109.636342 30.5454077 109.636342 47.454527 123.090881 60.9090659 139.999936 60.9090659 156.909106 60.9090659 170.363542 47.454527 170.363542 30.5454077zM280 30.5454077C280 13.6363657 266.363634 8.70414851e-13 249.454463 8.70414851e-13 232.181819 8.70414851e-13 218.545454 13.6363657 218.545454 30.5454077 218.545454 47.454527 232.181819 60.9090659 249.454463 60.9090659 266.363634 60.9090659 280 47.454527 280 30.5454077z" transform="translate(5 115)"/>
</svg>
