<svg xmlns="http://www.w3.org/2000/svg" width="290" height="290" viewBox="0 0 290 290">
  <path fill-rule="evenodd" d="M55.2023994 27.7060704C55.2023994 12.3838336 42.8185955-2.84217094e-13 27.4962546-2.84217094e-13 12.3838098-2.84217094e-13-5.68434189e-14 12.3838336-5.68434189e-14 27.7060704-5.68434189e-14 43.0284709 12.3838098 55.2023846 27.4962546 55.2023846 42.8185955 55.2023846 55.2023994 43.0284709 55.2023994 27.7060704zM167.496269 27.7060704C167.496269 12.3838336 155.112436-2.84217094e-13 140.000015-2.84217094e-13 124.887564-2.84217094e-13 112.50376 12.3838336 112.50376 27.7060704 112.50376 43.0284709 124.887564 55.2023846 140.000015 55.2023846 155.112436 55.2023846 167.496269 43.0284709 167.496269 27.7060704zM280 27.7060704C280 12.3838336 267.616166-2.84217094e-13 252.503805-2.84217094e-13 237.181419-2.84217094e-13 224.797586 12.3838336 224.797586 27.7060704 224.797586 43.0284709 237.181419 55.2023846 252.503805 55.2023846 267.616166 55.2023846 280 43.0284709 280 27.7060704z" transform="translate(5 117)"/>
</svg>
