<svg xmlns="http://www.w3.org/2000/svg" width="290" height="290" viewBox="0 0 290 290">
  <path fill="#333" d="M151.479734,261.541267 L246.772703,166.248297 C251.13335,162.015904 251.005096,154.19239 246.644449,149.959997 C242.412056,145.471095 235.358067,146.112367 230.869166,150.34476 L136.217468,244.996458 C112.105654,269.236527 79.7855617,266.799694 59.1366141,246.022492 C38.2311579,225.24529 35.9225799,193.053453 60.1626488,168.813384 L189.571271,39.4047623 C203.679247,25.2967857 224.841212,22.731699 238.564426,36.583167 C252.415894,50.4346349 249.850807,71.3400911 235.74283,85.5763221 L108.771041,212.676366 C102.999596,218.447811 96.2021163,216.780504 92.226232,212.932875 C88.378602,208.828736 86.7112957,202.159511 92.4827406,196.259811 L180.97823,107.764322 C185.467132,103.27542 185.723641,96.734449 181.491248,92.3738017 C177.1306,88.2696631 170.589629,88.3979174 166.100728,92.886819 L77.0922207,181.767072 C63.4972614,195.61854 64.0102788,216.65225 76.1944404,228.836412 C89.4046367,242.046608 109.412313,241.790099 123.263781,227.938631 L250.876842,100.32557 C275.629928,75.5724841 274.732147,42.9958836 253.057165,21.192647 C231.766946,0.0306821294 198.677328,-1.50836986 173.795988,23.2447164 L43.6178399,153.679373 C11.1694937,186.127719 13.3498173,232.684042 42.8483139,262.182538 C72.3468104,291.552781 119.031388,293.861358 151.479734,261.541267 Z"/>
</svg>
