<svg xmlns="http://www.w3.org/2000/svg" width="290" height="290" viewBox="0 0 290 290">
  <path fill-rule="evenodd" d="M145.000061,285 C222.017092,285 285,222.000006 285,145 C285,67.999994 222.017092,5 145.000061,5 C67.9828958,5 5,67.999994 5,145 C5,222.000006 67.9828958,285 145.000061,285 Z M145.000061,259.048781 C80.9902331,259.048781 32.04157,208.341474 32.04157,145 C32.04157,81.6585748 80.9902331,30.9511947 145.000061,30.9511947 C209.009767,30.9511947 257.95843,81.6585748 257.95843,145 C257.95843,208.341474 209.009767,259.048781 145.000061,259.048781 Z M97.9339946,183.073178 C97.9339946,190.243911 102.383879,195.70732 110.256739,195.70732 L118.814192,195.70732 C126.00246,195.70732 130.452295,190.243911 130.452295,183.073178 L130.452295,108.292753 C130.452295,101.121971 126.00246,95.6585869 118.814192,95.6585869 L110.256739,95.6585869 C102.383879,95.6585869 97.9339946,101.121971 97.9339946,108.292753 L97.9339946,183.073178 Z M159.547705,183.073178 C159.547705,190.243911 163.997528,195.70732 171.870376,195.70732 L180.427878,195.70732 C187.616194,195.70732 192.066018,190.243911 192.066018,183.073178 L192.066018,108.292753 C192.066018,101.121971 187.616194,95.6585869 180.427878,95.6585869 L171.870376,95.6585869 C163.997528,95.6585869 159.547705,101.121971 159.547705,108.292753 L159.547705,183.073178 Z"/>
</svg>
