<svg xmlns="http://www.w3.org/2000/svg" width="290" height="290" viewBox="0 0 290 290">
  <path fill-rule="evenodd" d="M144.911569,285 C222.030982,285 285,221.97353 285,145.000063 C285,68.0265449 222.030982,5 144.911569,5 C67.9690553,5 5,68.0265449 5,145.000063 C5,221.97353 67.9690553,285 144.911569,285 Z M96.4466348,186.311497 L96.4466348,105.100954 C96.4466348,97.3329656 101.399255,91.3303839 109.889467,91.3303839 L116.434002,91.3303839 C124.216688,91.3303839 129.169308,97.3329656 129.169308,105.100954 L129.169308,186.311497 C129.169308,194.07946 124.216688,200.081979 116.434002,200.081979 L109.889467,200.081979 C101.399255,200.081979 96.4466348,194.07946 96.4466348,186.311497 Z M160.653854,186.311497 L160.653854,105.100954 C160.653854,97.3329656 165.606512,91.3303839 174.096674,91.3303839 L180.641221,91.3303839 C188.423933,91.3303839 193.376465,97.3329656 193.376465,105.100954 L193.376465,186.311497 C193.376465,194.07946 188.423933,200.081979 180.641221,200.081979 L174.096674,200.081979 C165.606512,200.081979 160.653854,194.07946 160.653854,186.311497 Z"/>
</svg>
