<?xml version="1.0" encoding="utf-8"?>
<!-- Generator: Adobe Illustrator 22.0.1, SVG Export Plug-In . SVG Version: 6.00 Build 0)  -->
<svg version="1.1" id="Layer_1" xmlns="http://www.w3.org/2000/svg" xmlns:xlink="http://www.w3.org/1999/xlink" x="0px" y="0px"
	 viewBox="0 0 290 290" style="enable-background:new 0 0 290 290;" xml:space="preserve">
<path d="M145,5C67.7,5,5,67.7,5,145s62.7,140,140,140s140-62.7,140-140S222.3,5,145,5z M138,186.4c0,5.3-3,8.8-9.7,8.8h-12.3
	c-6.6,0-9.7-3.6-9.7-8.8v-82.7c0-5.3,3.1-8.8,9.7-8.8h12.3c6.6,0,9.7,3.5,9.7,8.8V186.4z M183.6,186.4c0,5.3-3,8.8-9.7,8.8h-12.3
	c-6.6,0-9.7-3.5-9.7-8.8v-82.7c0-5.3,3.1-8.8,9.7-8.8H174c6.6,0,9.7,3.6,9.7,8.8V186.4z"/>
</svg>
