<svg xmlns="http://www.w3.org/2000/svg" width="290" height="290" viewBox="0 0 290 290">
  <path fill-rule="evenodd" d="M144.911569,285 C222.030982,285 285,221.97353 285,145.000063 C285,68.0265449 222.030982,5 144.911569,5 C67.9690553,5 5,68.0265449 5,145.000063 C5,221.97353 67.9690553,285 144.911569,285 Z M144.911569,272.112234 C74.6904652,272.112234 18.0890693,215.264823 18.0890693,145.000063 C18.0890693,74.7352391 74.6904652,17.887804 144.911569,17.887804 C215.309572,17.887804 271.734043,74.7352391 271.734043,145.000063 C271.734043,215.264823 215.309572,272.112234 144.911569,272.112234 Z M98.7460631,184.3695 C98.7460631,191.784381 103.34492,197.433807 111.481382,197.433807 L117.849029,197.433807 C125.277965,197.433807 129.876834,191.784381 129.876834,184.3695 L129.876834,107.042888 C129.876834,99.6280814 125.277965,93.978556 117.849029,93.978556 L111.481382,93.978556 C103.34492,93.978556 98.7460631,99.6280814 98.7460631,107.042888 L98.7460631,184.3695 Z M159.946278,184.3695 C159.946278,191.784381 164.54521,197.433807 172.681647,197.433807 L178.872469,197.433807 C186.30133,197.433807 190.900262,191.784381 190.900262,184.3695 L190.900262,107.042888 C190.900262,99.6280814 186.30133,93.978556 178.872469,93.978556 L172.681647,93.978556 C164.54521,93.978556 159.946278,99.6280814 159.946278,107.042888 L159.946278,184.3695 Z"/>
</svg>
