<svg xmlns="http://www.w3.org/2000/svg" width="290" height="290" viewBox="0 0 290 290">
  <path fill-rule="evenodd" d="M145.000061,285 C222.017092,285 285,222.000006 285,145 C285,67.999994 222.017092,5 145.000061,5 C67.9828958,5 5,67.999994 5,145 C5,222.000006 67.9828958,285 145.000061,285 Z M95.5379135,184.951231 L95.5379135,106.414639 C95.5379135,98.9024257 100.330088,93.0976106 108.545251,93.0976106 L117.445007,93.0976106 C124.975565,93.0976106 129.767763,98.9024257 129.767763,106.414639 L129.767763,184.951231 C129.767763,192.46342 124.975565,198.268296 117.445007,198.268296 L108.545251,198.268296 C100.330088,198.268296 95.5379135,192.46342 95.5379135,184.951231 Z M160.232237,184.951231 L160.232237,106.414639 C160.232237,98.9024257 165.024448,93.0976106 173.239683,93.0976106 L182.13933,93.0976106 C189.669912,93.0976106 194.462123,98.9024257 194.462123,106.414639 L194.462123,184.951231 C194.462123,192.46342 189.669912,198.268296 182.13933,198.268296 L173.239683,198.268296 C165.024448,198.268296 160.232237,192.46342 160.232237,184.951231 Z"/>
</svg>
