<svg xmlns="http://www.w3.org/2000/svg" width="290" height="290" viewBox="0 0 290 290">
  <path d="M26.2257515,70.8525126 L41.8442551,86.463876 C31.9988188,103.745827 26.3706114,123.728194 26.3706114,145 C26.3706114,210.410942 79.5890576,263.629388 145,263.629388 C166.295516,263.629388 186.298717,257.988627 203.593902,248.122807 L219.213901,263.734236 C197.69922,277.209844 172.259685,285 145,285 C67.6777537,285 5,222.322246 5,145 C5,117.769287 12.7747368,92.353726 26.2257515,70.8525126 Z M38.4730465,23.52628 L266.516245,251.575079 C270.621045,255.674279 270.621045,262.371879 266.516245,266.476679 C262.417045,270.575879 255.713848,270.575879 251.609045,266.476679 L23.4314464,38.42788 C19.4610464,34.59748 19.3322464,27.49108 23.4314464,23.52628 C27.3906465,19.56148 34.2282465,19.28708 38.4730465,23.52628 Z M145,5 C222.322246,5 285,67.6833775 285,145 C285,172.243875 277.218877,197.669712 263.757677,219.176465 L248.142187,203.559917 C257.996013,186.272515 263.629388,166.281569 263.629388,145 C263.629388,79.5890576 210.410942,26.3706113 145,26.3706113 C123.719826,26.3706113 103.730105,32.0032478 86.4434814,41.8558764 L70.8303427,26.2394194 C92.3356532,12.780179 117.758999,5 145,5 Z M111.094005,155.675475 L166.446765,210.997623 L79.7545074,211 C75.1607892,211 72.9999999,208.074502 72.9999999,203.820205 C72.9999999,192.63228 85.2915942,168.059249 111.094005,155.675475 Z M144.999456,58.9999999 C164.860211,58.9999999 180.796712,76.151136 180.796712,96.768934 C180.796712,108.18675 176.53337,118.145374 169.668797,125.081229 L117.385008,72.798556 C123.936712,64.4069271 133.851236,58.9999999 144.999456,58.9999999 Z"/>
</svg>
