<svg xmlns="http://www.w3.org/2000/svg" width="290" height="290" viewBox="0 0 290 290">
  <path d="M145,285 C221.588235,285 285,221.45098 285,145 C285,68.4117647 221.45098,5 144.862745,5 C68.4117647,5 5,68.4117647 5,145 C5,221.45098 68.5490196,285 145,285 Z M145,261.666667 C80.2156863,261.666667 28.4705882,209.784314 28.4705882,145 C28.4705882,80.2156863 80.0784314,28.3333333 144.862745,28.3333333 C209.647059,28.3333333 261.529412,80.2156863 261.666938,145 C261.803922,209.784314 209.784314,261.666667 145,261.666667 Z M144.862745,140.745098 C164.352941,140.882353 180.137255,124.27451 180.137255,102.313725 C180.137255,81.7254902 164.352941,64.5686275 144.862745,64.5686275 C125.372549,64.5686275 109.588235,81.7254902 109.588235,102.313725 C109.588235,124.27451 125.372549,140.607843 144.862745,140.745098 Z M207.588235,214.588235 C213.078431,214.588235 215.686275,211.019608 215.686275,205.941176 C215.686275,190.980392 193.039216,152 144.862745,152 C96.6862745,152 74.0392157,190.980392 74.0392157,205.941176 C74.0392157,211.019608 76.6470588,214.588235 82.1372549,214.588235 L207.588235,214.588235 Z"/>
</svg>
