<svg xmlns="http://www.w3.org/2000/svg" width="290" height="290" viewBox="0 0 290 290">
  <path d="M273.396155,194.004981 C280.846551,194.004981 285,198.154171 285,205.737578 L285,240.648206 C285,270.120348 270.105072,285.000001 240.027761,285.000001 L205.081292,285.000001 C197.4901,285.000001 193.336651,280.85081 193.336651,273.554565 C193.336651,266.111808 197.4901,261.962618 205.081292,261.962618 L239.740304,261.962618 C253.77873,261.962618 261.938969,254.385072 261.938969,239.499561 L261.938969,205.737578 C261.938969,198.154171 265.951621,194.004981 273.396155,194.004981 Z M16.4571854,194.004981 C23.9017159,194.004981 28.0551655,198.154171 28.0551655,205.737578 L28.0551655,239.499561 C28.0551655,254.385072 35.9338138,261.962618 50.2538288,261.962618 L84.9187077,261.962618 C92.5098997,261.962618 96.6633492,266.111808 96.6633492,273.554565 C96.6633492,280.85081 92.5098997,285.000001 84.9187077,285.000001 L49.9722393,285.000001 C20.0357225,285.000001 5,270.260999 5,240.648206 L5,205.737578 C5,198.154171 9.0067883,194.004981 16.4571854,194.004981 Z M145.002886,154.789796 C197.008783,154.789796 221.363636,197.530031 221.363636,213.748703 C221.363636,218.260835 219.07189,221.363636 214.199765,221.363636 L75.8002351,221.363636 C70.9281098,221.363636 68.6363638,218.260835 68.6363638,213.748703 C68.6363638,197.530031 92.9912171,154.789796 145.002886,154.789796 Z M144.999423,60.1515152 C166.06386,60.1515152 182.96621,78.3421139 182.96621,100.209475 C182.96621,123.622555 166.06386,141.250557 144.999423,141.108488 C123.940758,140.972101 107.032636,123.622555 107.032636,100.209475 C107.032636,78.3421139 123.940758,60.1515152 144.999423,60.1515152 Z M240.027761,5 C270.105072,5 285,19.7331408 285,49.2111432 L285,84.2624218 C285,91.7051781 280.987345,95.9950186 273.396155,95.9950186 C266.092418,95.9950186 261.938969,91.7051781 261.938969,84.2624218 L261.938969,50.4945791 C261.938969,35.6149273 253.77873,28.0315208 239.740304,28.0315208 L205.081292,28.0315208 C197.4901,28.0315208 193.336651,23.8823308 193.336651,16.4454351 C193.336651,9.00267907 197.4901,5 205.081292,5 L240.027761,5 Z M84.9187077,5 C92.5098997,5 96.6633492,9.00267907 96.6633492,16.4454351 C96.6633492,23.8823308 92.5098997,28.0315208 84.9187077,28.0315208 L50.2538288,28.0315208 C35.9338138,28.0315208 28.0551655,35.6149273 28.0551655,50.4945791 L28.0551655,84.2624218 C28.0551655,91.7051781 24.0483773,95.9950186 16.4571854,95.9950186 C9.15344968,95.9950186 5,91.7051781 5,84.2624218 L5,49.2111432 C5,19.7331408 20.0357225,5 49.9722393,5 L84.9187077,5 Z"/>
</svg>
