<svg xmlns="http://www.w3.org/2000/svg" width="290" height="290" viewBox="0 0 290 290">
  <path d="M247.715813,36 C272.650467,36 285,48.3495325 285,72.8130065 L285,217.800318 C285,242.263792 272.650467,254.613325 247.715813,254.613325 L42.2841886,254.613325 C17.4673281,254.613325 5,242.381588 5,217.800318 L5,72.8130065 C5,48.231737 17.4673281,36 42.2841886,36 L247.715813,36 Z M92.0129061,154.365519 C61.135275,154.365519 41.9004031,175.572517 41.9004031,190.969534 C41.9004031,196.198136 45.2442765,198.873235 54.5995224,198.873235 L129.42629,198.873235 C138.868932,198.873235 142.190007,196.198136 142.190007,190.969534 C142.190007,175.572517 122.951335,154.365519 92.0129061,154.365519 Z M240.461888,182.442657 L171.4261,182.442657 C167.21206,182.442657 163.913784,185.759931 163.913784,189.970172 C163.913784,194.267809 167.21206,197.67248 171.4261,197.67248 L240.461888,197.67248 C244.694926,197.67248 248.099599,194.267809 248.099599,189.970172 C248.099599,185.759931 244.694926,182.442657 240.461888,182.442657 Z M240.461888,138.634115 L171.4261,138.634115 C167.21206,138.634115 163.913784,142.038786 163.913784,146.355423 C163.913784,150.565663 167.21206,153.863938 171.4261,153.863938 L240.461888,153.863938 C244.694926,153.863938 248.099599,150.565663 248.099599,146.355423 C248.099599,142.038786 244.694926,138.634115 240.461888,138.634115 Z M92.0737038,91.74009 C79.3137868,91.74009 68.1726086,102.881268 68.2326694,117.491715 C68.2326694,132.265556 79.2529891,143.699323 92.0737038,143.699323 C104.837421,143.699323 115.857004,132.265556 115.857004,117.36632 C115.857004,102.653277 104.776623,91.74009 92.0737038,91.74009 Z M240.461888,95.0383652 L171.4261,95.0383652 C167.21206,95.0383652 163.913784,98.4430363 163.913784,102.653277 C163.913784,106.844518 167.21206,110.165593 171.4261,110.165593 L240.461888,110.165593 C244.694926,110.165593 248.099599,106.844518 248.099599,102.653277 C248.099599,98.4430363 244.694926,95.0383652 240.461888,95.0383652 Z"/>
</svg>
