<svg xmlns="http://www.w3.org/2000/svg" width="290" height="290" viewBox="0 0 290 290">
  <path fill="#333" d="M44.7684292,208.364338 L44.7684292,113.914319 C44.7684292,83.2234658 60.9783867,67.3377074 91.8853724,67.3377074 L230.426476,67.3377074 L230.426476,65.5005789 C230.426476,43.2389039 219.079506,32 196.601698,32 L38.9328445,32 C16.2389039,32 5,43.2389039 5,65.5005789 L5,174.863759 C5,197.125434 16.2389039,208.364338 38.9328445,208.364338 L44.7684292,208.364338 Z M251.175222,258.399074 C273.65303,258.399074 285,247.16017 285,224.898495 L285,115.535315 C285,93.2736395 273.65303,82.0347356 251.175222,82.0347356 L93.5063682,82.0347356 C70.8124276,82.0347356 59.5735237,93.1655731 59.5735237,115.535315 L59.5735237,224.898495 C59.5735237,247.16017 70.8124276,258.399074 93.5063682,258.399074 L251.175222,258.399074 Z M135.111926,168.379776 C121.495562,168.379776 110.47279,157.357005 110.47279,143.848707 C110.47279,130.448475 121.495562,119.317638 135.111926,119.317638 C148.512157,119.317638 159.534929,130.448475 159.534929,143.848707 C159.534929,157.357005 148.512157,168.379776 135.111926,168.379776 Z M252.255886,240.351988 L92.317638,240.351988 C82.6997298,240.351988 77.6206098,235.272868 77.6206098,225.546893 L77.6206098,216.68545 L95.7757623,200.259359 C105.177538,191.614049 110.688923,185.778464 118.145504,185.778464 C125.818217,185.778464 131.978001,191.830181 141.703975,200.259359 L151.538016,209.012736 L192.711308,171.729834 C202.437283,162.976457 207.624469,160.166731 214.648784,160.166731 C221.456966,160.166731 226.536086,163.084523 235.721729,172.270166 L267.06098,203.285218 L267.06098,225.546893 C267.06098,235.164801 261.873794,240.351988 252.255886,240.351988 Z"/>
</svg>
