<svg xmlns="http://www.w3.org/2000/svg" width="290" height="290" viewBox="0 0 290 290">
  <path fill="#333" d="M247.714165,254.608991 C272.650551,254.608991 285,242.259542 285,217.798134 L285,72.8108567 C285,48.3494487 272.650551,36 247.714165,36 L42.2858355,36 C17.4681934,36 5,48.230704 5,72.8108567 L5,217.798134 C5,242.378287 17.4681934,254.608991 42.2858355,254.608991 L247.714165,254.608991 Z M265.882103,204.854962 L202.234945,145.126378 C196.891433,140.37659 190.716709,137.764207 184.304495,137.764207 C177.773537,137.764207 171.955047,140.020356 166.492791,144.888889 L112.820187,192.861747 L90.8524173,173.031383 C85.8651399,168.519084 80.4028838,166.262935 74.821883,166.262935 C69.4783715,166.262935 64.4910941,168.400339 59.5038168,172.912638 L24.1178965,204.854962 L24.1178965,73.7608142 C24.1178965,61.4113656 30.648855,55.1178965 42.5233249,55.1178965 L247.476675,55.1178965 C259.2324,55.1178965 265.882103,61.4113656 265.882103,73.7608142 L265.882103,204.854962 Z M93.4648007,146.313825 C108.782867,146.313825 121.369805,133.726887 121.369805,118.290076 C121.369805,102.97201 108.782867,90.2663274 93.4648007,90.2663274 C78.0279898,90.2663274 65.4410517,102.97201 65.4410517,118.290076 C65.4410517,133.726887 78.0279898,146.313825 93.4648007,146.313825 Z"/>
</svg>
