<svg xmlns="http://www.w3.org/2000/svg" width="290" height="290" viewBox="0 0 290 290">
  <path fill-rule="evenodd" d="M144.911569,285 C222.030982,285 285,221.97353 285,145.000063 C285,68.0265449 222.030982,5 144.911569,5 C67.9690553,5 5,68.0265449 5,145.000063 C5,221.97353 67.9690553,285 144.911569,285 Z M144.911569,272.112234 C74.6904652,272.112234 18.0890693,215.264823 18.0890693,145.000063 C18.0890693,74.7352391 74.6904652,17.887804 144.911569,17.887804 C215.309572,17.887804 271.734043,74.7352391 271.734043,145.000063 C271.734043,215.264823 215.309572,272.112234 144.911569,272.112234 Z M121.563497,197.963441 L199.213561,151.355575 C204.166219,148.354347 203.989231,141.822181 199.213561,138.997481 L121.563497,92.0366215 C116.610877,89.0353932 110.596981,91.506912 110.596981,96.626728 L110.596981,193.196731 C110.596981,198.493075 116.434002,200.964707 121.563497,197.963441 Z"/>
</svg>
