<svg xmlns="http://www.w3.org/2000/svg" width="290" height="290" viewBox="0 0 290 290">
  <path fill-rule="evenodd" d="M145.000061,285 C222.017092,285 285,222.000006 285,145 C285,67.999994 222.017092,5 145.000061,5 C67.9828958,5 5,67.999994 5,145 C5,222.000006 67.9828958,285 145.000061,285 Z M145.000061,259.048781 C80.9902331,259.048781 32.04157,208.341474 32.04157,145 C32.04157,81.6585748 80.9902331,30.9511947 145.000061,30.9511947 C209.009767,30.9511947 257.95843,81.6585748 257.95843,145 C257.95843,208.341474 209.009767,259.048781 145.000061,259.048781 Z M124.290972,193.146343 L194.633256,152.000067 C200.281253,148.926822 199.938866,140.902462 194.633256,137.829339 L124.290972,96.6830016 C118.471902,93.0976106 110.770187,95.8293025 110.770187,102.317101 L110.770187,187.512207 C110.770187,194.000006 117.958454,196.90245 124.290972,193.146343 Z"/>
</svg>
