<svg xmlns="http://www.w3.org/2000/svg" width="290" height="290" viewBox="0 0 290 290">
  <path fill-rule="evenodd" d="M145.000061,285 C222.017092,285 285,222.000006 285,145 C285,67.999994 222.017092,5 145.000061,5 C67.9828958,5 5,67.999994 5,145 C5,222.000006 67.9828958,285 145.000061,285 Z M145.000061,259.048781 C80.9902331,259.048781 32.04157,208.341474 32.04157,145 C32.04157,81.6585748 80.9902331,30.9511947 145.000061,30.9511947 C209.009767,30.9511947 257.95843,81.6585748 257.95843,145 C257.95843,208.341474 209.009767,259.048781 145.000061,259.048781 Z M144.828928,208.170734 C153.386308,208.170734 158.349652,202.365858 158.349652,192.975616 L158.349652,158.146313 L196.344708,158.146313 C205.41573,158.146313 211.577005,153.536628 211.577005,145 C211.577005,136.292656 205.757996,131.512256 196.344708,131.512256 L158.349652,131.512256 L158.349652,93.4390418 C158.349652,84.0488355 153.386308,78.2438993 144.828928,78.2438993 C136.271426,78.2438993 131.650348,84.3902668 131.650348,93.4390418 L131.650348,131.512256 L93.8264131,131.512256 C84.4132096,131.512256 78.4229947,136.292656 78.4229947,145 C78.4229947,153.536628 84.7555121,158.146313 93.8264131,158.146313 L131.650348,158.146313 L131.650348,192.975616 C131.650348,202.024403 136.271426,208.170734 144.828928,208.170734 Z"/>
</svg>
