<?xml version="1.0" encoding="UTF-8"?>
<svg width="290px" height="290px" viewBox="0 0 290 290" version="1.1" xmlns="http://www.w3.org/2000/svg" xmlns:xlink="http://www.w3.org/1999/xlink">
    <!-- Generator: Sketch 53.1 (72631) - https://sketchapp.com -->
    <title>sfpro_reg_plus_circle_filled</title>
    <desc>Created with Sketch.</desc>
    <g id="sfpro_reg_plus_circle_filled" stroke="none" stroke-width="1" fill="none" fill-rule="evenodd">
        <path d="M145.000061,285 C222.017092,285 285,222.000006 285,145 C285,67.999994 222.017092,5 145.000061,5 C67.9828958,5 5,67.999994 5,145 C5,222.000006 67.9828958,285 145.000061,285 Z M144.828928,211.414645 C135.757905,211.414645 130.965816,204.926834 130.965816,195.536592 L130.965816,158.829296 L91.2591747,158.829296 C81.674826,158.829296 75.1711634,154.048775 75.1711634,145.170716 C75.1711634,135.951225 81.3325235,130.999988 91.2591747,130.999988 L130.965816,130.999988 L130.965816,90.8780655 C130.965816,81.4878592 135.757905,75.0000605 144.828928,75.0000605 C153.728574,75.0000605 159.034305,81.1463069 159.034305,90.8780655 L159.034305,130.999988 L198.911946,130.999988 C208.838634,130.999988 214.828897,135.951225 214.828897,145.170716 C214.828897,154.048775 208.496368,158.829296 198.911946,158.829296 L159.034305,158.829296 L159.034305,195.536592 C159.034305,205.268302 153.728574,211.414645 144.828928,211.414645 Z" id="Fill-1" fill="#000000"></path>
    </g>
</svg>