<svg xmlns="http://www.w3.org/2000/svg" width="290" height="290" viewBox="0 0 290 290">
  <path fill-rule="evenodd" d="M144.911569,285 C222.030982,285 285,221.97353 285,145.000063 C285,68.0265449 222.030982,5 144.911569,5 C67.9690553,5 5,68.0265449 5,145.000063 C5,221.97353 67.9690553,285 144.911569,285 Z M144.734706,213.852473 C140.666487,213.852473 138.190159,210.851208 138.190159,206.614132 L138.190159,151.885285 L82.4731642,151.885285 C78.2280579,151.885285 75.0442282,149.060585 75.0442282,145.176591 C75.0442282,140.93954 78.0511827,138.11484 82.4731642,138.11484 L138.190159,138.11484 L138.190159,82.5032271 C138.190159,78.2660518 140.666487,75.0882953 144.734706,75.0882953 C149.15665,75.0882953 151.809841,78.0895236 151.809841,82.5032271 L151.809841,138.11484 L207.526861,138.11484 C211.948805,138.11484 214.955847,140.93954 214.955847,145.176591 C214.955847,149.060585 211.771942,151.885285 207.526861,151.885285 L151.809841,151.885285 L151.809841,206.614132 C151.809841,210.851208 149.15665,213.852473 144.734706,213.852473 Z"/>
</svg>
