<svg xmlns="http://www.w3.org/2000/svg" width="290" height="290" viewBox="0 0 290 290">
  <path fill-rule="evenodd" d="M144.911569,285 C222.030982,285 285,221.97353 285,145.000063 C285,68.0265449 222.030982,5 144.911569,5 C67.9690553,5 5,68.0265449 5,145.000063 C5,221.97353 67.9690553,285 144.911569,285 Z M144.911569,272.112234 C74.6904652,272.112234 18.0890693,215.264823 18.0890693,145.000063 C18.0890693,74.7352391 74.6904652,17.887804 144.911569,17.887804 C215.309572,17.887804 271.734043,74.7352391 271.734043,145.000063 C271.734043,215.264823 215.309572,272.112234 144.911569,272.112234 Z M144.734706,210.498126 C148.979787,210.498126 151.456116,207.673401 151.456116,203.612879 L151.456116,151.532229 L204.519944,151.532229 C208.588163,151.532229 211.595079,148.884057 211.595079,145.176591 C211.595079,141.116069 208.765025,138.467896 204.519944,138.467896 L151.456116,138.467896 L151.456116,85.5044554 C151.456116,81.2674052 148.979787,78.442705 144.734706,78.442705 C140.84335,78.442705 138.367021,81.2674052 138.367021,85.5044554 L138.367021,138.467896 L85.4801061,138.467896 C81.2349998,138.467896 78.4049332,141.116069 78.4049332,145.176591 C78.4049332,148.884057 81.4118876,151.532229 85.4801061,151.532229 L138.367021,151.532229 L138.367021,203.612879 C138.367021,207.673401 140.84335,210.498126 144.734706,210.498126 Z"/>
</svg>
