<svg xmlns="http://www.w3.org/2000/svg" width="290" height="290" viewBox="0 0 290 290">
  <path fill-rule="evenodd" d="M145.000061,285 C222.017092,285 285,222.000006 285,145 C285,67.999994 222.017092,5 145.000061,5 C67.9828958,5 5,67.999994 5,145 C5,222.000006 67.9828958,285 145.000061,285 Z M32.04157,145 C32.04157,81.6585748 80.9902331,30.9511947 145.000061,30.9511947 C209.009767,30.9511947 257.95843,81.6585748 257.95843,145 C257.95843,174.19513 247.518343,200.658545 230.061195,220.804888 C216.369216,204.926834 185.562355,190.926834 145.000061,190.926834 C104.437669,190.926834 73.6308203,204.926834 59.938878,220.804888 C42.4816689,200.658545 32.04157,174.19513 32.04157,145 Z M145.000061,168.390255 C170.843578,168.731722 191.210231,146.707277 191.210231,117.853675 C191.210231,90.7073498 170.843578,68.3414252 145.000061,68.3414252 C119.156495,68.3414252 98.6185874,90.7073498 98.7897448,117.853675 C98.7897448,146.707277 119.156495,168.048787 145.000061,168.390255 Z"/>
</svg>
