<svg xmlns="http://www.w3.org/2000/svg" width="290" height="290" viewBox="0 0 290 290">
  <path fill-rule="nonzero" d="M255.95057,132.452471 C275.26616,132.452471 285,122.718631 285,102.642586 L285,34.6577947 C285,14.581749 275.26616,5 255.95057,5 L186.749049,5 C167.281369,5 157.547529,14.581749 157.547529,34.6577947 L157.547529,102.642586 C157.547529,122.718631 167.281369,132.452471 186.749049,132.452471 L255.95057,132.452471 Z M103.403042,132.452471 C122.718631,132.452471 132.452471,122.718631 132.452471,102.642586 L132.452471,34.6577947 C132.452471,14.581749 122.718631,5 103.403042,5 L34.0494297,5 C14.7338403,5 5,14.581749 5,34.6577947 L5,102.642586 C5,122.718631 14.7338403,132.452471 34.0494297,132.452471 L103.403042,132.452471 Z M102.946768,111.007605 L34.3536122,111.007605 C29.0304183,111.007605 26.4448669,108.269962 26.4448669,102.642586 L26.4448669,34.6577947 C26.4448669,29.1825095 29.0304183,26.4448669 34.3536122,26.4448669 L102.946768,26.4448669 C108.269962,26.4448669 111.007605,29.1825095 111.007605,34.6577947 L111.007605,102.642586 C111.007605,108.269962 108.269962,111.007605 102.946768,111.007605 Z M255.646388,111.007605 L187.053232,111.007605 C181.577947,111.007605 178.992395,108.269962 178.992395,102.642586 L178.992395,34.6577947 C178.992395,29.1825095 181.577947,26.4448669 187.053232,26.4448669 L255.646388,26.4448669 C260.969582,26.4448669 263.555133,29.1825095 263.555133,34.6577947 L263.555133,102.642586 C263.555133,108.269962 260.969582,111.007605 255.646388,111.007605 Z M81.6539924,84.6958175 C83.78327,84.6958175 84.6958175,83.78327 84.6958175,81.1977186 L84.6958175,55.9505703 C84.6958175,53.5171103 83.78327,52.6045627 81.6539924,52.6045627 L55.6463878,52.6045627 C53.365019,52.6045627 52.6045627,53.5171103 52.6045627,55.9505703 L52.6045627,81.1977186 C52.6045627,83.78327 53.365019,84.6958175 55.6463878,84.6958175 L81.6539924,84.6958175 Z M235.114068,84.6958175 C237.395437,84.6958175 238.307985,83.78327 238.307985,81.1977186 L238.307985,55.9505703 C238.307985,53.5171103 237.395437,52.6045627 235.114068,52.6045627 L209.106464,52.6045627 C206.977186,52.6045627 206.21673,53.5171103 206.21673,55.9505703 L206.21673,81.1977186 C206.21673,83.78327 206.977186,84.6958175 209.106464,84.6958175 L235.114068,84.6958175 Z M103.403042,285 C122.718631,285 132.452471,275.418251 132.452471,255.342205 L132.452471,187.205323 C132.452471,167.281369 122.718631,157.547529 103.403042,157.547529 L34.0494297,157.547529 C14.7338403,157.547529 5,167.281369 5,187.205323 L5,255.342205 C5,275.418251 14.7338403,285 34.0494297,285 L103.403042,285 Z M193.897338,196.939163 C196.026616,196.939163 196.939163,196.026616 196.939163,193.441065 L196.939163,168.193916 C196.939163,165.760456 196.026616,164.847909 193.897338,164.847909 L167.889734,164.847909 C165.608365,164.847909 164.847909,165.760456 164.847909,168.193916 L164.847909,193.441065 C164.847909,196.026616 165.608365,196.939163 167.889734,196.939163 L193.897338,196.939163 Z M274.657795,196.939163 C276.787072,196.939163 277.69962,196.026616 277.69962,193.441065 L277.69962,168.193916 C277.69962,165.760456 276.787072,164.847909 274.657795,164.847909 L248.65019,164.847909 C246.368821,164.847909 245.608365,165.760456 245.608365,168.193916 L245.608365,193.441065 C245.608365,196.026616 246.368821,196.939163 248.65019,196.939163 L274.657795,196.939163 Z M102.946768,263.555133 L34.3536122,263.555133 C29.0304183,263.555133 26.4448669,260.81749 26.4448669,255.342205 L26.4448669,187.357414 C26.4448669,181.730038 29.0304183,178.992395 34.3536122,178.992395 L102.946768,178.992395 C108.269962,178.992395 111.007605,181.730038 111.007605,187.357414 L111.007605,255.342205 C111.007605,260.81749 108.269962,263.555133 102.946768,263.555133 Z M81.6539924,237.395437 C83.78327,237.395437 84.6958175,236.48289 84.6958175,233.745247 L84.6958175,208.65019 C84.6958175,206.21673 83.78327,205.304183 81.6539924,205.304183 L55.6463878,205.304183 C53.365019,205.304183 52.6045627,206.21673 52.6045627,208.65019 L52.6045627,233.745247 C52.6045627,236.48289 53.365019,237.395437 55.6463878,237.395437 L81.6539924,237.395437 Z M234.657795,237.395437 C236.787072,237.395437 237.69962,236.48289 237.69962,233.745247 L237.69962,208.65019 C237.69962,206.21673 236.787072,205.304183 234.657795,205.304183 L208.65019,205.304183 C206.368821,205.304183 205.608365,206.21673 205.608365,208.65019 L205.608365,233.745247 C205.608365,236.48289 206.368821,237.395437 208.65019,237.395437 L234.657795,237.395437 Z M193.897338,277.69962 C196.026616,277.69962 196.939163,276.787072 196.939163,274.201521 L196.939163,248.954373 C196.939163,246.520913 196.026616,245.608365 193.897338,245.608365 L167.889734,245.608365 C165.608365,245.608365 164.847909,246.520913 164.847909,248.954373 L164.847909,274.201521 C164.847909,276.787072 165.608365,277.69962 167.889734,277.69962 L193.897338,277.69962 Z M274.657795,277.69962 C276.787072,277.69962 277.69962,276.787072 277.69962,274.201521 L277.69962,248.954373 C277.69962,246.520913 276.787072,245.608365 274.657795,245.608365 L248.65019,245.608365 C246.368821,245.608365 245.608365,246.520913 245.608365,248.954373 L245.608365,274.201521 C245.608365,276.787072 246.368821,277.69962 248.65019,277.69962 L274.657795,277.69962 Z" />
</svg>