<svg xmlns="http://www.w3.org/2000/svg" width="290" height="290" viewBox="0 0 290 290">
  <path fill-rule="evenodd" d="M97.7018264,10.3165127 C94.1575218,6.7721244 89.4317823,5 84.5091416,5 C74.073136,5 66,13.0732127 66,23.5092114 C66,28.4318102 67.7721523,33.1575218 71.3164555,36.7019101 L179.614607,145.00006 L71.3164555,253.298182 C67.7721523,256.842473 66,261.765127 66,266.490867 C66,277.517581 74.663852,285 84.5091416,285 C89.4317823,285 94.1575218,283.227849 97.7018264,279.683544 L219.192619,158.192703 C222.933895,154.648398 224.706019,149.725758 224.706019,145.00006 C224.706019,140.274348 222.933895,135.548497 219.192619,131.807361 L97.7018264,10.3165127 Z"/>
</svg>
