<svg xmlns="http://www.w3.org/2000/svg" width="290" height="290" viewBox="0 0 290 290">
  <path fill-rule="evenodd" d="M81.5432173,7.88664044 C79.7668485,6.11028264 77.5463902,5 75.1038849,5 C69.9968271,5 66,8.99692307 66,14.1039714 C66,16.3243793 66.6661378,18.7669697 68.4425054,20.3211451 L202.558265,145.111028 L68.4425054,269.456783 C66.6661378,271.23314 66,273.675652 66,276.118164 C66,281.225212 70.2188726,285 75.1038849,285 C77.5463902,285 79.544803,284.111805 81.5432173,282.335448 L221.210117,152.660604 C223.430556,150.440149 224.984889,147.775644 224.984889,144.889003 C224.984889,142.002363 223.652581,139.55993 221.432173,137.339365 L81.5432173,7.88664044 Z"/>
</svg>
