<svg xmlns="http://www.w3.org/2000/svg" width="290" height="290" viewBox="0 0 290 290">
  <path fill-rule="nonzero" d="M145,285 C221.588235,285 285,221.45098 285,145 C285,68.4117647 221.45098,5 144.862745,5 C68.4117647,5 5,68.4117647 5,145 C5,221.45098 68.5490196,285 145,285 Z M145,261.666667 C80.2156863,261.666667 28.4705882,209.784314 28.4705882,145 C28.4705882,80.2156863 80.0784314,28.3333333 144.862745,28.3333333 C209.647059,28.3333333 261.529412,80.2156863 261.666938,145 C261.803922,209.784314 209.784314,261.666667 145,261.666667 Z M87.4901961,214.313725 L166.27451,175.745098 C170.666667,173.686275 173.686275,170.529412 175.882353,166.27451 L214.176471,87.627451 C218.568627,78.2941176 211.843137,71.1568627 202.235294,75.8235294 L123.72549,114.117647 C119.470588,116.176471 116.588235,119.058824 114.254902,123.72549 L75.6862745,202.509804 C71.2941176,211.568627 78.4313725,218.705882 87.4901961,214.313725 Z M145,162.019608 C135.666667,162.019608 128.254902,154.470588 128.254902,145.137255 C128.254902,135.803922 135.666667,128.392157 145,128.392157 C154.333333,128.392157 161.882353,135.803922 161.882353,145.137255 C161.882353,154.470588 154.333333,162.019608 145,162.019608 Z" />
</svg>