<svg xmlns="http://www.w3.org/2000/svg" width="290" height="290" viewBox="0 0 290 290">
  <path fill-rule="evenodd" d="M114.26173,221.338401 C139.430299,221.338401 162.748114,212.640455 181.254487,198.020494 L264.53277,281.66887 C266.383355,283.70456 269.344343,285 272.490377,285 C279.152666,285 283.594148,279.633179 283.594148,273.71117 C283.594148,270.750169 282.483745,268.159285 280.263069,265.938531 L197.169831,182.475215 C212.900129,163.783875 222.523407,139.540703 222.523407,113.076723 C222.523407,53.6715215 173.66684,5 114.26173,5 C54.6715084,5 6,53.6715215 6,113.076723 C6,172.666892 54.6715084,221.338401 114.26173,221.338401 Z M114.26173,208.013888 C62.0740181,208.013888 19.3245254,165.264382 19.3245254,113.076723 C19.3245254,61.0739919 62.0740181,18.3245779 114.26173,18.3245779 C166.264369,18.3245779 209.013914,61.0739919 209.013914,113.076723 C209.013914,165.264382 166.264369,208.013888 114.26173,208.013888 Z"/>
</svg>
