<svg xmlns="http://www.w3.org/2000/svg" width="290" height="290" viewBox="0 0 290 290">
  <path d="M145.067677,285 C222.010147,285 285,222.027022 285,144.999952 C285,67.9729875 222.010147,5 145.067677,5 C67.9898341,5 5,67.9729875 5,144.999952 C5,222.027022 67.9898341,285 145.067677,285 Z M75,129.277284 C75,99.4247924 99.2616515,75 128.914828,75 C158.702712,75 182.694824,99.4247924 182.694824,129.277284 C182.694824,140.811182 179.055537,151.666677 172.855347,160.350997 L207.765131,195.631265 C209.786936,197.395275 211,200.109144 211,202.823013 C211,208.929201 207.09126,213 201.430167,213 C198.195298,213 195.6343,212.05015 192.938624,209.336281 L158.433163,174.598792 C149.941524,180.162268 139.832499,183.418888 128.914828,183.418888 C99.2616515,183.418888 75,159.129776 75,129.277284 Z M90,129.000048 C90,149.947075 107.549476,167 128.636087,167 C149.722603,167 167,149.947075 167,129.000048 C167,108.187283 149.722603,91 128.636087,91 C107.549476,91 90,108.187283 90,129.000048 Z"/>
</svg>
