<?xml version="1.0" encoding="utf-8"?>
<!-- Generator: Adobe Illustrator 19.2.1, SVG Export Plug-In . SVG Version: 6.00 Build 0)  -->
<svg version="1.1" id="Layer_1" xmlns="http://www.w3.org/2000/svg" xmlns:xlink="http://www.w3.org/1999/xlink" x="0px" y="0px"
	 viewBox="0 0 290 290" style="enable-background:new 0 0 290 290;" xml:space="preserve">
<g>
	<path d="M129.4,79.7c-27.5,0-49.8,22.3-49.8,49.8s22.3,49.8,49.8,49.8s49.8-22.3,49.8-49.8S156.9,79.7,129.4,79.7z"/>
	<path d="M145,5C67.7,5,5,67.7,5,145s62.7,140,140,140s140-62.7,140-140S222.3,5,145,5z M207.7,222.8l-42.4-42.4
		c-10.2,7.1-22.5,11.3-35.8,11.3c-34.3,0-62.2-27.9-62.2-62.2s27.9-62.2,62.2-62.2s62.2,27.9,62.2,62.2c0,13.3-4.2,25.6-11.3,35.8
		l42.4,42.4L207.7,222.8z"/>
</g>
</svg>
