<svg xmlns="http://www.w3.org/2000/svg" width="290" height="290" viewBox="0 0 290 290">
  <path d="M145.000049,285 C222.097414,285 285,221.91316 285,144.930528 C285,67.9479647 222.097414,5 145.000049,5 C68.0417579,5 5,67.9479647 5,144.930528 C5,221.91316 68.0417579,285 145.000049,285 Z M80,127.029806 C80,98.4481451 103.606228,75 132.211393,75 C160.816648,75 184.145122,98.4481451 184.145122,127.029806 C184.145122,139.378226 179.701622,150.89415 172.480885,159.912683 L211.77825,199.316553 C213.166918,200.565259 214,202.091469 214,204.033919 C214,207.502569 211.77825,210 208.167931,210 C206.085028,210 204.418666,209.167523 202.752402,207.363826 L163.732633,168.237452 C154.98448,174.897228 144.014576,179.059612 132.211393,179.059612 C103.606228,179.059612 80,155.611565 80,127.029806 Z M89,127 C89,150.594206 108.545475,170 132.139587,170 C155.733798,170 175,150.594206 175,127 C175,103.405893 155.733798,84 132.139587,84 C108.545475,84 89,103.405893 89,127 Z"/>
</svg>
