<svg xmlns="http://www.w3.org/2000/svg" width="290" height="290" viewBox="0 0 290 290">
  <path fill-rule="evenodd" d="M116.8371,226.674251 C140.094721,226.674251 161.717066,219.406246 179.52368,207.050626 L252.203731,279.730695 C255.837778,283.364698 260.561924,285 265.467882,285 C275.824718,285 283.45618,277.005193 283.45618,266.648285 C283.45618,261.742379 281.820903,257.018168 278.368539,253.565868 L206.233537,181.249209 C219.679372,162.897494 227.674199,140.184948 227.674199,115.8371 C227.674199,54.7859241 177.888404,5 116.8371,5 C55.7858469,5 6,54.7859241 6,115.8371 C6,176.888404 55.7858469,226.674251 116.8371,226.674251 Z M116.8371,198.510723 C71.5937543,198.510723 34.1635276,161.080484 34.1635276,115.8371 C34.1635276,70.5937672 71.5937543,33.1635791 116.8371,33.1635791 C162.080432,33.1635791 199.51062,70.5937672 199.51062,115.8371 C199.51062,161.080484 162.080432,198.510723 116.8371,198.510723 Z"/>
</svg>
