<svg xmlns="http://www.w3.org/2000/svg" width="290" height="290" viewBox="0 0 290 290">
  <path fill-rule="evenodd" d="M157.467678,177.098331 L157.467678,56.549376 L156.507106,37.3385024 L162.750767,44.0622798 L179.880534,61.1920463 C181.961754,63.4333433 185.003433,64.7140682 187.88515,64.7140682 C194.128698,64.7140682 198.771368,60.3916642 198.771368,54.3081925 C198.771368,51.1063235 197.65072,48.5448737 195.249346,46.4636532 L154.265922,9.00225115 C151.064053,6.12064847 148.66268,5 145.620944,5 C142.579197,5 140.177823,6.12064847 136.976,9.00225115 L95.992576,46.4636532 C93.5912026,48.5448737 92.4705655,51.1063235 92.4705655,54.3081925 C92.4705655,60.3916642 96.9531253,64.7140682 103.196696,64.7140682 C106.078333,64.7140682 109.12008,63.4333433 111.361354,61.1920463 L128.491143,44.0622798 L134.734714,37.3385024 L133.774165,56.549376 L133.774165,177.098331 C133.774165,183.341902 139.217274,188.624912 145.620944,188.624912 C152.024603,188.624912 157.467678,183.341902 157.467678,177.098331 Z M112.001728,86.1663522 L76.7815889,86.1663522 C52.7678665,86.1663522 39,99.2938676 39,124.908479 L39,246.257862 C39,271.872496 52.7678665,285 78.3825121,285 L212.539189,285 C238.153801,285 251.921735,271.872496 251.921735,246.257862 L251.921735,124.908479 C251.921735,99.2938676 239.754792,86.1663522 214.140067,86.1663522 L179.240115,86.1663522 L179.240115,108.579208 L212.859342,108.579208 C222.464835,108.579208 227.908001,114.022261 227.908001,123.627754 L227.908001,247.538587 C227.908001,257.14408 222.464835,262.587189 212.859342,262.587189 L78.0623252,262.587189 C68.4568317,262.587189 63.0137225,257.14408 63.0137225,247.538587 L63.0137225,123.627754 C63.0137225,114.022261 68.4568317,108.579208 78.0623252,108.579208 L112.001728,108.579208 L112.001728,86.1663522 Z"/>
</svg>
