<svg xmlns="http://www.w3.org/2000/svg" width="290" height="290" viewBox="0 0 290 290">
  <path fill-rule="evenodd" d="M150.325373,183.239641 L150.325373,38.7081012 L150.007379,21.2181082 L163.522462,34.8921089 L187.849511,59.2191585 C188.803538,60.3321704 190.393506,61.127211 191.824489,61.127211 C194.527582,61.127211 196.912592,58.9011873 196.912592,56.0392212 C196.912592,54.6082382 196.276537,53.3361281 195.163525,52.3822145 L148.73537,6.7490669 C147.463373,5.47706946 146.191364,5 144.760359,5 C143.329353,5 142.057344,5.47706946 140.785347,6.7490669 L94.1981843,52.3822145 C93.0851725,53.3361281 92.6081706,54.6082382 92.6081706,56.0392212 C92.6081706,58.9011873 94.6751862,61.127211 97.5371973,61.127211 C98.9682029,61.127211 100.558205,60.3321704 101.512209,59.2191585 L125.998289,34.8921089 L139.513338,21.0591226 L139.195344,38.7081012 L139.195344,183.239641 C139.195344,186.260649 141.739351,188.645659 144.760359,188.645659 C147.781367,188.645659 150.325373,186.260649 150.325373,183.239641 Z M110.734241,86.4082869 L72.7331007,86.4082869 C54.1300396,86.4082869 43,97.3793071 43,116.459381 L43,254.948894 C43,274.028962 54.1300396,285 73.2101026,285 L215.992553,285 C235.072628,285 246.202746,274.028962 246.202746,254.948894 L246.202746,116.459381 C246.202746,97.3793071 235.549697,86.4082869 216.469623,86.4082869 L178.786431,86.4082869 L178.786431,97.0613359 L215.833568,97.0613359 C228.235684,97.0613359 234.913642,103.898393 234.913642,116.14141 L234.913642,255.425896 C234.913642,267.668936 228.235684,274.346962 215.833568,274.346962 L73.3691107,274.346962 C60.9670624,274.346962 54.2890364,267.668936 54.2890364,255.425896 L54.2890364,116.14141 C54.2890364,103.898393 60.9670624,97.0613359 73.3691107,97.0613359 L110.734241,97.0613359 L110.734241,86.4082869 Z"/>
</svg>
