<svg xmlns="http://www.w3.org/2000/svg" width="290" height="290" viewBox="0 0 290 290">
  <path fill-rule="evenodd" d="M42.2858371,254.609043 L247.714138,254.609043 C272.650535,254.609043 285,242.259595 285,217.798182 L285,72.8109282 C285,48.3494651 272.650535,36 247.714138,36 L42.2858371,36 C17.4681902,36 5,48.2307316 5,72.8109282 L5,217.798182 C5,242.378337 17.4681902,254.609043 42.2858371,254.609043 Z M42.5233294,235.491144 C30.6488573,235.491144 24.117899,229.197678 24.117899,216.84823 L24.117899,73.7608806 C24.117899,61.4114155 30.6488573,55.1179494 42.5233294,55.1179494 L95.4834481,55.1179494 L95.4834481,235.491144 L42.5233294,235.491144 Z M247.476671,55.1179494 C259.232384,55.1179494 265.882135,61.4114155 265.882135,73.7608806 L265.882135,216.84823 C265.882135,229.197678 259.232384,235.491144 247.476671,235.491144 L114.126379,235.491144 L114.126379,55.1179494 L247.476671,55.1179494 Z M72.5657397,99.172212 C76.2468241,99.172212 79.3341819,95.9661543 79.3341819,92.5225453 C79.3341819,88.9602029 76.2468241,85.8727945 72.5657397,85.8727945 L47.1543662,85.8727945 C43.5920322,85.8727945 40.3859239,88.9602029 40.3859239,92.5225453 C40.3859239,95.9661543 43.5920322,99.172212 47.1543662,99.172212 L72.5657397,99.172212 Z M72.5657397,129.927141 C76.2468241,129.927141 79.3341819,126.720999 79.3341819,123.158657 C79.3341819,119.596314 76.2468241,116.627724 72.5657397,116.627724 L47.1543662,116.627724 C43.5920322,116.627724 40.3859239,119.596314 40.3859239,123.158657 C40.3859239,126.720999 43.5920322,129.927141 47.1543662,129.927141 L72.5657397,129.927141 Z M72.5657397,160.563253 C76.2468241,160.563253 79.3341819,157.594578 79.3341819,154.03232 C79.3341819,150.469977 76.2468241,147.382569 72.5657397,147.382569 L47.1543662,147.382569 C43.5920322,147.382569 40.3859239,150.469977 40.3859239,154.03232 C40.3859239,157.594578 43.5920322,160.563253 47.1543662,160.563253 L72.5657397,160.563253 Z"/>
</svg>
