<svg xmlns="http://www.w3.org/2000/svg" width="290" height="290" viewBox="0 0 290 290">
  <path fill-rule="nonzero" d="M145,285 C221.588235,285 285,221.45098 285,145 C285,68.4117647 221.45098,5 144.862745,5 C68.4117647,5 5,68.4117647 5,145 C5,221.45098 68.5490196,285 145,285 Z M145,261.666667 C80.2156863,261.666667 28.4705882,209.784314 28.4705882,145 C28.4705882,80.2156863 80.0784314,28.3333333 144.862745,28.3333333 C209.647059,28.3333333 261.529412,80.2156863 261.666938,145 C261.803922,209.784314 209.784314,261.666667 145,261.666667 Z M131,234.901961 C135.529412,234.901961 139.098039,231.196078 139.098039,226.529412 L139.098039,63.4705882 C139.098039,58.6666667 135.529412,55.0980392 131,55.0980392 C126.333333,55.0980392 122.627451,58.6666667 122.627451,63.4705882 L122.627451,226.529412 C122.627451,231.333333 126.196078,234.901961 131,234.901961 Z M186.588235,215.54902 C191.254902,215.54902 194.823529,211.980392 194.823529,207.45098 L194.823529,82.4117647 C194.823529,77.8823529 191.254902,74.3137255 186.588235,74.3137255 C181.921569,74.3137255 178.352941,77.8823529 178.352941,82.4117647 L178.352941,207.45098 C178.352941,211.980392 181.921569,215.54902 186.588235,215.54902 Z M103.137255,198.254902 C107.803922,198.254902 111.372549,194.686275 111.372549,190.019608 L111.372549,99.7058824 C111.372549,95.1764706 107.803922,91.6078431 103.137255,91.6078431 C98.4705882,91.6078431 94.9019608,95.1764706 94.9019608,99.7058824 L94.9019608,190.019608 C94.9019608,194.686275 98.4705882,198.254902 103.137255,198.254902 Z M158.72549,187.27451 C163.392157,187.27451 166.960784,183.705882 166.960784,179.176471 L166.960784,110.686275 C166.960784,106.156863 163.392157,102.588235 158.72549,102.588235 C154.196078,102.588235 150.490196,106.156863 150.490196,110.686275 L150.490196,179.176471 C150.490196,183.705882 154.196078,187.27451 158.72549,187.27451 Z M214.588235,172.039216 C219.254902,172.039216 222.686275,168.607843 222.686275,163.941176 L222.686275,125.921569 C222.686275,121.254902 219.254902,117.823529 214.588235,117.823529 C209.784314,117.823529 206.215686,121.392157 206.215686,125.921569 L206.215686,163.941176 C206.215686,168.470588 209.784314,172.039216 214.588235,172.039216 Z M75.1372549,165.176471 C79.9411765,165.176471 83.5098039,161.607843 83.5098039,157.078431 L83.5098039,132.784314 C83.5098039,128.254902 79.9411765,124.686275 75.1372549,124.686275 C70.6078431,124.686275 67.0392157,128.254902 67.0392157,132.784314 L67.0392157,157.078431 C67.0392157,161.607843 70.6078431,165.176471 75.1372549,165.176471 Z" />
</svg>