<svg xmlns="http://www.w3.org/2000/svg" width="290" height="290" viewBox="0 0 290 290">
  <path fill-rule="evenodd" d="M1.83938228 91.4030933C.707454584 92.6765121 4.26325641e-14 93.9499308 4.26325641e-14 95.6478224 4.26325641e-14 98.7606204 2.54683646 101.307458 5.80112811 101.307458 7.21603648 101.307458 8.77243649 100.882985 9.90436458 99.7510539L89.2807689 14.2905412 168.515665 99.7510539C169.647587 100.882985 171.204041 101.307458 172.760395 101.307458 176.01468 101.307458 178.42 98.7606204 178.42 95.6478224 178.42 93.9499308 177.85409 92.6765121 176.722169 91.544581L94.2329562 2.54679736C92.8180398.990443477 91.1201482-1.45661261e-12 89.1392813-1.45661261e-12 87.299892-1.45661261e-12 85.743498.990443477 84.3285916 2.40531976L1.83938228 91.4030933zM1.83938228 187.904335L84.3285916 276.902148C85.743498 278.317055 87.299892 279.307488 89.1392813 279.307488 91.1201482 279.307488 92.8180398 278.317055 94.2329562 276.760661L176.722169 187.762857C177.85409 186.630936 178.42 185.357537 178.42 183.659605 178.42 180.546797 176.01468 178 172.760395 178 171.204041 178 169.647587 178.424433 168.515665 179.556354L89.2807689 265.016907 9.90436458 179.556354C8.77243649 178.424433 7.21603648 178 5.80112811 178 2.54683646 178 4.26325641e-14 180.546797 4.26325641e-14 183.659605 4.26325641e-14 185.357537.707454584 186.630936 1.83938228 187.904335z" transform="translate(56 5)"/>
</svg>
