<svg xmlns="http://www.w3.org/2000/svg" width="290" height="290" viewBox="0 0 290 290">
  <path fill-rule="evenodd" d="M3.3987343 81.191936C1.13291173 83.4577595 0 86.4788574 0 89.6258315 0 96.2974169 5.16104084 101.458462 11.8326307 101.458462 14.9796047 101.458462 18.0007027 100.32555 20.2665261 98.059727L89.4999554 28.826262 158.73342 98.059727C160.999297 100.32555 164.146245 101.458462 167.167325 101.458462 174.216601 101.458462 179 95.9197796 179 89.6258315 179 86.4788574 177.867106 83.4577595 175.601229 81.191936L97.9338598 3.52454886C95.668072 1.13289389 92.5211247 5.61328761e-13 89.4999554 5.61328761e-13 86.4788931 5.61328761e-13 83.4578041 1.13289389 81.0660956 3.52454886L3.3987343 81.191936zM3.3987343 198.26649L81.0660956 275.933895C83.4578041 278.325595 86.4788931 279.458507 89.4999554 279.458507 92.5211247 279.458507 95.668072 278.325595 97.9338598 275.933895L175.601229 198.26649C177.867106 196.000703 179 192.979623 179 189.832675 179 183.538691 174.216601 178 167.167325 178 164.146245 178 160.999297 179.132894 158.73342 181.398771L89.4999554 250.632209 20.2665261 181.398771C18.0007027 179.132894 14.9796047 178 11.8326307 178 5.16104084 178 0 183.161001 0 189.832675 0 192.979623 1.13291173 196.000703 3.3987343 198.26649z" transform="translate(56 5)"/>
</svg>
