<svg xmlns="http://www.w3.org/2000/svg" width="290" height="290" viewBox="0 0 290 290">
  <path fill="#231F20" fill-rule="evenodd" d="M137.767126,279.406154 C137.767126,276.810769 135.801005,274.633846 133.230514,274.413846 C66.9210055,268.729231 14.7889836,213.016923 14.7889836,144.976923 C14.7889836,73.1507692 72.8836284,15.0615385 144.425923,15.0615385 C215.861115,15.0615385 273.95423,73.1507692 273.95423,144.976923 C273.95423,179.492308 260.52953,210.824615 238.665049,234.072308 C236.865705,235.983077 236.931497,238.989231 238.796634,240.835385 C238.819585,240.858462 238.842536,240.881538 238.867016,240.904615 C240.796415,242.813846 243.914667,242.752308 245.772153,240.770769 C270.679913,214.196923 285.429639,177.916923 283.590514,138.355385 C280.291716,67.4123077 223.808219,9.72923077 153.314011,5.28 C72.6250492,0.190769231 4.99969399,65.0030769 4.99969399,144.976923 C4.99969399,217.901538 61.2307322,278.215385 132.321661,284.421538 C135.245596,284.676923 137.767126,282.356923 137.767126,279.406154"/>
</svg>
