<?xml version="1.0" encoding="utf-8"?>
<!-- Generator: Adobe Illustrator 21.0.0, SVG Export Plug-In . SVG Version: 6.00 Build 0)  -->
<svg version="1.1" id="Layer_1" xmlns="http://www.w3.org/2000/svg" xmlns:xlink="http://www.w3.org/1999/xlink" x="0px" y="0px"
	 viewBox="0 0 290 290" style="enable-background:new 0 0 290 290;" xml:space="preserve">
<g id="Page-1">
	<g id="KPI-Icons" transform="translate(-108.000000, -110.000000)">
		<g id="Spins" transform="translate(108.000000, 110.000000)">
			<path id="Oval-3-Copy" d="M145,262.6c64.9,0,117.6-52.7,117.6-117.6S209.9,27.4,145,27.4S27.4,80.1,27.4,145
				S80.1,262.6,145,262.6z M145,285C67.7,285,5,222.3,5,145S67.7,5,145,5s140,62.7,140,140S222.3,285,145,285z"/>
			<path id="Oval-3-Copy-4" d="M44.9,145c0,55.3,44.8,100.1,100.1,100.1v-22.4c-42.9,0-77.7-34.8-77.7-77.7H44.9z M245.1,145
				c0-55.3-44.8-100.1-100.1-100.1v22.4c42.9,0,77.7,34.8,77.7,77.7H245.1z"/>
			<path id="Oval-3-Copy-3" d="M145,184.2c21.6,0,39.2-17.6,39.2-39.2s-17.6-39.2-39.2-39.2s-39.2,17.6-39.2,39.2
				S123.4,184.2,145,184.2z M145,206.6c-34,0-61.6-27.6-61.6-61.6S111,83.4,145,83.4s61.6,27.6,61.6,61.6S179,206.6,145,206.6z"/>
			<path id="Oval-3-Copy-5" d="M145,161.8c-9.3,0-16.8-7.5-16.8-16.8s7.5-16.8,16.8-16.8s16.8,7.5,16.8,16.8S154.3,161.8,145,161.8z
				"/>
		</g>
	</g>
</g>
</svg>
