<svg xmlns="http://www.w3.org/2000/svg" width="290" height="290" viewBox="0 0 290 290">
  <path fill="#231F20" fill-rule="evenodd" d="M133.740556,265.21523 C71.0549947,259.475979 22.2092193,205.903144 24.0883636,141.295016 C25.9450481,77.4669947 78.0909305,25.604107 141.927936,24.0723422 C210.036813,22.437262 265.761305,77.1615401 265.761305,144.89908 C265.761305,175.264856 254.555316,203.01031 236.06184,224.239401 C232.775209,228.012663 232.954888,233.675551 236.523016,237.183786 L236.659273,237.318545 C240.507401,241.103786 246.778203,240.921112 250.328364,236.854374 C271.569433,212.522824 284.525797,180.772021 284.793818,145.998118 C285.382267,69.4518075 223.428898,6.07747594 146.88708,5.01437433 C68.7131765,3.92881283 5.0004492,66.9737326 5.0004492,144.89908 C5.0004492,217.85031 60.8402353,277.750845 132.108471,284.211807 C137.65307,284.713412 142.410075,280.269348 142.410075,274.700791 C142.410075,269.771594 138.648791,265.664428 133.740556,265.21523"/>
</svg>
