<svg xmlns="http://www.w3.org/2000/svg" width="290px" height="290px" viewBox="0 0 290 290">
  <g stroke="none" stroke-width="1" fill="none" fill-rule="evenodd">
    <g fill="#333" fill-rule="nonzero">
      <path d="M31.8243272,132.469381 L100.445696,132.469381 C111.053968,132.469381 119.010104,129.750982 124.314104,124.314185 C129.618104,118.877388 132.270104,110.722328 132.270104,99.8490057 L132.270104,32.6199679 C132.270104,21.7466453 129.618104,13.5917212 124.314104,8.15519566 C119.010104,2.71839855 111.053968,0 100.445696,0 L31.8243272,0 C21.2163267,0 13.2603264,2.71839855 7.9563262,8.15519566 C2.65210873,13.5917212 7.23603276e-15,21.7466453 7.23603276e-15,32.6199679 L7.23603276e-15,99.8490057 C7.23603276e-15,110.722328 2.65210873,118.877388 7.9563262,124.314185 C13.2603264,129.750982 21.2163267,132.469381 31.8243272,132.469381 Z M189.355252,132.469381 L257.97662,132.469381 C268.717417,132.469381 276.706685,129.750982 281.944422,124.314185 C287.18216,118.877388 289.801029,110.722328 289.801029,99.8490057 L289.801029,32.6199679 C289.801029,21.7466453 287.18216,13.5917212 281.944422,8.15519566 C276.706685,2.71839855 268.717417,0 257.97662,0 L189.355252,0 C178.747251,0 170.791115,2.71839855 165.486843,8.15519566 C160.182843,13.5917212 157.530843,21.7466453 157.530843,32.6199679 L157.530843,99.8490057 C157.530843,110.722328 160.182843,118.877388 165.486843,124.314185 C170.791115,129.750982 178.747251,132.469381 189.355252,132.469381 Z M31.8243272,290 L100.445696,290 C111.053968,290 119.010104,287.314821 124.314104,281.944463 C129.618104,276.574092 132.270104,268.385928 132.270104,257.379971 L132.270104,190.150892 C132.270104,179.27757 129.618104,171.155777 124.314104,165.785514 C119.010104,160.41498 111.053968,157.729713 100.445696,157.729713 L31.8243272,157.729713 C21.2163267,157.729713 13.2603264,160.41498 7.9563262,165.785514 C2.65210873,171.155777 7.23603276e-15,179.27757 7.23603276e-15,190.150892 L7.23603276e-15,257.379971 C7.23603276e-15,268.385928 2.65210873,276.574092 7.9563262,281.944463 C13.2603264,287.314821 21.2163267,290 31.8243272,290 Z M189.355252,290 L257.97662,290 C268.717417,290 276.706685,287.314821 281.944422,281.944463 C287.18216,276.574092 289.801029,268.385928 289.801029,257.379971 L289.801029,190.150892 C289.801029,179.27757 287.18216,171.155777 281.944422,165.785514 C276.706685,160.41498 268.717417,157.729713 257.97662,157.729713 L189.355252,157.729713 C178.747251,157.729713 170.791115,160.41498 165.486843,165.785514 C160.182843,171.155777 157.530843,179.27757 157.530843,190.150892 L157.530843,257.379971 C157.530843,268.385928 160.182843,276.574092 165.486843,281.944463 C170.791115,287.314821 178.747251,290 189.355252,290 Z"></path>
    </g>
  </g>
</svg>