<svg xmlns="http://www.w3.org/2000/svg" width="290" height="290" viewBox="0 0 290 290">
  <path fill-rule="evenodd" d="M131.599132,22.5630739 L105.270269,103.283791 L19.8198208,103.283791 C10.990991,103.283791 5,107.698236 5,116.21173 C5,121.256747 7.52252184,125.986478 11.6216215,128.982027 L80.9909855,179.117156 L54.8198208,259.04958 C54.0315286,261.256792 53.5585554,263.621657 53.5585554,264.567604 C53.5585554,273.081114 59.707206,278.599132 67.274776,278.599132 C69.9549496,278.599132 72.7927884,277.810844 75.4729731,276.07661 L145,225.626165 L214.527072,276.07661 C217.207223,277.968501 220.045017,278.599132 222.725168,278.599132 C230.292805,278.599132 236.441433,273.081114 236.441433,264.567604 C236.441433,263.621657 235.968505,261.256792 235.180179,259.04958 L209.009015,179.117156 L278.378332,128.982027 C282.477492,125.986478 285,121.256747 285,116.21173 C285,107.698236 279.009015,103.283791 270.180123,103.283791 L184.729675,103.283791 L158.400868,22.5630739 C156.036002,15.1531914 150.518057,12 145,12 C139.481943,12 133.963998,15.1531914 131.599132,22.5630739 Z M153.671137,203.08112 C150.360302,200.400935 147.522508,199.927962 145,199.927962 C142.477492,199.927962 139.639586,200.5586 136.328863,203.08112 L80.0450392,247.540571 L104.63963,180.063102 C104.95495,178.959502 105.427923,176.909944 105.427923,175.64869 C105.427923,170.761304 103.063057,166.031551 99.4369373,163.666685 L39.0540538,123.779367 L111.418908,125.671193 C118.04051,125.828835 123.243281,122.202716 125.292749,115.108119 L145,47.3153415 L164.707251,115.108119 C166.756719,122.202716 171.95949,125.828835 178.581047,125.671193 L250.945913,123.779367 L190.563018,163.666685 C186.936898,166.031551 184.572033,170.761304 184.572033,175.64869 C184.572033,176.909944 185.045073,178.959502 185.360358,180.063102 L209.954983,247.540571 L153.671137,203.08112 Z"/>
</svg>
