<svg xmlns="http://www.w3.org/2000/svg" width="290" height="290" viewBox="0 0 290 290">
  <path fill-rule="evenodd" d="M136.764657,17.3220372 L107.816381,106.329855 L13.9839552,106.329855 C8.49376055,106.329855 5,109.989876 5,114.481903 C5,117.64298 6.49732646,120.304878 8.82649898,121.968535 L85.0237531,177.036859 L55.7427102,265.54545 C55.4099671,266.543668 55.2436014,268.207368 55.2436014,268.872846 C55.2436014,274.030301 59.0701063,277.357693 63.7284513,277.357693 C65.3921435,277.357693 67.0558356,276.858584 68.7195395,275.860367 L144.916823,220.459303 L221.114095,275.860367 C222.777752,277.024953 224.441408,277.357693 226.271537,277.357693 C230.763446,277.357693 234.756292,274.030301 234.756292,268.872846 C234.756292,268.207368 234.423585,266.543668 233.924523,265.379085 L205.142589,177.036859 L281.173389,121.968535 C283.502579,120.304878 285,117.64298 285,114.481903 C285,109.989876 281.506215,106.329855 276.015947,106.329855 L182.017159,106.329855 L153.068871,17.3220372 C151.737922,12.9964824 148.41049,11 144.916823,11 C141.589392,11 138.095606,12.9964824 136.764657,17.3220372 Z M150.573327,210.310761 C148.743316,209.146177 146.58048,208.314337 144.916823,208.314337 C143.419402,208.314337 141.589392,208.813446 139.759381,210.144395 L67.8876875,263.549015 L96.3368784,179.19966 C96.5032441,178.534186 97.0023529,176.870493 97.0023529,176.038641 C97.0023529,172.877623 95.3386608,170.382079 93.1758598,168.884752 L19.9732646,117.143801 L109.812817,117.64298 C113.805687,117.64298 116.800328,115.480144 118.131289,111.154471 L144.916823,26.638798 L171.702275,111.154471 C173.033224,115.480144 176.027947,117.64298 180.187148,117.64298 L270.193089,117.143801 L196.824069,168.884752 C194.827705,170.382079 193.16393,172.877623 193.16393,175.872276 C193.16393,176.704116 193.496638,178.534186 193.829464,179.19966 L221.945864,263.549015 L150.573327,210.310761 Z"/>
</svg>
