<svg xmlns="http://www.w3.org/2000/svg" width="290" height="290" viewBox="0 0 290 290">
  <path fill-rule="evenodd" d="M137.412096,18.0034812 L108.22811,107.890367 L13.3382965,107.890367 C8.33531907,107.890367 5,111.392477 5,115.561587 C5,118.396578 6.33412716,120.898067 8.50208467,122.565806 L85.5479392,178.098823 L56.0303703,267.485352 C55.6968461,268.319186 55.3633102,269.82008 55.3633102,270.487143 C55.3633102,275.323355 59.0321581,278.491907 63.3680779,278.491907 C65.0357339,278.491907 66.5366278,277.99161 68.0375218,276.991015 L144.916566,221.291187 L221.795752,276.991015 C223.296622,277.99161 224.964242,278.491907 226.631981,278.491907 C230.801092,278.491907 234.469951,275.323355 234.469951,270.487143 C234.469951,269.82008 234.303201,268.319186 233.802832,267.151828 L204.618823,178.098823 L281.497891,122.565806 C283.66588,120.898067 285,118.396578 285,115.561587 C285,111.392477 281.664641,107.890367 276.661661,107.890367 L181.771913,107.890367 L152.587904,18.0034812 C151.420534,14.001121 148.085175,12 144.916566,12 C141.748075,12 138.579466,14.001121 137.412096,18.0034812 Z"/>
</svg>
