<svg xmlns="http://www.w3.org/2000/svg" width="290" height="290" viewBox="0 0 290 290">
  <path fill-rule="evenodd" d="M133.399512,21.0579372 L106.543705,104.962577 L17.7128236,104.962577 C10.0851306,104.962577 5,108.776404 5,116.245163 C5,120.535788 7.06583468,124.667406 10.7207717,127.368965 L82.3893331,179.014792 L55.5334811,261.648157 C54.8978433,263.555082 54.4211122,265.620913 54.4211122,266.415469 C54.4211122,273.725345 59.665155,278.492654 66.3393913,278.492654 C68.5641293,278.492654 71.1066917,278.015924 73.3314409,276.42682 L145,224.780962 L216.66857,276.42682 C218.893331,278.015924 221.435882,278.492654 223.819538,278.492654 C230.334811,278.492654 235.578922,273.725345 235.578922,266.415469 C235.578922,265.620913 235.102123,263.555082 234.466541,261.648157 L207.610633,179.014792 L279.279203,127.368965 C282.934135,124.667406 285,120.535788 285,116.245163 C285,108.776404 279.914898,104.962577 272.287131,104.962577 L183.456284,104.962577 L156.600488,21.0579372 C154.534623,14.7015592 149.767312,12 145,12 C140.232688,12 135.465377,14.7015592 133.399512,21.0579372 Z"/>
</svg>
