<svg xmlns="http://www.w3.org/2000/svg" width="290" height="290" viewBox="0 0 290 290">
  <path fill-rule="evenodd" d="M144.000061,285 C66.9828958,285 4,222.000006 4,145 C4,67.999994 66.9828958,5 144.000061,5 C221.017092,5 284,67.999994 284,145 C284,222.000006 221.017092,285 144.000061,285 Z M144.000061,259.048781 C208.009767,259.048781 256.95843,208.341474 256.95843,145 C256.95843,81.6585748 208.009767,30.9511947 144.000061,30.9511947 C79.9902331,30.9511947 31.04157,81.6585748 31.04157,145 C31.04157,208.341474 79.9902331,259.048781 144.000061,259.048781 Z M100.106675,94.9769344 L187.893325,94.9769344 C191.286574,94.9769344 194.023066,97.7134259 194.023066,101.106675 L194.023066,188.893325 C194.023066,192.286574 191.286574,195.023066 187.893325,195.023066 L100.106675,195.023066 C96.7134259,195.023066 93.9769344,192.286574 93.9769344,188.893325 L93.9769344,101.106675 C93.9769344,97.7134259 96.7134259,94.9769344 100.106675,94.9769344 Z"/>
</svg>
