<svg xmlns="http://www.w3.org/2000/svg" width="290" height="290" viewBox="0 0 290 290">
  <path fill-rule="evenodd" d="M143.911569,285 C66.9690553,285 4,221.97353 4,145.000063 C4,68.0265449 66.9690553,5 143.911569,5 C221.030982,5 284,68.0265449 284,145.000063 C284,221.97353 221.030982,285 143.911569,285 Z M143.911569,272.112234 C214.309572,272.112234 270.734043,215.264823 270.734043,145.000063 C270.734043,74.7352391 214.309572,17.887804 143.911569,17.887804 C73.6904652,17.887804 17.0890693,74.7352391 17.0890693,145.000063 C17.0890693,215.264823 73.6904652,272.112234 143.911569,272.112234 Z M100.106675,94.9769344 L187.893325,94.9769344 C191.286574,94.9769344 194.023066,97.7134259 194.023066,101.106675 L194.023066,188.893325 C194.023066,192.286574 191.286574,195.023066 187.893325,195.023066 L100.106675,195.023066 C96.7134259,195.023066 93.9769344,192.286574 93.9769344,188.893325 L93.9769344,101.106675 C93.9769344,97.7134259 96.7134259,94.9769344 100.106675,94.9769344 Z"/>
</svg>
