<svg xmlns="http://www.w3.org/2000/svg" width="290" height="290" viewBox="0 0 290 290">
  <path fill-rule="evenodd" d="M5,68.4134416 L5,115.8371 C5,132.553487 13.3582077,140.003265 23.8968157,150.36023 L146.362687,271.372482 C164.350985,288.997393 181.249184,289.179094 198.692432,271.735874 L271.917532,198.51071 C289.36078,181.067501 289.36078,164.169379 271.554166,146.181004 L150.541784,23.7151584 C140.184948,13.1765105 132.735221,5 116.018796,5 L66.4146575,5 C54.0590502,5 46.7910323,10.6326901 38.6145346,18.8092006 L16.6288107,40.6132286 C8.45230272,48.7897391 5,56.0578343 5,68.4134416 Z M98.3938901,98.2121684 C90.9441762,105.84363 78.4068729,105.84363 70.7754631,98.0304853 C63.1440533,90.3991527 63.1440533,78.0435454 70.7754631,70.5937672 C78.2251641,62.9624346 90.5807843,62.9624346 98.2121812,70.5937672 C106.025287,78.2252285 106.025287,90.7625189 98.3938901,98.2121684 Z"/>
</svg>
