<svg xmlns="http://www.w3.org/2000/svg" width="290" height="290" viewBox="0 0 290 290">
  <path fill-rule="evenodd" d="M5,62.6926873 L5,114.263689 C5,127.805751 10.5652143,133.927437 19.284048,142.646242 L153.220207,275.654916 C165.092731,287.527374 176.779634,287.156361 188.095557,275.840424 L276.396938,187.353507 C287.712861,176.223073 288.083972,164.53613 276.211448,152.663606 L143.388332,19.2840217 C134.669501,10.5652169 128.176757,5 114.820237,5 L62.6927267,5 C52.1188146,5 46.5536108,8.52456726 39.3188288,15.5738333 L15.0173865,39.31875 C7.78260714,46.368016 5,52.1187226 5,62.6926873 Z M94.4144499,93.8578494 C88.4782273,99.7941772 78.4608369,99.7941772 72.7101172,93.6723597 C66.5883786,87.7361634 66.5883786,77.7187992 72.5246012,71.9680926 C78.4608369,66.0317648 88.2927113,66.0317648 94.4144499,71.9680926 C100.350686,77.9042889 100.350686,87.9216531 94.4144499,93.8578494 Z"/>
</svg>
