<svg xmlns="http://www.w3.org/2000/svg" width="290" height="290" viewBox="0 0 290 290">
  <path fill-rule="evenodd" d="M76.7656533 199.440133C85.04432 199.440133 89.93632 193.7956 89.93632 186.269573L89.93632 177.990933C89.93632 159.928533 98.5912533 149.015733 121.169387 133.5872 151.649653 112.890667 165.94912 95.5808 165.94912 66.2293333 165.94912 26.3410667 130.200587 1.62003744e-12 83.5389867 1.62003744e-12 36.5013067 1.62003744e-12 6.39714667 26.3410667 1.50522667 56.0690667.37632 59.832-1.42108547e-14 63.9714667-1.42108547e-14 68.1106667-1.42108547e-14 76.0130667 6.02085333 80.1522667 12.4179733 80.1522667 21.4492267 80.1522667 24.4596533 75.2605333 27.8463733 68.1106667 32.7382933 43.2746667 52.30592 23.7072 82.4101867 23.7072 115.90112 23.7072 137.350187 42.1458667 137.350187 67.7344 137.350187 88.0546667 126.437387 100.096267 98.21472 119.664 74.5077867 136.221333 63.21872 151.2736 63.21872 176.485707L63.21872 185.51696C63.21872 194.17192 68.4869867 199.440133 76.7656533 199.440133zM76.7656533 279.59248C90.3125867 279.59248 101.225387 269.43232 101.225387 257.014373 101.225387 244.5964 90.3125867 234.059947 76.7656533 234.059947 62.8424533 234.059947 52.30592 244.22008 52.30592 257.014373 52.30592 269.80864 62.4661867 279.59248 76.7656533 279.59248z" transform="translate(61 5)"/>
</svg>
