<svg xmlns="http://www.w3.org/2000/svg" width="290" height="290" viewBox="0 0 290 290">
  <path fill-rule="evenodd" d="M80.7264862 196.536755C96.7354862 196.536755 106.272866 186.658838 106.272866 174.396552L106.272866 173.034207C106.272866 158.728138 115.469659 149.531345 133.181831 137.950448 158.387383 121.600862 179.165314 105.932207 179.165314 71.8704483 179.165314 23.8432069 136.587934 1.13686838e-13 89.9232793 1.13686838e-13 42.5772828 1.13686838e-13 11.2404069 20.7776897 2.72495517 44.2803103 1.02185517 49.049-3.55271368e-14 53.8176897-3.55271368e-14 58.5863793-3.55271368e-14 72.5516207 11.2404069 80.0452414 21.4589586 80.0452414 39.5117172 80.0452414 41.8960379 70.5081034 52.7957621 58.9269655 63.3549 47.6866552 74.2548655 42.5773793 87.8795207 42.5773793 109.678969 42.5773793 123.985038 55.1802759 123.985038 74.2547931 123.985038 92.3075517 112.063314 100.141759 89.5826931 115.810172 71.5299345 128.413069 55.5206931 142.719138 55.5206931 170.309276L55.5206931 171.671621C55.5206931 188.361938 64.3769 196.536755 80.7264862 196.536755zM80.7264862 278.285145C102.18559 278.285145 115.810245 265.682272 115.810245 248.310734 115.810245 229.917366 102.18559 217.655103 80.7264862 217.655103 59.2676241 217.655103 45.3022379 229.917366 45.3022379 248.310734 45.3022379 265.682272 59.2676241 278.285145 80.7264862 278.285145z" transform="translate(54 5)"/>
</svg>
