<?xml version="1.0" encoding="utf-8"?>
<!-- Generator: Adobe Illustrator 19.2.1, SVG Export Plug-In . SVG Version: 6.00 Build 0)  -->
<svg version="1.1"
	 xmlns="http://www.w3.org/2000/svg" xmlns:xlink="http://www.w3.org/1999/xlink" viewBox="0 0 290 290"
	 xml:space="preserve">
<path d="M279.6,60H10.4c-3,0-5.4,2.4-5.4,5.4v159.3c0,3,2.4,5.4,5.4,5.4h269.2c3,0,5.4-2.4,5.4-5.4V65.4C285,62.4,282.6,60,279.6,60
	z M264.6,63.1v16.1H25.4V63.1C72.5,63.1,217.5,63.1,264.6,63.1z M237.3,137.3v6.2h-26.2v-6.2h-0.9c-0.1-1-0.3-2-0.4-3h1.3v-6.2h-1.5
	v4.8c-1.7-9.4-5.5-18.1-10.8-25.6v-0.4h-0.3c-9.3-13.1-23.3-22.7-39.6-26.2h105.6v62.7h-25.8v-6.2H237.3z M195.8,106.9h-3.1v1.5h4.2
	c7,9.9,11.3,22,11.6,35h-25.8c-0.7-17.4-13.4-31.9-30-35.3v-1.2h-6.1V81.5C166.7,82,184.5,91.9,195.8,106.9z M181.1,143.4h-34.6
	v-34.6C165.3,109.7,180.3,124.7,181.1,143.4z M181.1,146.5c-0.8,18.7-15.9,33.8-34.6,34.6v-34.6H181.1z M152.7,183.1v-1.2
	c16.6-3.5,29.3-17.9,30-35.4h25.8c-0.3,13-4.6,25.1-11.6,35h-4.2v1.5h3.1c-11.3,15-29.1,24.9-49.2,25.4v-25.4H152.7z M198.6,183.1
	h0.3v-0.4c5.3-7.5,9-16.2,10.8-25.6v4.8h1.5v-6.2h-1.3c0.2-1,0.3-2,0.4-3.1h0.8v-6.2h26.2v6.2h1.5v-6.2h25.8v62.7H159.1
	C175.3,205.7,189.3,196.1,198.6,183.1z M78.9,128.1v6.2h1.3c-0.2,1-0.3,2-0.4,3h-0.9v6.2H52.7v-6.2h-1.5v6.2H25.4V80.7H131
	c-16.2,3.5-30.2,13.1-39.6,26.2h-0.3v0.4c-5.3,7.5-9,16.2-10.8,25.6v-4.9H78.9z M25.4,146.5h25.8v6.2h1.5v-6.2h26.2v6.2h0.8
	c0.1,1,0.3,2.1,0.4,3.1h-1.3v6.2h1.5V157c1.7,9.4,5.5,18,10.8,25.6v0.4h0.3c9.3,13.1,23.3,22.6,39.5,26.2H25.4V146.5z M94.2,183.1
	h3.1v-1.5h-4.2c-7-10-11.3-22-11.6-35h25.8c0.7,17.5,13.3,31.9,30,35.4v1.2h6.2v25.4C123.4,208,105.5,198.1,94.2,183.1z
	 M108.9,146.5h34.6v34.6C124.8,180.4,109.6,165.2,108.9,146.5z M108.9,143.4c0.8-18.7,15.9-33.8,34.6-34.6v34.6H108.9z M137.3,106.9
	v1.2c-16.6,3.5-29.3,17.9-30,35.3H81.5c0.3-13,4.6-25,11.6-35h4.2v-1.5h-3.1c11.3-15.1,29.2-25,49.3-25.4v25.4H137.3z M8.1,65.4
	c0-1.3,1-2.3,2.3-2.3c0,0,5,0,13.5,0v16.1H8.1V65.4z M8.1,80.7h15.8v128.5H8.1V80.7z M10.4,226.9c-1.3,0-2.3-1-2.3-2.3v-13.9h15.8
	v16.2H10.4z M25.4,226.9v-16.2h239.2v16.2H25.4z M281.9,224.6c0,1.3-1,2.3-2.3,2.3h-13.5v-16.2h15.8V224.6z M281.9,209.2h-15.8V80.7
	h15.8V209.2z M281.9,79.2h-15.8V63.1c8.5,0,13.5,0,13.5,0c1.3,0,2.3,1,2.3,2.3V79.2z M51.1,201.9h1.5v6.2h-1.5V201.9z M51.1,192.7
	h1.5v6.2h-1.5V192.7z M51.1,183.5h1.5v6.2h-1.5V183.5z M51.1,174.2h1.5v6.2h-1.5V174.2z M51.1,165h1.5v6.2h-1.5V165z M51.1,155.8
	h1.5v6.2h-1.5V155.8z M51.1,128.1h1.5v6.2h-1.5V128.1z M51.1,118.8h1.5v6.2h-1.5V118.8z M51.1,109.6h1.5v6.2h-1.5V109.6z
	 M51.1,100.4h1.5v6.2h-1.5V100.4z M51.1,91.1h1.5v6.2h-1.5V91.1z M51.1,81.9h1.5V88h-1.5V81.9z M237.3,201.9h1.5v6.2h-1.5V201.9z
	 M237.3,192.7h1.5v6.2h-1.5V192.7z M237.3,183.5h1.5v6.2h-1.5V183.5z M237.3,174.2h1.5v6.2h-1.5V174.2z M237.3,165h1.5v6.2h-1.5V165
	z M237.3,155.8h1.5v6.2h-1.5V155.8z M238.8,134.2h-1.5v-6.2h1.5V134.2z M238.8,125h-1.5v-6.2h1.5V125z M238.8,115.8h-1.5v-6.2h1.5
	V115.8z M238.8,106.5h-1.5v-6.2h1.5V106.5z M238.8,97.3h-1.5v-6.2h1.5V97.3z M238.8,88h-1.5v-6.2h1.5V88z M263.4,108.5h-6.2v-1.5
	h6.2V108.5z M254.3,108.5h-6.2v-1.5h6.2V108.5z M245,108.5h-6.2v-1.5h6.2V108.5z M229.6,106.9h6.2v1.5h-6.2V106.9z M220.4,106.9h6.2
	v1.5h-6.2V106.9z M211.1,106.9h6.2v1.5h-6.2V106.9z M201.9,106.9h6.2v1.5h-6.2V106.9z M189.6,108.5h-6.2v-1.5h6.2V108.5z
	 M180.4,108.5h-6.2v-1.5h6.2V108.5z M171.2,108.5H165v-1.5h6.2V108.5z M161.9,108.5h-6.2v-1.5h6.2V108.5z M128.1,106.9h6.2v1.5h-6.2
	V106.9z M118.8,106.9h6.2v1.5h-6.2V106.9z M109.6,106.9h6.2v1.5h-6.2V106.9z M100.4,106.9h6.2v1.5h-6.2V106.9z M88.1,108.5h-6.2
	v-1.5h6.2V108.5z M78.9,108.5h-6.2v-1.5h6.2V108.5z M63.5,106.9h6.2v1.5h-6.2V106.9z M54.2,106.9h6.2v1.5h-6.2V106.9z M51.1,108.5
	H45v-1.5h6.2V108.5z M35.7,106.9h6.2v1.5h-6.2V106.9z M26.6,106.9h6.2v1.5h-6.2V106.9z M257.3,181.5h6.2v1.5h-6.2V181.5z
	 M248.1,181.5h6.2v1.5h-6.2V181.5z M238.9,181.5h6.2v1.5h-6.2V181.5z M229.6,181.5h6.2v1.5h-6.2V181.5z M220.4,181.5h6.2v1.5h-6.2
	V181.5z M211.1,181.5h6.2v1.5h-6.2V181.5z M201.9,181.5h6.2v1.5h-6.2V181.5z M189.6,183.1h-6.2v-1.5h6.2V183.1z M180.4,183.1h-6.2
	v-1.5h6.2V183.1z M171.2,183.1H165v-1.5h6.2V183.1z M161.9,183.1h-6.2v-1.5h6.2V183.1z M128.1,181.5h6.2v1.5h-6.2V181.5z
	 M118.8,181.5h6.2v1.5h-6.2V181.5z M109.6,181.5h6.2v1.5h-6.2V181.5z M100.4,181.5h6.2v1.5h-6.2V181.5z M81.9,181.5h6.2v1.5h-6.2
	V181.5z M78.9,183.1h-6.2v-1.5h6.2V183.1z M63.5,181.5h6.2v1.5h-6.2V181.5z M54.2,181.5h6.2v1.5h-6.2V181.5z M51.1,183.1H45v-1.5
	h6.2V183.1z M35.7,181.5h6.2v1.5h-6.2V181.5z M26.6,181.5h6.2v1.5h-6.2V181.5z M78.9,201.9h1.5v6.2h-1.5V201.9z M78.9,192.7h1.5v6.2
	h-1.5V192.7z M78.9,183.5h1.5v6.2h-1.5V183.5z M78.9,174.2h1.5v6.2h-1.5V174.2z M78.9,165h1.5v6.2h-1.5V165z M80.4,125h-1.5v-6.2
	h1.5V125z M78.9,109.6h1.5v6.2h-1.5V109.6z M80.4,106.5h-1.5v-6.2h1.5V106.5z M80.4,97.3h-1.5v-6.2h1.5V97.3z M80.4,88h-1.5v-6.2
	h1.5V88z M209.6,201.9h1.5v6.2h-1.5V201.9z M209.6,192.7h1.5v6.2h-1.5V192.7z M209.6,183.5h1.5v6.2h-1.5V183.5z M211.1,180.4h-1.5
	v-6.2h1.5V180.4z M211.1,171.2h-1.5V165h1.5V171.2z M209.6,118.8h1.5v6.2h-1.5V118.8z M209.6,109.6h1.5v6.2h-1.5V109.6z
	 M211.1,106.5h-1.5v-6.2h1.5V106.5z M211.1,97.3h-1.5v-6.2h1.5V97.3z M211.1,88h-1.5v-6.2h1.5V88z"/>
</svg>
