<svg xmlns="http://www.w3.org/2000/svg" width="290" height="290" viewBox="0 0 290 290">
  <path fill-rule="evenodd" d="M7.88659925,209.441689 C6.11023026,211.440104 5,213.438519 5,216.103073 C5,220.988083 8.99682889,224.984913 14.103889,224.984913 C16.3243482,224.984913 18.7668547,224.318775 20.5432243,222.5424 L145.11106,88.4265864 L269.456823,222.5424 C271.233181,224.318775 273.675773,224.984913 276.118207,224.984913 C281.225258,224.984913 285,220.988083 285,216.103073 C285,213.438519 284.111899,211.440104 282.335541,209.66373 L152.88268,69.9967675 C150.662208,67.5543334 147.997654,66 144.889019,66 C142.002409,66 139.559912,67.5543334 137.339455,69.7747424 L7.88659925,209.441689 Z"/>
</svg>
