<svg xmlns="http://www.w3.org/2000/svg" width="290" height="290" viewBox="0 0 290 290">
  <path fill-rule="evenodd" d="M10.3164559,193.004146 C6.77215243,196.548451 5,201.27419 5,206.196831 C5,216.632831 13.0731365,224.705974 23.5091429,224.705974 C28.4317839,224.705974 33.1575237,222.933822 36.7018286,219.389517 L144.99993,111.09136 L253.298088,219.389517 C256.842476,222.933822 261.765075,224.705974 266.490787,224.705974 C277.517588,224.705974 285,216.042113 285,206.196831 C285,201.27419 283.227875,196.548451 279.683487,193.004146 L158.19263,71.5132608 C154.648381,67.7721245 149.725782,66 144.99993,66 C140.274246,66 135.54852,67.7721245 131.8073,71.5132608 L10.3164559,193.004146 Z"/>
</svg>
