<svg xmlns="http://www.w3.org/2000/svg" width="290" height="290" viewBox="0 0 290 290">
  <path fill="#333" d="M145,285 C221.588235,285 285,221.45098 285,145 C285,68.4117647 221.45098,5 144.862745,5 C68.4117647,5 5,68.4117647 5,145 C5,221.45098 68.5490196,285 145,285 Z M145,261.666667 C80.2156863,261.666667 28.4705882,209.784314 28.4705882,145 C28.4705882,80.2156863 80.0784314,28.3333333 144.862745,28.3333333 C209.647059,28.3333333 261.529412,80.2156863 261.666938,145 C261.803922,209.784314 209.784314,261.666667 145,261.666667 Z M159.960784,200.45098 C173.686275,200.45098 181.784314,192.490196 181.784314,178.901961 L181.784314,111.372549 C181.784314,97.7843137 174.372549,89.9607843 160.647059,89.9607843 L87.3529412,89.9607843 C74.3137255,89.9607843 65.5294118,97.7843137 65.5294118,111.372549 L65.5294118,178.901961 C65.5294118,192.490196 73.7647059,200.45098 87.3529412,200.45098 L159.960784,200.45098 Z M223.784314,190.019608 C229.137255,190.019608 232.568627,186.176471 232.568627,180.411765 L232.568627,109.72549 C232.568627,104.098039 229.137255,100.254902 223.784314,100.254902 C221.313725,100.254902 218.568627,101.627451 216.235294,103.54902 L189.470588,126.333333 L189.470588,163.941176 L216.235294,186.588235 C218.705882,188.647059 221.313725,190.019608 223.784314,190.019608 Z"/>
</svg>
