<svg xmlns="http://www.w3.org/2000/svg" width="290" height="290" viewBox="0 0 290 290">
  <path fill="#333" d="M145,285 C221.588235,285 285,221.588235 285,145 C285,68.5490196 221.45098,5 144.862745,5 C68.4117647,5 5,68.5490196 5,145 C5,221.588235 68.5490196,285 145,285 Z M160.784314,202.098039 L85.9803922,202.098039 C71.8431373,202.098039 63.4705882,193.862745 63.4705882,180 L63.4705882,110.27451 C63.4705882,96.1372549 72.3921569,88.0392157 85.9803922,88.0392157 L161.470588,88.0392157 C175.745098,88.0392157 183.156863,96.1372549 183.156863,110.27451 L183.156863,180 C183.156863,193.862745 174.921569,202.098039 160.784314,202.098039 Z M226.666667,191.392157 C224.196078,191.392157 221.313725,190.019608 218.843137,187.960784 L191.117647,164.352941 L191.117647,125.784314 L218.843137,102.176471 C221.176471,100.254902 224.196078,98.8823529 226.666667,98.8823529 C232.019608,98.8823529 235.588235,102.72549 235.588235,108.627451 L235.588235,181.509804 C235.588235,187.54902 232.019608,191.392157 226.666667,191.392157 Z"/>
</svg>
