<svg xmlns="http://www.w3.org/2000/svg" width="290" height="290" viewBox="0 0 290 290">
  <path fill-rule="evenodd" d="M13.7075798 27.4151597L266.29255 27.4151597C273.968717 27.4151597 280 21.3838763 280 13.7075798 280 6.03141284 273.968717 2.44781972e-12 266.29255 2.44781972e-12L13.7075798 2.44781972e-12C6.03133254 2.44781972e-12 0 6.03141284 0 13.7075798 0 21.3838763 6.03133254 27.4151597 13.7075798 27.4151597zM13.7075798 102.532723L266.29255 102.532723C273.968717 102.532723 280 96.5013102 280 88.8251432 280 81.1488467 273.968717 75.1175634 266.29255 75.1175634L13.7075798 75.1175634C6.03133254 75.1175634 0 81.1488467 0 88.8251432 0 96.5013102 6.03133254 102.532723 13.7075798 102.532723zM13.7075798 177.650209L266.29255 177.650209C273.968717 177.650209 280 171.618874 280 163.942642 280 156.266397 273.968717 150.235062 266.29255 150.235062L13.7075798 150.235062C6.03133254 150.235062 0 156.266397 0 163.942642 0 171.618874 6.03133254 177.650209 13.7075798 177.650209zM13.7075798 252.767723L266.29255 252.767723C273.968717 252.767723 280 246.736389 280 239.060153 280 231.383909 273.968717 225.352574 266.29255 225.352574L13.7075798 225.352574C6.03133254 225.352574 0 231.383909 0 239.060153 0 246.736389 6.03133254 252.767723 13.7075798 252.767723z" transform="translate(5 19)"/>
</svg>
