<svg xmlns="http://www.w3.org/2000/svg" width="290" height="290" viewBox="0 0 290 290">
  <path fill-rule="evenodd" d="M6.39686843 12.793698L273.603216 12.793698C277.075734 12.793698 280 10.052182 280 6.39678424 280 2.74151597 277.075734 3.01092484e-13 273.603216 3.01092484e-13L6.39686843 3.01092484e-13C2.92428197 3.01092484e-13 0 2.74151597 0 6.39678424 0 10.052182 2.92428197 12.793698 6.39686843 12.793698zM6.39686843 87.9112614L273.603216 87.9112614C277.075734 87.9112614 280 84.9868654 280 81.3315972 280 77.8589498 277.075734 74.9346834 273.603216 74.9346834L6.39686843 74.9346834C2.92428197 74.9346834 0 77.8589498 0 81.3315972 0 84.9868654 2.92428197 87.9112614 6.39686843 87.9112614zM6.39686843 162.845945L273.603216 162.845945C277.075734 162.845945 280 159.921665 280 156.44907 280 152.793724 277.075734 149.869445 273.603216 149.869445L6.39686843 149.869445C2.92428197 149.869445 0 152.793724 0 156.44907 0 159.921665 2.92428197 162.845945 6.39686843 162.845945zM6.39686843 237.78068L273.603216 237.78068C277.075734 237.78068 280 235.039164 280 231.383818 280 227.728459 277.075734 224.80418 273.603216 224.80418L6.39686843 224.80418C2.92428197 224.80418 0 227.728459 0 231.383818 0 235.039164 2.92428197 237.78068 6.39686843 237.78068z" transform="translate(5 26)"/>
</svg>
