<?xml version="1.0" encoding="utf-8"?>
<!-- Generator: Adobe Illustrator 19.2.1, SVG Export Plug-In . SVG Version: 6.00 Build 0)  -->
<svg version="1.1" xmlns="http://www.w3.org/2000/svg" xmlns:xlink="http://www.w3.org/1999/xlink"
	 viewBox="0 0 290 290" xml:space="preserve">
<path d="M277.5,238.2L169,24.4c-13.1-25.8-35-25.8-48.1,0L12.5,238.2C-0.6,264,12,285,40.9,285h208.6
	C277.9,285,290.6,264,277.5,238.2z M145,250c-9.6,0-17.1-7.4-17.1-17.1s7.4-17.1,17.1-17.1s17.1,7.4,17.1,17.1S154.6,250,145,250z
	 M145,197.5c-9.6,0-17.5-86.6-17.5-96.2s7.9-17.5,17.5-17.5s17.5,7.9,17.5,17.5S154.6,197.5,145,197.5z"/>
</svg>
