<svg xmlns="http://www.w3.org/2000/svg" width="290" height="290" viewBox="0 0 290 290">
  <path fill-rule="evenodd" d="M38.7037062,272.876501 L251.296282,272.876501 C272.209855,272.876501 285,258.35798 285,239.172799 C285,233.641928 283.444468,227.938222 280.506228,222.753047 L174.037062,32.1110941 C167.814813,20.8764805 156.407376,15 145.000061,15 C133.592624,15 122.185187,20.8764805 115.962975,32.1110941 L9.66666748,222.753047 C6.55555624,228.11107 5,233.641928 5,239.172799 C5,258.35798 17.7901209,272.876501 38.7037062,272.876501 Z M130.827207,172.456741 L129.271553,95.1974598 C129.09873,86.5555624 135.148156,80.6789594 145.172884,80.6789594 C155.024667,80.6789594 161.074093,86.5555624 160.728447,95.1974598 L159.345738,172.456741 C159.172793,180.407357 153.469135,186.283899 145.172884,186.283899 C136.703688,186.283899 131.000031,180.407357 130.827207,172.456741 Z M124.086427,222.925882 C124.086427,212.209836 132.382739,204.950574 145.000061,204.950574 C157.617261,204.950574 165.913634,212.209836 165.913634,222.925882 C165.913634,233.469093 157.617261,240.90119 145.000061,240.90119 C132.382739,240.90119 124.086427,233.469093 124.086427,222.925882 Z"/>
</svg>
