<svg xmlns="http://www.w3.org/2000/svg" width="290" height="290" viewBox="0 0 290 290">
  <path fill-rule="evenodd" d="M37.0650841,273.221616 L253.110156,273.221616 C272.03377,273.221616 285,258.328 285,241.156536 C285,235.724735 283.773458,230.468174 280.794766,225.211601 L172.509408,31.9450463 C166.727227,21.4318999 155.863552,16 145,16 C134.311651,16 123.097632,21.2565732 117.315402,31.9450463 L9.03003738,225.562031 C6.22653333,230.292947 5,235.724735 5,241.156536 C5,258.328 17.9662056,273.221616 37.0650841,273.221616 Z M137.816075,176.85114 L135.538193,86.7885356 C135.538193,82.2328968 139.918629,78.3780682 145.175203,78.3780682 C150.606978,78.3780682 154.812336,82.2328968 154.637009,86.7885356 L152.534455,176.85114 C152.534455,180.881184 149.030031,184.035127 145.175203,184.035127 C141.320374,184.035127 137.991277,180.881184 137.816075,176.85114 Z M130.456822,219.078928 C130.456822,211.018853 136.589533,205.061408 145.175203,205.061408 C153.760997,205.061408 159.893583,211.018853 159.893583,219.078928 C159.893583,226.963788 153.760997,233.096461 145.175203,233.096461 C136.589533,233.096461 130.456822,226.963788 130.456822,219.078928 Z"/>
</svg>
