<svg xmlns="http://www.w3.org/2000/svg" width="290" height="290" viewBox="0 0 290 290">
  <path fill-rule="nonzero" d="M168.316505,285.595725 C203.604301,248.752511 224,199.143446 224,145.009777 C224,90.8761073 203.604301,41.2670429 168.316505,4.42382901 C162.489162,-1.71670665 154.557501,-1.07033447 150.025124,3.93904988 C145.330876,9.11002727 146.302099,16.3817142 151.805701,22.1990638 C182.884861,54.5176725 199.719406,97.8246082 199.719406,145.009777 C199.719406,192.194946 182.884861,235.501881 151.805701,267.82049 C146.302099,273.476246 145.330876,280.909526 150.025124,285.918911 C154.557501,291.089888 162.489162,291.73626 168.316505,285.595725 Z M127.525107,245.682243 C152.291313,219.019391 166.050316,183.307328 166.050316,145.009777 C166.050316,106.550633 152.291313,71.0001629 127.525107,44.1757177 C121.859635,37.873589 113.604233,37.873589 108.748114,43.3677525 C104.053866,48.861916 105.348831,55.8104168 110.852432,61.7893595 C130.92439,84.2507925 141.931592,113.33754 141.931592,145.009777 C141.931592,176.682013 130.92439,205.768761 110.852432,228.230194 C105.348831,234.209137 104.053866,241.157638 108.748114,246.490208 C113.604233,252.145965 121.859635,251.984372 127.525107,245.682243 Z M87.8668033,203.021679 C100.816453,187.023968 108.262502,166.663245 108.262502,145.009777 C108.262502,123.194716 100.816453,102.833993 87.8668033,86.8362812 C82.5250726,80.2109664 73.6221882,80.2109664 68.7660694,85.7051299 C63.9099506,91.1992934 66.0142687,97.6630151 70.7085169,104.126737 C79.4495307,115.276657 83.9819083,129.496845 83.9819083,145.009777 C83.9819083,160.522709 79.4495307,174.742897 70.7085169,185.731224 C66.0142687,192.356539 63.9099506,198.82026 68.7660694,204.314424 C73.6221882,209.808587 82.5250726,209.808587 87.8668033,203.021679 Z" />
</svg>